<?xml version="1.0" encoding="UTF-8"?>
<svg xmlns="http://www.w3.org/2000/svg" width="900" height="450" viewBox="0 0 900 450" role="img" aria-label="CUT_MULTI grid">
<rect width="100%" height="100%" fill="#ffffff"/>
<title>CUT_MULTI grid</title>
<circle cx="450.000" cy="225.000" r="198.000" fill="#f8fafc" stroke="#cbd5e1" stroke-width="1.0"/>
<g fill="none" stroke="#1f2937" stroke-width="0.8" stroke-linecap="round" stroke-linejoin="round">
<line x1="456.490" y1="346.175" x2="486.792" y2="344.394" stroke-opacity="0.350"/>
<line x1="586.404" y1="102.369" x2="571.532" y2="111.672" stroke-opacity="0.382"/>
<line x1="486.792" y1="344.394" x2="527.414" y2="281.869" stroke-opacity="0.401"/>
<line x1="410.160" y1="395.866" x2="486.792" y2="344.394" stroke-opacity="0.439"/>
<line x1="586.404" y1="102.369" x2="569.844" y2="24.000" stroke-opacity="0.440"/>
<line x1="527.414" y1="281.869" x2="542.286" y2="272.566" stroke-opacity="0.449"/>
<line x1="355.072" y1="421.811" x2="313.596" y2="426.000" stroke-opacity="0.459"/>
<line x1="572.233" y1="196.365" x2="586.404" y2="102.369" stroke-opacity="0.464"/>
<line x1="355.072" y1="421.811" x2="410.160" y2="395.866" stroke-opacity="0.479"/>
<line x1="572.233" y1="196.365" x2="542.286" y2="272.566" stroke-opacity="0.497"/>
<line x1="425.858" y1="386.046" x2="410.160" y2="395.866" stroke-opacity="0.532"/>
<line x1="486.792" y1="344.394" x2="542.286" y2="272.566" stroke-opacity="0.537"/>
<line x1="572.233" y1="196.365" x2="573.777" y2="184.089" stroke-opacity="0.540"/>
<line x1="425.858" y1="386.046" x2="486.792" y2="344.394" stroke-opacity="0.582"/>
<line x1="573.777" y1="184.089" x2="586.404" y2="102.369" stroke-opacity="0.594"/>
<line x1="355.072" y1="421.811" x2="425.858" y2="386.046" stroke-opacity="0.622"/>
<line x1="542.286" y1="272.566" x2="573.777" y2="184.089" stroke-opacity="0.627"/>
<line x1="487.507" y1="326.772" x2="486.792" y2="344.394" stroke-opacity="0.632"/>
<line x1="586.404" y1="102.369" x2="571.995" y2="91.544" stroke-opacity="0.655"/>
<line x1="487.507" y1="326.772" x2="542.286" y2="272.566" stroke-opacity="0.680"/>
<line x1="355.072" y1="421.811" x2="338.996" y2="410.111" stroke-opacity="0.690"/>
<line x1="530.897" y1="250.089" x2="542.286" y2="272.566" stroke-opacity="0.720"/>
<line x1="487.507" y1="326.772" x2="425.858" y2="386.046" stroke-opacity="0.725"/>
<line x1="573.777" y1="184.089" x2="571.995" y2="91.544" stroke-opacity="0.732"/>
<line x1="338.996" y1="410.111" x2="425.858" y2="386.046" stroke-opacity="0.744"/>
<line x1="530.897" y1="250.089" x2="573.777" y2="184.089" stroke-opacity="0.763"/>
<line x1="551.985" y1="166.939" x2="573.777" y2="184.089" stroke-opacity="0.789"/>
<line x1="425.858" y1="386.046" x2="410.398" y2="359.686" stroke-opacity="0.809"/>
<line x1="487.507" y1="326.772" x2="530.897" y2="250.089" stroke-opacity="0.816"/>
<line x1="551.985" y1="166.939" x2="571.995" y2="91.544" stroke-opacity="0.850"/>
<line x1="487.507" y1="326.772" x2="410.398" y2="359.686" stroke-opacity="0.859"/>
<line x1="551.985" y1="166.939" x2="530.897" y2="250.089" stroke-opacity="0.881"/>
<line x1="487.507" y1="326.772" x2="465.892" y2="287.858" stroke-opacity="0.907"/>
<line x1="465.892" y1="287.858" x2="530.897" y2="250.089" stroke-opacity="0.947"/>
<line x1="530.897" y1="250.089" x2="502.613" y2="198.334" stroke-opacity="0.974"/>
<line x1="551.985" y1="166.939" x2="502.613" y2="198.334" stroke-opacity="1.000"/>
</g>
</svg>
