<?xml version="1.0" encoding="UTF-8"?>
<svg xmlns="http://www.w3.org/2000/svg" width="900" height="450" viewBox="0 0 900 450" role="img" aria-label="CUT_GRID grid">
<rect width="100%" height="100%" fill="#ffffff"/>
<title>CUT_GRID grid</title>
<circle cx="450.000" cy="225.000" r="198.000" fill="#f8fafc" stroke="#cbd5e1" stroke-width="1.0"/>
<g fill="none" stroke="#1f2937" stroke-width="0.8" stroke-linecap="round" stroke-linejoin="round">
<line x1="432.070" y1="330.817" x2="470.203" y2="328.575" stroke-opacity="0.350"/>
<line x1="595.559" y1="24.000" x2="576.844" y2="35.707" stroke-opacity="0.389"/>
<line x1="470.203" y1="328.575" x2="521.324" y2="249.891" stroke-opacity="0.413"/>
<line x1="373.766" y1="393.349" x2="470.203" y2="328.575" stroke-opacity="0.459"/>
<line x1="521.324" y1="249.891" x2="540.039" y2="238.184" stroke-opacity="0.471"/>
<line x1="577.725" y1="142.289" x2="595.559" y2="24.000" stroke-opacity="0.489"/>
<line x1="304.441" y1="426.000" x2="373.766" y2="393.349" stroke-opacity="0.508"/>
<line x1="577.725" y1="142.289" x2="540.039" y2="238.184" stroke-opacity="0.530"/>
<line x1="393.521" y1="380.991" x2="373.766" y2="393.349" stroke-opacity="0.573"/>
<line x1="470.203" y1="328.575" x2="540.039" y2="238.184" stroke-opacity="0.578"/>
<line x1="577.725" y1="142.289" x2="579.669" y2="126.840" stroke-opacity="0.583"/>
<line x1="393.521" y1="380.991" x2="470.203" y2="328.575" stroke-opacity="0.634"/>
<line x1="579.669" y1="126.840" x2="595.559" y2="24.000" stroke-opacity="0.648"/>
<line x1="304.441" y1="426.000" x2="393.521" y2="380.991" stroke-opacity="0.683"/>
<line x1="540.039" y1="238.184" x2="579.669" y2="126.840" stroke-opacity="0.689"/>
<line x1="471.103" y1="306.399" x2="470.203" y2="328.575" stroke-opacity="0.695"/>
<line x1="471.103" y1="306.399" x2="540.039" y2="238.184" stroke-opacity="0.754"/>
<line x1="525.707" y1="209.898" x2="540.039" y2="238.184" stroke-opacity="0.803"/>
<line x1="471.103" y1="306.399" x2="393.521" y2="380.991" stroke-opacity="0.809"/>
<line x1="525.707" y1="209.898" x2="579.669" y2="126.840" stroke-opacity="0.855"/>
<line x1="552.245" y1="105.257" x2="579.669" y2="126.840" stroke-opacity="0.887"/>
<line x1="471.103" y1="306.399" x2="525.707" y2="209.898" stroke-opacity="0.920"/>
<line x1="552.245" y1="105.257" x2="525.707" y2="209.898" stroke-opacity="1.000"/>
</g>
</svg>
