<?xml version="1.0" encoding="UTF-8"?>
<svg xmlns="http://www.w3.org/2000/svg" width="900" height="450" viewBox="0 0 900 450" role="img" aria-label="CUT_GRID grid">
<rect width="100%" height="100%" fill="#ffffff"/>
<title>CUT_GRID grid</title>
<g fill="none" stroke="#1f2937" stroke-width="0.8" stroke-linecap="round" stroke-linejoin="round">
<line x1="347.929" y1="195.857" x2="245.858" y2="201.310"/>
<line x1="347.929" y1="195.857" x2="298.411" y2="117.595"/>
<line x1="245.858" y1="201.310" x2="298.411" y2="117.595"/>
<line x1="296.035" y1="284.295" x2="397.447" y2="274.119"/>
<line x1="296.035" y1="284.295" x2="353.348" y2="367.717"/>
<line x1="353.348" y1="367.717" x2="397.447" y2="274.119"/>
<line x1="347.929" y1="195.857" x2="296.035" y2="284.295"/>
<line x1="245.858" y1="201.310" x2="296.035" y2="284.295"/>
<line x1="450.000" y1="16.000" x2="399.823" y2="107.420"/>
<line x1="450.000" y1="16.000" x2="342.511" y2="23.998"/>
<line x1="342.511" y1="23.998" x2="399.823" y2="107.420"/>
<line x1="245.858" y1="45.217" x2="342.511" y2="23.998"/>
<line x1="245.858" y1="45.217" x2="298.411" y2="117.595"/>
<line x1="342.511" y1="23.998" x2="298.411" y2="117.595"/>
<line x1="654.142" y1="45.217" x2="601.589" y2="117.595"/>
<line x1="654.142" y1="45.217" x2="557.489" y2="23.998"/>
<line x1="557.489" y1="23.998" x2="601.589" y2="117.595"/>
<line x1="450.000" y1="16.000" x2="557.489" y2="23.998"/>
<line x1="450.000" y1="16.000" x2="500.177" y2="107.420"/>
<line x1="557.489" y1="23.998" x2="500.177" y2="107.420"/>
<line x1="552.071" y1="195.857" x2="601.589" y2="117.595"/>
<line x1="552.071" y1="195.857" x2="654.142" y2="201.310"/>
<line x1="601.589" y1="117.595" x2="654.142" y2="201.310"/>
<line x1="502.553" y1="274.119" x2="603.965" y2="284.295"/>
<line x1="502.553" y1="274.119" x2="546.652" y2="367.717"/>
<line x1="546.652" y1="367.717" x2="603.965" y2="284.295"/>
<line x1="552.071" y1="195.857" x2="603.965" y2="284.295"/>
<line x1="654.142" y1="201.310" x2="603.965" y2="284.295"/>
<line x1="450.000" y1="346.497" x2="546.652" y2="367.717"/>
<line x1="450.000" y1="346.497" x2="450.000" y2="434.000"/>
<line x1="546.652" y1="367.717" x2="450.000" y2="434.000"/>
<line x1="450.000" y1="346.497" x2="353.348" y2="367.717"/>
<line x1="353.348" y1="367.717" x2="450.000" y2="434.000"/>
<line x1="450.000" y1="346.497" x2="397.447" y2="274.119"/>
<line x1="347.929" y1="195.857" x2="397.447" y2="274.119"/>
<line x1="298.411" y1="117.595" x2="399.823" y2="107.420"/>
<line x1="347.929" y1="195.857" x2="399.823" y2="107.420"/>
<line x1="500.177" y1="107.420" x2="601.589" y2="117.595"/>
<line x1="552.071" y1="195.857" x2="500.177" y2="107.420"/>
<line x1="399.823" y1="107.420" x2="500.177" y2="107.420"/>
<line x1="552.071" y1="195.857" x2="502.553" y2="274.119"/>
<line x1="450.000" y1="346.497" x2="502.553" y2="274.119"/>
<line x1="552.071" y1="195.857" x2="450.000" y2="190.404"/>
<line x1="502.553" y1="274.119" x2="450.000" y2="190.404"/>
<line x1="347.929" y1="195.857" x2="450.000" y2="190.404"/>
<line x1="397.447" y1="274.119" x2="450.000" y2="190.404"/>
<line x1="397.447" y1="274.119" x2="502.553" y2="274.119"/>
<line x1="399.823" y1="107.420" x2="450.000" y2="190.404"/>
<line x1="450.000" y1="190.404" x2="500.177" y2="107.420"/>
</g>
</svg>
