<?xml version="1.0" encoding="UTF-8"?>
<svg xmlns="http://www.w3.org/2000/svg" width="900" height="450" viewBox="0 0 900 450" role="img" aria-label="R01B01 grid">
<rect width="100%" height="100%" fill="#ffffff"/>
<title>R01B01 grid</title>
<g fill="none" stroke="#1f2937" stroke-width="0.8" stroke-linecap="round" stroke-linejoin="round">
<line x1="868.000" y1="163.310" x2="868.000" y2="89.655"/>
<line x1="868.000" y1="89.655" x2="857.785" y2="16.000"/>
<line x1="199.200" y1="163.310" x2="115.600" y2="151.345"/>
<line x1="199.200" y1="89.655" x2="199.200" y2="163.310"/>
<line x1="366.400" y1="163.310" x2="282.800" y2="151.345"/>
<line x1="282.800" y1="151.345" x2="199.200" y2="163.310"/>
<line x1="366.400" y1="89.655" x2="366.400" y2="163.310"/>
<line x1="533.600" y1="163.310" x2="450.000" y2="151.345"/>
<line x1="450.000" y1="151.345" x2="366.400" y2="163.310"/>
<line x1="857.785" y1="16.000" x2="533.600" y2="89.655"/>
<line x1="533.600" y1="89.655" x2="533.600" y2="163.310"/>
<line x1="700.800" y1="163.310" x2="617.200" y2="151.345"/>
<line x1="617.200" y1="151.345" x2="533.600" y2="163.310"/>
<line x1="857.785" y1="16.000" x2="700.800" y2="89.655"/>
<line x1="700.800" y1="89.655" x2="700.800" y2="163.310"/>
<line x1="868.000" y1="163.310" x2="784.400" y2="151.345"/>
<line x1="784.400" y1="151.345" x2="700.800" y2="163.310"/>
<line x1="115.600" y1="286.690" x2="73.800" y2="225.000"/>
<line x1="199.200" y1="163.310" x2="157.400" y2="225.000"/>
<line x1="157.400" y1="225.000" x2="115.600" y2="286.690"/>
<line x1="282.800" y1="286.690" x2="199.200" y2="298.655"/>
<line x1="199.200" y1="298.655" x2="115.600" y2="286.690"/>
<line x1="199.200" y1="163.310" x2="241.000" y2="225.000"/>
<line x1="241.000" y1="225.000" x2="282.800" y2="286.690"/>
<line x1="366.400" y1="163.310" x2="324.600" y2="225.000"/>
<line x1="324.600" y1="225.000" x2="282.800" y2="286.690"/>
<line x1="450.000" y1="286.690" x2="366.400" y2="298.655"/>
<line x1="366.400" y1="298.655" x2="282.800" y2="286.690"/>
<line x1="366.400" y1="163.310" x2="408.200" y2="225.000"/>
<line x1="408.200" y1="225.000" x2="450.000" y2="286.690"/>
<line x1="533.600" y1="163.310" x2="491.800" y2="225.000"/>
<line x1="491.800" y1="225.000" x2="450.000" y2="286.690"/>
<line x1="617.200" y1="286.690" x2="533.600" y2="298.655"/>
<line x1="533.600" y1="298.655" x2="450.000" y2="286.690"/>
<line x1="533.600" y1="163.310" x2="575.400" y2="225.000"/>
<line x1="575.400" y1="225.000" x2="617.200" y2="286.690"/>
<line x1="700.800" y1="163.310" x2="659.000" y2="225.000"/>
<line x1="659.000" y1="225.000" x2="617.200" y2="286.690"/>
<line x1="784.400" y1="286.690" x2="700.800" y2="298.655"/>
<line x1="700.800" y1="298.655" x2="617.200" y2="286.690"/>
<line x1="700.800" y1="163.310" x2="742.600" y2="225.000"/>
<line x1="742.600" y1="225.000" x2="784.400" y2="286.690"/>
<line x1="868.000" y1="163.310" x2="826.200" y2="225.000"/>
<line x1="826.200" y1="225.000" x2="784.400" y2="286.690"/>
<line x1="115.600" y1="286.690" x2="32.000" y2="298.655"/>
<line x1="115.600" y1="286.690" x2="115.600" y2="360.345"/>
<line x1="115.600" y1="360.345" x2="119.534" y2="434.000"/>
<line x1="784.400" y1="360.345" x2="784.400" y2="286.690"/>
<line x1="617.200" y1="360.345" x2="617.200" y2="286.690"/>
<line x1="119.534" y1="434.000" x2="450.000" y2="360.345"/>
<line x1="450.000" y1="360.345" x2="450.000" y2="286.690"/>
<line x1="119.534" y1="434.000" x2="282.800" y2="360.345"/>
<line x1="282.800" y1="360.345" x2="282.800" y2="286.690"/>
<line x1="115.600" y1="151.345" x2="199.200" y2="89.655"/>
<line x1="366.400" y1="89.655" x2="199.200" y2="89.655"/>
<line x1="199.200" y1="89.655" x2="282.800" y2="151.345"/>
<line x1="366.400" y1="89.655" x2="282.800" y2="151.345"/>
<line x1="533.600" y1="89.655" x2="366.400" y2="89.655"/>
<line x1="366.400" y1="89.655" x2="450.000" y2="151.345"/>
<line x1="533.600" y1="89.655" x2="450.000" y2="151.345"/>
<line x1="700.800" y1="89.655" x2="533.600" y2="89.655"/>
<line x1="533.600" y1="89.655" x2="617.200" y2="151.345"/>
<line x1="700.800" y1="89.655" x2="617.200" y2="151.345"/>
<line x1="868.000" y1="89.655" x2="700.800" y2="89.655"/>
<line x1="784.400" y1="151.345" x2="700.800" y2="89.655"/>
<line x1="868.000" y1="89.655" x2="784.400" y2="151.345"/>
<line x1="115.600" y1="151.345" x2="73.800" y2="225.000"/>
<line x1="157.400" y1="225.000" x2="73.800" y2="225.000"/>
<line x1="157.400" y1="225.000" x2="115.600" y2="151.345"/>
<line x1="241.000" y1="225.000" x2="157.400" y2="225.000"/>
<line x1="157.400" y1="225.000" x2="199.200" y2="298.655"/>
<line x1="241.000" y1="225.000" x2="199.200" y2="298.655"/>
<line x1="282.800" y1="151.345" x2="241.000" y2="225.000"/>
<line x1="324.600" y1="225.000" x2="241.000" y2="225.000"/>
<line x1="282.800" y1="151.345" x2="324.600" y2="225.000"/>
<line x1="408.200" y1="225.000" x2="324.600" y2="225.000"/>
<line x1="324.600" y1="225.000" x2="366.400" y2="298.655"/>
<line x1="408.200" y1="225.000" x2="366.400" y2="298.655"/>
<line x1="450.000" y1="151.345" x2="408.200" y2="225.000"/>
<line x1="491.800" y1="225.000" x2="408.200" y2="225.000"/>
<line x1="450.000" y1="151.345" x2="491.800" y2="225.000"/>
<line x1="575.400" y1="225.000" x2="491.800" y2="225.000"/>
<line x1="491.800" y1="225.000" x2="533.600" y2="298.655"/>
<line x1="575.400" y1="225.000" x2="533.600" y2="298.655"/>
<line x1="617.200" y1="151.345" x2="575.400" y2="225.000"/>
<line x1="659.000" y1="225.000" x2="575.400" y2="225.000"/>
<line x1="617.200" y1="151.345" x2="659.000" y2="225.000"/>
<line x1="742.600" y1="225.000" x2="659.000" y2="225.000"/>
<line x1="659.000" y1="225.000" x2="700.800" y2="298.655"/>
<line x1="742.600" y1="225.000" x2="700.800" y2="298.655"/>
<line x1="784.400" y1="151.345" x2="742.600" y2="225.000"/>
<line x1="826.200" y1="225.000" x2="742.600" y2="225.000"/>
<line x1="784.400" y1="151.345" x2="826.200" y2="225.000"/>
<line x1="73.800" y1="225.000" x2="32.000" y2="298.655"/>
<line x1="115.600" y1="360.345" x2="32.000" y2="298.655"/>
<line x1="784.400" y1="360.345" x2="617.200" y2="360.345"/>
<line x1="784.400" y1="360.345" x2="700.800" y2="298.655"/>
<line x1="617.200" y1="360.345" x2="700.800" y2="298.655"/>
<line x1="617.200" y1="360.345" x2="450.000" y2="360.345"/>
<line x1="617.200" y1="360.345" x2="533.600" y2="298.655"/>
<line x1="450.000" y1="360.345" x2="533.600" y2="298.655"/>
<line x1="450.000" y1="360.345" x2="282.800" y2="360.345"/>
<line x1="450.000" y1="360.345" x2="366.400" y2="298.655"/>
<line x1="282.800" y1="360.345" x2="366.400" y2="298.655"/>
<line x1="282.800" y1="360.345" x2="115.600" y2="360.345"/>
<line x1="199.200" y1="298.655" x2="282.800" y2="360.345"/>
<line x1="115.600" y1="360.345" x2="199.200" y2="298.655"/>
</g>
</svg>
