<?xml version="1.0" encoding="UTF-8"?>
<svg xmlns="http://www.w3.org/2000/svg" width="900" height="450" viewBox="0 0 900 450" role="img" aria-label="R01B01 grid">
<rect width="100%" height="100%" fill="#ffffff"/>
<title>R01B01 grid</title>
<circle cx="450.000" cy="225.000" r="198.000" fill="#f8fafc" stroke="#cbd5e1" stroke-width="1.0"/>
<g fill="none" stroke="#1f2937" stroke-width="0.8" stroke-linecap="round" stroke-linejoin="round">
<line x1="414.142" y1="55.305" x2="388.996" y2="24.835" stroke-opacity="0.350"/>
<line x1="511.004" y1="425.165" x2="453.656" y2="414.838" stroke-opacity="0.411"/>
<line x1="648.082" y1="163.185" x2="628.180" y2="175.635" stroke-opacity="0.422"/>
<line x1="304.021" y1="85.815" x2="388.996" y2="24.835" stroke-opacity="0.426"/>
<line x1="397.897" y1="426.000" x2="453.656" y2="414.838" stroke-opacity="0.433"/>
<line x1="511.004" y1="425.165" x2="576.078" y2="376.635" stroke-opacity="0.433"/>
<line x1="262.650" y1="188.369" x2="249.659" y2="169.488" stroke-opacity="0.433"/>
<line x1="397.897" y1="426.000" x2="329.838" y2="380.530" stroke-opacity="0.453"/>
<line x1="388.996" y1="24.835" x2="502.103" y2="24.000" stroke-opacity="0.461"/>
<line x1="300.353" y1="366.797" x2="329.838" y2="380.530" stroke-opacity="0.465"/>
<line x1="249.659" y1="169.488" x2="304.021" y2="85.815" stroke-opacity="0.470"/>
<line x1="595.979" y1="364.185" x2="576.078" y2="376.635" stroke-opacity="0.491"/>
<line x1="648.082" y1="163.185" x2="599.647" y2="83.203" stroke-opacity="0.498"/>
<line x1="251.918" y1="286.815" x2="249.659" y2="169.488" stroke-opacity="0.505"/>
<line x1="648.082" y1="163.185" x2="650.341" y2="280.512" stroke-opacity="0.512"/>
<line x1="300.353" y1="366.797" x2="251.918" y2="286.815" stroke-opacity="0.519"/>
<line x1="304.021" y1="85.815" x2="323.922" y2="73.365" stroke-opacity="0.526"/>
<line x1="595.979" y1="364.185" x2="650.341" y2="280.512" stroke-opacity="0.547"/>
<line x1="570.162" y1="69.470" x2="599.647" y2="83.203" stroke-opacity="0.552"/>
<line x1="511.004" y1="425.165" x2="397.897" y2="426.000" stroke-opacity="0.555"/>
<line x1="570.162" y1="69.470" x2="502.103" y2="24.000" stroke-opacity="0.564"/>
<line x1="637.350" y1="261.631" x2="650.341" y2="280.512" stroke-opacity="0.583"/>
<line x1="323.922" y1="73.365" x2="388.996" y2="24.835" stroke-opacity="0.584"/>
<line x1="446.344" y1="35.162" x2="502.103" y2="24.000" stroke-opacity="0.584"/>
<line x1="397.897" y1="426.000" x2="300.353" y2="366.797" stroke-opacity="0.589"/>
<line x1="595.979" y1="364.185" x2="511.004" y2="425.165" stroke-opacity="0.591"/>
<line x1="251.918" y1="286.815" x2="271.820" y2="274.365" stroke-opacity="0.595"/>
<line x1="446.344" y1="35.162" x2="388.996" y2="24.835" stroke-opacity="0.606"/>
<line x1="249.659" y1="169.488" x2="323.922" y2="73.365" stroke-opacity="0.628"/>
<line x1="570.162" y1="69.470" x2="648.082" y2="163.185" stroke-opacity="0.634"/>
<line x1="637.350" y1="261.631" x2="648.082" y2="163.185" stroke-opacity="0.651"/>
<line x1="271.820" y1="274.365" x2="249.659" y2="169.488" stroke-opacity="0.663"/>
<line x1="485.858" y1="394.695" x2="511.004" y2="425.165" stroke-opacity="0.667"/>
<line x1="300.353" y1="366.797" x2="271.820" y2="274.365" stroke-opacity="0.677"/>
<line x1="637.350" y1="261.631" x2="595.979" y2="364.185" stroke-opacity="0.686"/>
<line x1="485.858" y1="394.695" x2="397.897" y2="426.000" stroke-opacity="0.689"/>
<line x1="249.659" y1="169.488" x2="296.509" y2="167.189" stroke-opacity="0.702"/>
<line x1="323.922" y1="73.365" x2="446.344" y2="35.162" stroke-opacity="0.706"/>
<line x1="446.344" y1="35.162" x2="570.162" y2="69.470" stroke-opacity="0.708"/>
<line x1="362.040" y1="360.386" x2="397.897" y2="426.000" stroke-opacity="0.709"/>
<line x1="362.040" y1="360.386" x2="300.353" y2="366.797" stroke-opacity="0.720"/>
<line x1="592.323" y1="174.347" x2="648.082" y2="163.185" stroke-opacity="0.724"/>
<line x1="485.858" y1="394.695" x2="595.979" y2="364.185" stroke-opacity="0.725"/>
<line x1="296.509" y1="167.189" x2="323.922" y2="73.365" stroke-opacity="0.758"/>
<line x1="592.323" y1="174.347" x2="570.162" y2="69.470" stroke-opacity="0.779"/>
<line x1="560.121" y1="298.572" x2="595.979" y2="364.185" stroke-opacity="0.780"/>
<line x1="271.820" y1="274.365" x2="296.509" y2="167.189" stroke-opacity="0.793"/>
<line x1="592.323" y1="174.347" x2="637.350" y2="261.631" stroke-opacity="0.796"/>
<line x1="271.820" y1="274.365" x2="362.040" y2="360.386" stroke-opacity="0.796"/>
<line x1="504.784" y1="102.193" x2="570.162" y2="69.470" stroke-opacity="0.798"/>
<line x1="391.981" y1="118.835" x2="323.922" y2="73.365" stroke-opacity="0.809"/>
<line x1="560.121" y1="298.572" x2="637.350" y2="261.631" stroke-opacity="0.817"/>
<line x1="504.784" y1="102.193" x2="446.344" y2="35.162" stroke-opacity="0.818"/>
<line x1="485.858" y1="394.695" x2="362.040" y2="360.386" stroke-opacity="0.820"/>
<line x1="391.981" y1="118.835" x2="446.344" y2="35.162" stroke-opacity="0.831"/>
<line x1="560.121" y1="298.572" x2="485.858" y2="394.695" stroke-opacity="0.856"/>
<line x1="359.780" y1="243.060" x2="271.820" y2="274.365" stroke-opacity="0.864"/>
<line x1="296.509" y1="167.189" x2="391.981" y2="118.835" stroke-opacity="0.883"/>
<line x1="504.784" y1="102.193" x2="592.323" y2="174.347" stroke-opacity="0.888"/>
<line x1="450.000" y1="313.537" x2="485.858" y2="394.695" stroke-opacity="0.890"/>
<line x1="560.121" y1="298.572" x2="592.323" y2="174.347" stroke-opacity="0.890"/>
<line x1="296.509" y1="167.189" x2="359.780" y2="243.060" stroke-opacity="0.904"/>
<line x1="362.040" y1="360.386" x2="359.780" y2="243.060" stroke-opacity="0.908"/>
<line x1="450.000" y1="313.537" x2="362.040" y2="360.386" stroke-opacity="0.910"/>
<line x1="391.981" y1="118.835" x2="504.784" y2="102.193" stroke-opacity="0.920"/>
<line x1="482.201" y1="204.856" x2="592.323" y2="174.347" stroke-opacity="0.944"/>
<line x1="450.000" y1="313.537" x2="560.121" y2="298.572" stroke-opacity="0.946"/>
<line x1="359.780" y1="243.060" x2="391.981" y2="118.835" stroke-opacity="0.954"/>
<line x1="482.201" y1="204.856" x2="504.784" y2="102.193" stroke-opacity="0.964"/>
<line x1="482.201" y1="204.856" x2="560.121" y2="298.572" stroke-opacity="0.966"/>
<line x1="391.981" y1="118.835" x2="482.201" y2="204.856" stroke-opacity="0.977"/>
<line x1="359.780" y1="243.060" x2="450.000" y2="313.537" stroke-opacity="0.978"/>
<line x1="359.780" y1="243.060" x2="482.201" y2="204.856" stroke-opacity="0.998"/>
<line x1="450.000" y1="313.537" x2="482.201" y2="204.856" stroke-opacity="1.000"/>
</g>
</svg>
