<?xml version="1.0" encoding="UTF-8"?>
<svg xmlns="http://www.w3.org/2000/svg" width="900" height="450" viewBox="0 0 900 450" role="img" aria-label="R01B01 grid">
<rect width="100%" height="100%" fill="#ffffff"/>
<title>R01B01 grid</title>
<g fill="none" stroke="#1f2937" stroke-width="0.8" stroke-linecap="round" stroke-linejoin="round">
<line x1="847.100" y1="163.310" x2="847.100" y2="89.655"/>
<line x1="847.100" y1="89.655" x2="429.100" y2="16.000"/>
<line x1="178.300" y1="163.310" x2="94.700" y2="151.345"/>
<line x1="429.100" y1="16.000" x2="178.300" y2="89.655"/>
<line x1="178.300" y1="89.655" x2="178.300" y2="163.310"/>
<line x1="345.500" y1="163.310" x2="261.900" y2="151.345"/>
<line x1="261.900" y1="151.345" x2="178.300" y2="163.310"/>
<line x1="429.100" y1="16.000" x2="345.500" y2="89.655"/>
<line x1="345.500" y1="89.655" x2="345.500" y2="163.310"/>
<line x1="512.700" y1="163.310" x2="429.100" y2="151.345"/>
<line x1="429.100" y1="151.345" x2="345.500" y2="163.310"/>
<line x1="429.100" y1="16.000" x2="512.700" y2="89.655"/>
<line x1="512.700" y1="89.655" x2="512.700" y2="163.310"/>
<line x1="679.900" y1="163.310" x2="596.300" y2="151.345"/>
<line x1="596.300" y1="151.345" x2="512.700" y2="163.310"/>
<line x1="429.100" y1="16.000" x2="679.900" y2="89.655"/>
<line x1="679.900" y1="89.655" x2="679.900" y2="163.310"/>
<line x1="847.100" y1="163.310" x2="763.500" y2="151.345"/>
<line x1="763.500" y1="151.345" x2="679.900" y2="163.310"/>
<line x1="94.700" y1="286.690" x2="52.900" y2="225.000"/>
<line x1="178.300" y1="163.310" x2="136.500" y2="225.000"/>
<line x1="136.500" y1="225.000" x2="94.700" y2="286.690"/>
<line x1="261.900" y1="286.690" x2="178.300" y2="298.655"/>
<line x1="178.300" y1="298.655" x2="94.700" y2="286.690"/>
<line x1="178.300" y1="163.310" x2="220.100" y2="225.000"/>
<line x1="220.100" y1="225.000" x2="261.900" y2="286.690"/>
<line x1="345.500" y1="163.310" x2="303.700" y2="225.000"/>
<line x1="303.700" y1="225.000" x2="261.900" y2="286.690"/>
<line x1="429.100" y1="286.690" x2="345.500" y2="298.655"/>
<line x1="345.500" y1="298.655" x2="261.900" y2="286.690"/>
<line x1="345.500" y1="163.310" x2="387.300" y2="225.000"/>
<line x1="387.300" y1="225.000" x2="429.100" y2="286.690"/>
<line x1="512.700" y1="163.310" x2="470.900" y2="225.000"/>
<line x1="470.900" y1="225.000" x2="429.100" y2="286.690"/>
<line x1="596.300" y1="286.690" x2="512.700" y2="298.655"/>
<line x1="512.700" y1="298.655" x2="429.100" y2="286.690"/>
<line x1="512.700" y1="163.310" x2="554.500" y2="225.000"/>
<line x1="554.500" y1="225.000" x2="596.300" y2="286.690"/>
<line x1="679.900" y1="163.310" x2="638.100" y2="225.000"/>
<line x1="638.100" y1="225.000" x2="596.300" y2="286.690"/>
<line x1="763.500" y1="286.690" x2="679.900" y2="298.655"/>
<line x1="679.900" y1="298.655" x2="596.300" y2="286.690"/>
<line x1="679.900" y1="163.310" x2="721.700" y2="225.000"/>
<line x1="721.700" y1="225.000" x2="763.500" y2="286.690"/>
<line x1="847.100" y1="163.310" x2="805.300" y2="225.000"/>
<line x1="805.300" y1="225.000" x2="763.500" y2="286.690"/>
<line x1="847.100" y1="298.655" x2="763.500" y2="286.690"/>
<line x1="94.700" y1="286.690" x2="94.700" y2="360.345"/>
<line x1="94.700" y1="360.345" x2="429.100" y2="434.000"/>
<line x1="429.100" y1="434.000" x2="763.500" y2="360.345"/>
<line x1="763.500" y1="360.345" x2="763.500" y2="286.690"/>
<line x1="429.100" y1="434.000" x2="596.300" y2="360.345"/>
<line x1="596.300" y1="360.345" x2="596.300" y2="286.690"/>
<line x1="429.100" y1="434.000" x2="429.100" y2="360.345"/>
<line x1="429.100" y1="360.345" x2="429.100" y2="286.690"/>
<line x1="429.100" y1="434.000" x2="261.900" y2="360.345"/>
<line x1="261.900" y1="360.345" x2="261.900" y2="286.690"/>
<line x1="94.700" y1="151.345" x2="178.300" y2="89.655"/>
<line x1="345.500" y1="89.655" x2="178.300" y2="89.655"/>
<line x1="178.300" y1="89.655" x2="261.900" y2="151.345"/>
<line x1="345.500" y1="89.655" x2="261.900" y2="151.345"/>
<line x1="512.700" y1="89.655" x2="345.500" y2="89.655"/>
<line x1="345.500" y1="89.655" x2="429.100" y2="151.345"/>
<line x1="512.700" y1="89.655" x2="429.100" y2="151.345"/>
<line x1="679.900" y1="89.655" x2="512.700" y2="89.655"/>
<line x1="512.700" y1="89.655" x2="596.300" y2="151.345"/>
<line x1="679.900" y1="89.655" x2="596.300" y2="151.345"/>
<line x1="847.100" y1="89.655" x2="679.900" y2="89.655"/>
<line x1="763.500" y1="151.345" x2="679.900" y2="89.655"/>
<line x1="847.100" y1="89.655" x2="763.500" y2="151.345"/>
<line x1="94.700" y1="151.345" x2="52.900" y2="225.000"/>
<line x1="136.500" y1="225.000" x2="52.900" y2="225.000"/>
<line x1="136.500" y1="225.000" x2="94.700" y2="151.345"/>
<line x1="220.100" y1="225.000" x2="136.500" y2="225.000"/>
<line x1="136.500" y1="225.000" x2="178.300" y2="298.655"/>
<line x1="220.100" y1="225.000" x2="178.300" y2="298.655"/>
<line x1="261.900" y1="151.345" x2="220.100" y2="225.000"/>
<line x1="303.700" y1="225.000" x2="220.100" y2="225.000"/>
<line x1="261.900" y1="151.345" x2="303.700" y2="225.000"/>
<line x1="387.300" y1="225.000" x2="303.700" y2="225.000"/>
<line x1="303.700" y1="225.000" x2="345.500" y2="298.655"/>
<line x1="387.300" y1="225.000" x2="345.500" y2="298.655"/>
<line x1="429.100" y1="151.345" x2="387.300" y2="225.000"/>
<line x1="470.900" y1="225.000" x2="387.300" y2="225.000"/>
<line x1="429.100" y1="151.345" x2="470.900" y2="225.000"/>
<line x1="554.500" y1="225.000" x2="470.900" y2="225.000"/>
<line x1="470.900" y1="225.000" x2="512.700" y2="298.655"/>
<line x1="554.500" y1="225.000" x2="512.700" y2="298.655"/>
<line x1="596.300" y1="151.345" x2="554.500" y2="225.000"/>
<line x1="638.100" y1="225.000" x2="554.500" y2="225.000"/>
<line x1="596.300" y1="151.345" x2="638.100" y2="225.000"/>
<line x1="721.700" y1="225.000" x2="638.100" y2="225.000"/>
<line x1="638.100" y1="225.000" x2="679.900" y2="298.655"/>
<line x1="721.700" y1="225.000" x2="679.900" y2="298.655"/>
<line x1="763.500" y1="151.345" x2="721.700" y2="225.000"/>
<line x1="805.300" y1="225.000" x2="721.700" y2="225.000"/>
<line x1="763.500" y1="151.345" x2="805.300" y2="225.000"/>
<line x1="847.100" y1="298.655" x2="805.300" y2="225.000"/>
<line x1="847.100" y1="298.655" x2="763.500" y2="360.345"/>
<line x1="763.500" y1="360.345" x2="596.300" y2="360.345"/>
<line x1="763.500" y1="360.345" x2="679.900" y2="298.655"/>
<line x1="596.300" y1="360.345" x2="679.900" y2="298.655"/>
<line x1="596.300" y1="360.345" x2="429.100" y2="360.345"/>
<line x1="596.300" y1="360.345" x2="512.700" y2="298.655"/>
<line x1="429.100" y1="360.345" x2="512.700" y2="298.655"/>
<line x1="429.100" y1="360.345" x2="261.900" y2="360.345"/>
<line x1="429.100" y1="360.345" x2="345.500" y2="298.655"/>
<line x1="261.900" y1="360.345" x2="345.500" y2="298.655"/>
<line x1="261.900" y1="360.345" x2="94.700" y2="360.345"/>
<line x1="178.300" y1="298.655" x2="261.900" y2="360.345"/>
<line x1="94.700" y1="360.345" x2="178.300" y2="298.655"/>
</g>
</svg>
