<?xml version="1.0" encoding="UTF-8"?>
<svg xmlns="http://www.w3.org/2000/svg" width="900" height="450" viewBox="0 0 900 450" role="img" aria-label="LAM_R02B01 grid">
<rect width="100%" height="100%" fill="#ffffff"/>
<title>LAM_R02B01 grid</title>
<g fill="none" stroke="#1f2937" stroke-width="0.8" stroke-linecap="round" stroke-linejoin="round">
<line x1="255.275" y1="126.377" x2="163.081" y2="106.136"/>
<line x1="255.275" y1="126.377" x2="255.275" y2="42.911"/>
<line x1="163.081" y1="106.136" x2="255.275" y2="42.911"/>
<line x1="255.275" y1="42.911" x2="382.169" y2="16.000"/>
<line x1="255.275" y1="42.911" x2="347.469" y2="106.136"/>
<line x1="347.469" y1="106.136" x2="382.169" y2="16.000"/>
<line x1="450.000" y1="98.508" x2="347.469" y2="106.136"/>
<line x1="450.000" y1="98.508" x2="382.169" y2="16.000"/>
<line x1="517.831" y1="16.000" x2="644.725" y2="42.911"/>
<line x1="517.831" y1="16.000" x2="552.531" y2="106.136"/>
<line x1="552.531" y1="106.136" x2="644.725" y2="42.911"/>
<line x1="450.000" y1="98.508" x2="517.831" y2="16.000"/>
<line x1="450.000" y1="98.508" x2="552.531" y2="106.136"/>
<line x1="644.725" y1="126.377" x2="644.725" y2="42.911"/>
<line x1="644.725" y1="126.377" x2="736.919" y2="106.136"/>
<line x1="644.725" y1="42.911" x2="736.919" y2="106.136"/>
<line x1="205.146" y1="195.416" x2="305.404" y2="195.416"/>
<line x1="205.146" y1="195.416" x2="255.275" y2="275.270"/>
<line x1="255.275" y1="275.270" x2="305.404" y2="195.416"/>
<line x1="255.275" y1="126.377" x2="305.404" y2="195.416"/>
<line x1="255.275" y1="126.377" x2="205.146" y2="195.416"/>
<line x1="303.137" y1="354.426" x2="399.871" y2="344.720"/>
<line x1="303.137" y1="354.426" x2="357.806" y2="434.000"/>
<line x1="357.806" y1="434.000" x2="399.871" y2="344.720"/>
<line x1="450.000" y1="413.759" x2="357.806" y2="434.000"/>
<line x1="450.000" y1="413.759" x2="399.871" y2="344.720"/>
<line x1="255.275" y1="275.270" x2="303.137" y2="354.426"/>
<line x1="255.275" y1="275.270" x2="207.413" y2="354.426"/>
<line x1="207.413" y1="354.426" x2="303.137" y2="354.426"/>
<line x1="594.596" y1="195.416" x2="694.854" y2="195.416"/>
<line x1="594.596" y1="195.416" x2="644.725" y2="275.270"/>
<line x1="644.725" y1="275.270" x2="694.854" y2="195.416"/>
<line x1="644.725" y1="126.377" x2="694.854" y2="195.416"/>
<line x1="644.725" y1="126.377" x2="594.596" y2="195.416"/>
<line x1="500.129" y1="344.720" x2="596.863" y2="354.426"/>
<line x1="500.129" y1="344.720" x2="542.194" y2="434.000"/>
<line x1="542.194" y1="434.000" x2="596.863" y2="354.426"/>
<line x1="450.000" y1="413.759" x2="500.129" y2="344.720"/>
<line x1="450.000" y1="413.759" x2="542.194" y2="434.000"/>
<line x1="644.725" y1="275.270" x2="692.587" y2="354.426"/>
<line x1="644.725" y1="275.270" x2="596.863" y2="354.426"/>
<line x1="596.863" y1="354.426" x2="692.587" y2="354.426"/>
<line x1="255.275" y1="126.377" x2="347.469" y2="106.136"/>
<line x1="644.725" y1="126.377" x2="552.531" y2="106.136"/>
<line x1="352.638" y1="270.068" x2="255.275" y2="275.270"/>
<line x1="352.638" y1="270.068" x2="305.404" y2="195.416"/>
<line x1="352.638" y1="270.068" x2="399.871" y2="344.720"/>
<line x1="352.638" y1="270.068" x2="303.137" y2="354.426"/>
<line x1="450.000" y1="98.508" x2="402.138" y2="185.710"/>
<line x1="347.469" y1="106.136" x2="402.138" y2="185.710"/>
<line x1="347.469" y1="106.136" x2="305.404" y2="195.416"/>
<line x1="399.871" y1="344.720" x2="500.129" y2="344.720"/>
<line x1="552.531" y1="106.136" x2="594.596" y2="195.416"/>
<line x1="450.000" y1="98.508" x2="497.862" y2="185.710"/>
<line x1="552.531" y1="106.136" x2="497.862" y2="185.710"/>
<line x1="547.362" y1="270.068" x2="594.596" y2="195.416"/>
<line x1="547.362" y1="270.068" x2="644.725" y2="275.270"/>
<line x1="547.362" y1="270.068" x2="596.863" y2="354.426"/>
<line x1="547.362" y1="270.068" x2="500.129" y2="344.720"/>
<line x1="305.404" y1="195.416" x2="402.138" y2="185.710"/>
<line x1="352.638" y1="270.068" x2="402.138" y2="185.710"/>
<line x1="399.871" y1="344.720" x2="450.000" y2="264.867"/>
<line x1="500.129" y1="344.720" x2="450.000" y2="264.867"/>
<line x1="547.362" y1="270.068" x2="450.000" y2="264.867"/>
<line x1="352.638" y1="270.068" x2="450.000" y2="264.867"/>
<line x1="497.862" y1="185.710" x2="594.596" y2="195.416"/>
<line x1="547.362" y1="270.068" x2="497.862" y2="185.710"/>
<line x1="402.138" y1="185.710" x2="497.862" y2="185.710"/>
<line x1="402.138" y1="185.710" x2="450.000" y2="264.867"/>
<line x1="450.000" y1="264.867" x2="497.862" y2="185.710"/>
</g>
</svg>
