<?xml version="1.0" encoding="UTF-8"?>
<svg xmlns="http://www.w3.org/2000/svg" width="900" height="450" viewBox="0 0 900 450" role="img" aria-label="LAM_R02B01 grid">
<rect width="100%" height="100%" fill="#ffffff"/>
<title>LAM_R02B01 grid</title>
<circle cx="450.000" cy="225.000" r="198.000" fill="#f8fafc" stroke="#cbd5e1" stroke-width="1.0"/>
<g fill="none" stroke="#1f2937" stroke-width="0.8" stroke-linecap="round" stroke-linejoin="round">
<line x1="477.871" y1="339.271" x2="507.523" y2="337.528" stroke-opacity="0.350"/>
<line x1="605.000" y1="100.690" x2="590.447" y2="109.793" stroke-opacity="0.379"/>
<line x1="507.523" y1="337.528" x2="547.275" y2="276.343" stroke-opacity="0.396"/>
<line x1="432.534" y1="387.896" x2="507.523" y2="337.528" stroke-opacity="0.430"/>
<line x1="605.000" y1="100.690" x2="588.795" y2="24.000" stroke-opacity="0.431"/>
<line x1="547.275" y1="276.343" x2="561.827" y2="267.239" stroke-opacity="0.439"/>
<line x1="378.627" y1="413.285" x2="338.039" y2="417.385" stroke-opacity="0.448"/>
<line x1="591.133" y1="192.671" x2="605.000" y2="100.690" stroke-opacity="0.452"/>
<line x1="378.627" y1="413.285" x2="432.534" y2="387.896" stroke-opacity="0.466"/>
<line x1="591.133" y1="192.671" x2="561.827" y2="267.239" stroke-opacity="0.482"/>
<line x1="447.895" y1="378.286" x2="432.534" y2="387.896" stroke-opacity="0.514"/>
<line x1="507.523" y1="337.528" x2="561.827" y2="267.239" stroke-opacity="0.518"/>
<line x1="591.133" y1="192.671" x2="592.644" y2="180.658" stroke-opacity="0.521"/>
<line x1="447.895" y1="378.286" x2="507.523" y2="337.528" stroke-opacity="0.559"/>
<line x1="378.627" y1="413.285" x2="295.000" y2="426.000" stroke-opacity="0.565"/>
<line x1="592.644" y1="180.658" x2="605.000" y2="100.690" stroke-opacity="0.569"/>
<line x1="378.627" y1="413.285" x2="447.895" y2="378.286" stroke-opacity="0.595"/>
<line x1="561.827" y1="267.239" x2="592.644" y2="180.658" stroke-opacity="0.599"/>
<line x1="508.223" y1="320.283" x2="507.523" y2="337.528" stroke-opacity="0.604"/>
<line x1="605.000" y1="100.690" x2="590.900" y2="90.096" stroke-opacity="0.624"/>
<line x1="508.223" y1="320.283" x2="561.827" y2="267.239" stroke-opacity="0.646"/>
<line x1="378.627" y1="413.285" x2="362.895" y2="401.836" stroke-opacity="0.656"/>
<line x1="295.000" y1="426.000" x2="362.895" y2="401.836" stroke-opacity="0.675"/>
<line x1="550.683" y1="245.244" x2="561.827" y2="267.239" stroke-opacity="0.682"/>
<line x1="508.223" y1="320.283" x2="447.895" y2="378.286" stroke-opacity="0.687"/>
<line x1="592.644" y1="180.658" x2="590.900" y2="90.096" stroke-opacity="0.693"/>
<line x1="362.895" y1="401.836" x2="447.895" y2="378.286" stroke-opacity="0.704"/>
<line x1="550.683" y1="245.244" x2="592.644" y2="180.658" stroke-opacity="0.721"/>
<line x1="571.319" y1="163.876" x2="592.644" y2="180.658" stroke-opacity="0.744"/>
<line x1="447.895" y1="378.286" x2="432.766" y2="352.492" stroke-opacity="0.762"/>
<line x1="508.223" y1="320.283" x2="550.683" y2="245.244" stroke-opacity="0.768"/>
<line x1="571.319" y1="163.876" x2="590.900" y2="90.096" stroke-opacity="0.799"/>
<line x1="508.223" y1="320.283" x2="432.766" y2="352.492" stroke-opacity="0.807"/>
<line x1="362.895" y1="401.836" x2="432.766" y2="352.492" stroke-opacity="0.824"/>
<line x1="571.319" y1="163.876" x2="550.683" y2="245.244" stroke-opacity="0.827"/>
<line x1="508.223" y1="320.283" x2="487.071" y2="282.204" stroke-opacity="0.850"/>
<line x1="487.071" y1="282.204" x2="550.683" y2="245.244" stroke-opacity="0.886"/>
<line x1="550.683" y1="245.244" x2="523.005" y2="194.598" stroke-opacity="0.911"/>
<line x1="571.319" y1="163.876" x2="547.861" y2="98.712" stroke-opacity="0.917"/>
<line x1="571.319" y1="163.876" x2="523.005" y2="194.598" stroke-opacity="0.934"/>
<line x1="487.071" y1="282.204" x2="523.005" y2="194.598" stroke-opacity="0.992"/>
<line x1="523.005" y1="194.598" x2="547.861" y2="98.712" stroke-opacity="1.000"/>
</g>
</svg>
