<?xml version="1.0" encoding="UTF-8"?>
<svg xmlns="http://www.w3.org/2000/svg" width="900" height="450" viewBox="0 0 900 450" role="img" aria-label="CHANNEL8x5 grid">
<rect width="100%" height="100%" fill="#ffffff"/>
<title>CHANNEL8x5 grid</title>
<g fill="none" stroke="#1f2937" stroke-width="0.8" stroke-linecap="round" stroke-linejoin="round">
<line x1="32.000" y1="434.000" x2="120.000" y2="434.000"/>
<line x1="120.000" y1="434.000" x2="120.196" y2="350.400"/>
<line x1="32.000" y1="434.000" x2="120.196" y2="350.400"/>
<line x1="120.000" y1="434.000" x2="164.782" y2="350.400"/>
<line x1="120.196" y1="350.400" x2="164.782" y2="350.400"/>
<line x1="120.000" y1="434.000" x2="208.000" y2="434.000"/>
<line x1="208.000" y1="434.000" x2="164.782" y2="350.400"/>
<line x1="208.000" y1="434.000" x2="252.000" y2="350.400"/>
<line x1="164.782" y1="350.400" x2="252.000" y2="350.400"/>
<line x1="208.000" y1="434.000" x2="296.000" y2="434.000"/>
<line x1="296.000" y1="434.000" x2="252.000" y2="350.400"/>
<line x1="296.000" y1="434.000" x2="340.000" y2="350.400"/>
<line x1="252.000" y1="350.400" x2="340.000" y2="350.400"/>
<line x1="296.000" y1="434.000" x2="384.000" y2="434.000"/>
<line x1="384.000" y1="434.000" x2="340.000" y2="350.400"/>
<line x1="384.000" y1="434.000" x2="428.000" y2="350.400"/>
<line x1="340.000" y1="350.400" x2="428.000" y2="350.400"/>
<line x1="384.000" y1="434.000" x2="472.000" y2="434.000"/>
<line x1="472.000" y1="434.000" x2="428.000" y2="350.400"/>
<line x1="472.000" y1="434.000" x2="516.000" y2="350.400"/>
<line x1="428.000" y1="350.400" x2="516.000" y2="350.400"/>
<line x1="472.000" y1="434.000" x2="560.000" y2="434.000"/>
<line x1="560.000" y1="434.000" x2="516.000" y2="350.400"/>
<line x1="560.000" y1="434.000" x2="603.609" y2="350.400"/>
<line x1="516.000" y1="350.400" x2="603.609" y2="350.400"/>
<line x1="560.000" y1="434.000" x2="648.000" y2="434.000"/>
<line x1="648.000" y1="434.000" x2="603.609" y2="350.400"/>
<line x1="648.000" y1="434.000" x2="647.413" y2="350.400"/>
<line x1="603.609" y1="350.400" x2="647.413" y2="350.400"/>
<line x1="32.000" y1="434.000" x2="648.000" y2="434.000"/>
<line x1="32.000" y1="434.000" x2="647.413" y2="350.400"/>
<line x1="120.196" y1="350.400" x2="647.413" y2="350.400"/>
<line x1="164.782" y1="350.400" x2="164.587" y2="266.800"/>
<line x1="120.196" y1="350.400" x2="164.587" y2="266.800"/>
<line x1="164.782" y1="350.400" x2="208.782" y2="266.800"/>
<line x1="164.587" y1="266.800" x2="208.782" y2="266.800"/>
<line x1="252.000" y1="350.400" x2="208.782" y2="266.800"/>
<line x1="252.000" y1="350.400" x2="296.000" y2="266.800"/>
<line x1="208.782" y1="266.800" x2="296.000" y2="266.800"/>
<line x1="340.000" y1="350.400" x2="296.000" y2="266.800"/>
<line x1="340.000" y1="350.400" x2="384.000" y2="266.800"/>
<line x1="296.000" y1="266.800" x2="384.000" y2="266.800"/>
<line x1="428.000" y1="350.400" x2="384.000" y2="266.800"/>
<line x1="428.000" y1="350.400" x2="472.000" y2="266.800"/>
<line x1="384.000" y1="266.800" x2="472.000" y2="266.800"/>
<line x1="516.000" y1="350.400" x2="472.000" y2="266.800"/>
<line x1="516.000" y1="350.400" x2="560.000" y2="266.800"/>
<line x1="472.000" y1="266.800" x2="560.000" y2="266.800"/>
<line x1="603.609" y1="350.400" x2="560.000" y2="266.800"/>
<line x1="603.609" y1="350.400" x2="647.218" y2="266.800"/>
<line x1="560.000" y1="266.800" x2="647.218" y2="266.800"/>
<line x1="647.413" y1="350.400" x2="647.218" y2="266.800"/>
<line x1="647.413" y1="350.400" x2="691.413" y2="266.800"/>
<line x1="647.218" y1="266.800" x2="691.413" y2="266.800"/>
<line x1="120.196" y1="350.400" x2="691.413" y2="266.800"/>
<line x1="164.587" y1="266.800" x2="691.413" y2="266.800"/>
<line x1="208.782" y1="266.800" x2="208.587" y2="183.200"/>
<line x1="164.587" y1="266.800" x2="208.587" y2="183.200"/>
<line x1="208.782" y1="266.800" x2="252.782" y2="183.200"/>
<line x1="208.587" y1="183.200" x2="252.782" y2="183.200"/>
<line x1="296.000" y1="266.800" x2="252.782" y2="183.200"/>
<line x1="296.000" y1="266.800" x2="340.000" y2="183.200"/>
<line x1="252.782" y1="183.200" x2="340.000" y2="183.200"/>
<line x1="384.000" y1="266.800" x2="340.000" y2="183.200"/>
<line x1="384.000" y1="266.800" x2="428.000" y2="183.200"/>
<line x1="340.000" y1="183.200" x2="428.000" y2="183.200"/>
<line x1="472.000" y1="266.800" x2="428.000" y2="183.200"/>
<line x1="472.000" y1="266.800" x2="516.000" y2="183.200"/>
<line x1="428.000" y1="183.200" x2="516.000" y2="183.200"/>
<line x1="560.000" y1="266.800" x2="516.000" y2="183.200"/>
<line x1="560.000" y1="266.800" x2="604.000" y2="183.200"/>
<line x1="516.000" y1="183.200" x2="604.000" y2="183.200"/>
<line x1="647.218" y1="266.800" x2="604.000" y2="183.200"/>
<line x1="647.218" y1="266.800" x2="691.218" y2="183.200"/>
<line x1="604.000" y1="183.200" x2="691.218" y2="183.200"/>
<line x1="691.413" y1="266.800" x2="691.218" y2="183.200"/>
<line x1="691.413" y1="266.800" x2="735.413" y2="183.200"/>
<line x1="691.218" y1="183.200" x2="735.413" y2="183.200"/>
<line x1="164.587" y1="266.800" x2="735.413" y2="183.200"/>
<line x1="208.587" y1="183.200" x2="735.413" y2="183.200"/>
<line x1="252.782" y1="183.200" x2="252.587" y2="99.600"/>
<line x1="208.587" y1="183.200" x2="252.587" y2="99.600"/>
<line x1="252.782" y1="183.200" x2="296.391" y2="99.600"/>
<line x1="252.587" y1="99.600" x2="296.391" y2="99.600"/>
<line x1="340.000" y1="183.200" x2="296.391" y2="99.600"/>
<line x1="340.000" y1="183.200" x2="384.000" y2="99.600"/>
<line x1="296.391" y1="99.600" x2="384.000" y2="99.600"/>
<line x1="428.000" y1="183.200" x2="384.000" y2="99.600"/>
<line x1="428.000" y1="183.200" x2="472.000" y2="99.600"/>
<line x1="384.000" y1="99.600" x2="472.000" y2="99.600"/>
<line x1="516.000" y1="183.200" x2="472.000" y2="99.600"/>
<line x1="516.000" y1="183.200" x2="560.000" y2="99.600"/>
<line x1="472.000" y1="99.600" x2="560.000" y2="99.600"/>
<line x1="604.000" y1="183.200" x2="560.000" y2="99.600"/>
<line x1="604.000" y1="183.200" x2="648.000" y2="99.600"/>
<line x1="560.000" y1="99.600" x2="648.000" y2="99.600"/>
<line x1="691.218" y1="183.200" x2="648.000" y2="99.600"/>
<line x1="691.218" y1="183.200" x2="735.218" y2="99.600"/>
<line x1="648.000" y1="99.600" x2="735.218" y2="99.600"/>
<line x1="735.413" y1="183.200" x2="735.218" y2="99.600"/>
<line x1="735.413" y1="183.200" x2="779.804" y2="99.600"/>
<line x1="735.218" y1="99.600" x2="779.804" y2="99.600"/>
<line x1="208.587" y1="183.200" x2="779.804" y2="99.600"/>
<line x1="252.587" y1="99.600" x2="779.804" y2="99.600"/>
<line x1="296.391" y1="99.600" x2="252.000" y2="16.000"/>
<line x1="252.587" y1="99.600" x2="252.000" y2="16.000"/>
<line x1="296.391" y1="99.600" x2="340.000" y2="16.000"/>
<line x1="252.000" y1="16.000" x2="340.000" y2="16.000"/>
<line x1="384.000" y1="99.600" x2="340.000" y2="16.000"/>
<line x1="384.000" y1="99.600" x2="428.000" y2="16.000"/>
<line x1="340.000" y1="16.000" x2="428.000" y2="16.000"/>
<line x1="472.000" y1="99.600" x2="428.000" y2="16.000"/>
<line x1="472.000" y1="99.600" x2="516.000" y2="16.000"/>
<line x1="428.000" y1="16.000" x2="516.000" y2="16.000"/>
<line x1="560.000" y1="99.600" x2="516.000" y2="16.000"/>
<line x1="560.000" y1="99.600" x2="604.000" y2="16.000"/>
<line x1="516.000" y1="16.000" x2="604.000" y2="16.000"/>
<line x1="648.000" y1="99.600" x2="604.000" y2="16.000"/>
<line x1="648.000" y1="99.600" x2="692.000" y2="16.000"/>
<line x1="604.000" y1="16.000" x2="692.000" y2="16.000"/>
<line x1="735.218" y1="99.600" x2="692.000" y2="16.000"/>
<line x1="735.218" y1="99.600" x2="780.000" y2="16.000"/>
<line x1="692.000" y1="16.000" x2="780.000" y2="16.000"/>
<line x1="779.804" y1="99.600" x2="780.000" y2="16.000"/>
<line x1="779.804" y1="99.600" x2="868.000" y2="16.000"/>
<line x1="780.000" y1="16.000" x2="868.000" y2="16.000"/>
<line x1="252.587" y1="99.600" x2="868.000" y2="16.000"/>
<line x1="252.000" y1="16.000" x2="868.000" y2="16.000"/>
</g>
</svg>
