<?xml version="1.0" encoding="UTF-8"?>
<svg xmlns="http://www.w3.org/2000/svg" width="900" height="450" viewBox="0 0 900 450" role="img" aria-label="CHANNEL8x5 grid">
<rect width="100%" height="100%" fill="#ffffff"/>
<title>CHANNEL8x5 grid</title>
<ellipse cx="450.000" cy="324.000" rx="288.000" ry="36.000" fill="#e5e7eb" opacity="0.55"/>
<g fill="none" stroke="#1f2937" stroke-width="0.8" stroke-linecap="round" stroke-linejoin="round">
<line x1="426.815" y1="390.373" x2="482.955" y2="426.000" stroke-opacity="0.350"/>
<line x1="482.955" y1="426.000" x2="519.924" y2="377.426" stroke-opacity="0.361"/>
<line x1="482.955" y1="426.000" x2="491.979" y2="359.692" stroke-opacity="0.377"/>
<line x1="426.815" y1="390.373" x2="491.979" y2="359.692" stroke-opacity="0.409"/>
<line x1="370.675" y1="354.747" x2="426.815" y2="390.373" stroke-opacity="0.413"/>
<line x1="491.979" y1="359.692" x2="519.924" y2="377.426" stroke-opacity="0.420"/>
<line x1="519.924" y1="377.426" x2="585.338" y2="346.904" stroke-opacity="0.432"/>
<line x1="426.815" y1="390.373" x2="436.089" y2="324.224" stroke-opacity="0.440"/>
<line x1="519.924" y1="377.426" x2="557.144" y2="329.011" stroke-opacity="0.448"/>
<line x1="491.979" y1="359.692" x2="557.144" y2="329.011" stroke-opacity="0.463"/>
<line x1="436.089" y1="324.224" x2="491.979" y2="359.692" stroke-opacity="0.467"/>
<line x1="370.675" y1="354.747" x2="436.089" y2="324.224" stroke-opacity="0.472"/>
<line x1="557.144" y1="329.011" x2="585.338" y2="346.904" stroke-opacity="0.475"/>
<line x1="314.535" y1="319.120" x2="370.675" y2="354.747" stroke-opacity="0.476"/>
<line x1="585.338" y1="346.904" x2="650.753" y2="316.381" stroke-opacity="0.486"/>
<line x1="491.979" y1="359.692" x2="501.503" y2="293.701" stroke-opacity="0.495"/>
<line x1="585.338" y1="346.904" x2="622.558" y2="298.488" stroke-opacity="0.502"/>
<line x1="370.675" y1="354.747" x2="379.949" y2="288.597" stroke-opacity="0.503"/>
<line x1="557.144" y1="329.011" x2="622.558" y2="298.488" stroke-opacity="0.518"/>
<line x1="501.503" y1="293.701" x2="557.144" y2="329.011" stroke-opacity="0.522"/>
<line x1="436.089" y1="324.224" x2="501.503" y2="293.701" stroke-opacity="0.526"/>
<line x1="622.558" y1="298.488" x2="650.753" y2="316.381" stroke-opacity="0.529"/>
<line x1="379.949" y1="288.597" x2="436.089" y2="324.224" stroke-opacity="0.531"/>
<line x1="314.535" y1="319.120" x2="379.949" y2="288.597" stroke-opacity="0.535"/>
<line x1="258.395" y1="283.494" x2="314.535" y2="319.120" stroke-opacity="0.540"/>
<line x1="89.975" y1="176.614" x2="482.955" y2="426.000" stroke-opacity="0.540"/>
<line x1="650.753" y1="316.381" x2="716.416" y2="286.017" stroke-opacity="0.540"/>
<line x1="557.144" y1="329.011" x2="566.917" y2="263.179" stroke-opacity="0.549"/>
<line x1="650.753" y1="316.381" x2="687.972" y2="267.966" stroke-opacity="0.556"/>
<line x1="436.089" y1="324.224" x2="445.363" y2="258.075" stroke-opacity="0.558"/>
<line x1="314.535" y1="319.120" x2="323.809" y2="252.971" stroke-opacity="0.567"/>
<line x1="622.558" y1="298.488" x2="687.972" y2="267.966" stroke-opacity="0.572"/>
<line x1="566.917" y1="263.179" x2="622.558" y2="298.488" stroke-opacity="0.576"/>
<line x1="716.416" y1="286.017" x2="810.025" y2="273.386" stroke-opacity="0.578"/>
<line x1="501.503" y1="293.701" x2="566.917" y2="263.179" stroke-opacity="0.580"/>
<line x1="89.975" y1="176.614" x2="519.924" y2="377.426" stroke-opacity="0.583"/>
<line x1="687.972" y1="267.966" x2="716.416" y2="286.017" stroke-opacity="0.583"/>
<line x1="445.363" y1="258.075" x2="501.503" y2="293.701" stroke-opacity="0.585"/>
<line x1="379.949" y1="288.597" x2="445.363" y2="258.075" stroke-opacity="0.589"/>
<line x1="323.809" y1="252.971" x2="379.949" y2="288.597" stroke-opacity="0.594"/>
<line x1="183.584" y1="163.983" x2="519.924" y2="377.426" stroke-opacity="0.594"/>
<line x1="258.395" y1="283.494" x2="323.809" y2="252.971" stroke-opacity="0.598"/>
<line x1="202.255" y1="247.867" x2="258.395" y2="283.494" stroke-opacity="0.603"/>
<line x1="622.558" y1="298.488" x2="632.331" y2="232.656" stroke-opacity="0.603"/>
<line x1="716.416" y1="286.017" x2="753.885" y2="237.760" stroke-opacity="0.610"/>
<line x1="501.503" y1="293.701" x2="510.777" y2="227.552" stroke-opacity="0.612"/>
<line x1="753.885" y1="237.760" x2="810.025" y2="273.386" stroke-opacity="0.621"/>
<line x1="379.949" y1="288.597" x2="389.223" y2="222.448" stroke-opacity="0.621"/>
<line x1="183.584" y1="163.983" x2="585.338" y2="346.904" stroke-opacity="0.621"/>
<line x1="687.972" y1="267.966" x2="753.885" y2="237.760" stroke-opacity="0.626"/>
<line x1="258.395" y1="283.494" x2="267.669" y2="217.344" stroke-opacity="0.630"/>
<line x1="632.331" y1="232.656" x2="687.972" y2="267.966" stroke-opacity="0.630"/>
<line x1="566.917" y1="263.179" x2="632.331" y2="232.656" stroke-opacity="0.634"/>
<line x1="510.777" y1="227.552" x2="566.917" y2="263.179" stroke-opacity="0.639"/>
<line x1="445.363" y1="258.075" x2="510.777" y2="227.552" stroke-opacity="0.643"/>
<line x1="249.247" y1="133.619" x2="585.338" y2="346.904" stroke-opacity="0.648"/>
<line x1="389.223" y1="222.448" x2="445.363" y2="258.075" stroke-opacity="0.648"/>
<line x1="323.809" y1="252.971" x2="389.223" y2="222.448" stroke-opacity="0.652"/>
<line x1="267.669" y1="217.344" x2="323.809" y2="252.971" stroke-opacity="0.657"/>
<line x1="687.972" y1="267.966" x2="697.745" y2="202.133" stroke-opacity="0.657"/>
<line x1="202.255" y1="247.867" x2="267.669" y2="217.344" stroke-opacity="0.662"/>
<line x1="566.917" y1="263.179" x2="576.191" y2="197.029" stroke-opacity="0.666"/>
<line x1="146.115" y1="212.240" x2="202.255" y2="247.867" stroke-opacity="0.666"/>
<line x1="249.247" y1="133.619" x2="650.753" y2="316.381" stroke-opacity="0.675"/>
<line x1="445.363" y1="258.075" x2="454.637" y2="191.925" stroke-opacity="0.675"/>
<line x1="697.745" y1="202.133" x2="753.885" y2="237.760" stroke-opacity="0.684"/>
<line x1="323.809" y1="252.971" x2="333.083" y2="186.821" stroke-opacity="0.684"/>
<line x1="632.331" y1="232.656" x2="697.745" y2="202.133" stroke-opacity="0.688"/>
<line x1="202.255" y1="247.867" x2="212.028" y2="182.034" stroke-opacity="0.693"/>
<line x1="576.191" y1="197.029" x2="632.331" y2="232.656" stroke-opacity="0.693"/>
<line x1="510.777" y1="227.552" x2="576.191" y2="197.029" stroke-opacity="0.698"/>
<line x1="314.662" y1="103.096" x2="650.753" y2="316.381" stroke-opacity="0.702"/>
<line x1="454.637" y1="191.925" x2="510.777" y2="227.552" stroke-opacity="0.702"/>
<line x1="389.223" y1="222.448" x2="454.637" y2="191.925" stroke-opacity="0.707"/>
<line x1="333.083" y1="186.821" x2="389.223" y2="222.448" stroke-opacity="0.711"/>
<line x1="267.669" y1="217.344" x2="333.083" y2="186.821" stroke-opacity="0.716"/>
<line x1="212.028" y1="182.034" x2="267.669" y2="217.344" stroke-opacity="0.720"/>
<line x1="632.331" y1="232.656" x2="641.605" y2="166.506" stroke-opacity="0.720"/>
<line x1="146.115" y1="212.240" x2="212.028" y2="182.034" stroke-opacity="0.724"/>
<line x1="314.662" y1="103.096" x2="716.416" y2="286.017" stroke-opacity="0.729"/>
<line x1="510.777" y1="227.552" x2="520.051" y2="161.403" stroke-opacity="0.729"/>
<line x1="89.975" y1="176.614" x2="146.115" y2="212.240" stroke-opacity="0.729"/>
<line x1="389.223" y1="222.448" x2="398.497" y2="156.299" stroke-opacity="0.738"/>
<line x1="146.115" y1="212.240" x2="183.584" y2="163.983" stroke-opacity="0.740"/>
<line x1="267.669" y1="217.344" x2="277.442" y2="151.512" stroke-opacity="0.747"/>
<line x1="641.605" y1="166.506" x2="697.745" y2="202.133" stroke-opacity="0.747"/>
<line x1="576.191" y1="197.029" x2="641.605" y2="166.506" stroke-opacity="0.752"/>
<line x1="380.076" y1="72.574" x2="716.416" y2="286.017" stroke-opacity="0.756"/>
<line x1="520.051" y1="161.403" x2="576.191" y2="197.029" stroke-opacity="0.756"/>
<line x1="454.637" y1="191.925" x2="520.051" y2="161.403" stroke-opacity="0.761"/>
<line x1="398.497" y1="156.299" x2="454.637" y2="191.925" stroke-opacity="0.765"/>
<line x1="183.584" y1="163.983" x2="212.028" y2="182.034" stroke-opacity="0.767"/>
<line x1="380.076" y1="72.574" x2="810.025" y2="273.386" stroke-opacity="0.767"/>
<line x1="333.083" y1="186.821" x2="398.497" y2="156.299" stroke-opacity="0.770"/>
<line x1="89.975" y1="176.614" x2="183.584" y2="163.983" stroke-opacity="0.772"/>
<line x1="277.442" y1="151.512" x2="333.083" y2="186.821" stroke-opacity="0.774"/>
<line x1="212.028" y1="182.034" x2="277.442" y2="151.512" stroke-opacity="0.778"/>
<line x1="576.191" y1="197.029" x2="585.465" y2="130.880" stroke-opacity="0.783"/>
<line x1="454.637" y1="191.925" x2="463.911" y2="125.776" stroke-opacity="0.792"/>
<line x1="212.028" y1="182.034" x2="249.247" y2="133.619" stroke-opacity="0.794"/>
<line x1="333.083" y1="186.821" x2="342.856" y2="120.989" stroke-opacity="0.801"/>
<line x1="183.584" y1="163.983" x2="249.247" y2="133.619" stroke-opacity="0.810"/>
<line x1="417.045" y1="24.000" x2="810.025" y2="273.386" stroke-opacity="0.810"/>
<line x1="585.465" y1="130.880" x2="641.605" y2="166.506" stroke-opacity="0.810"/>
<line x1="520.051" y1="161.403" x2="585.465" y2="130.880" stroke-opacity="0.815"/>
<line x1="463.911" y1="125.776" x2="520.051" y2="161.403" stroke-opacity="0.819"/>
<line x1="249.247" y1="133.619" x2="277.442" y2="151.512" stroke-opacity="0.821"/>
<line x1="398.497" y1="156.299" x2="463.911" y2="125.776" stroke-opacity="0.824"/>
<line x1="342.856" y1="120.989" x2="398.497" y2="156.299" stroke-opacity="0.828"/>
<line x1="277.442" y1="151.512" x2="342.856" y2="120.989" stroke-opacity="0.832"/>
<line x1="520.051" y1="161.403" x2="529.325" y2="95.253" stroke-opacity="0.847"/>
<line x1="277.442" y1="151.512" x2="314.662" y2="103.096" stroke-opacity="0.848"/>
<line x1="398.497" y1="156.299" x2="408.021" y2="90.308" stroke-opacity="0.855"/>
<line x1="249.247" y1="133.619" x2="314.662" y2="103.096" stroke-opacity="0.864"/>
<line x1="529.325" y1="95.253" x2="585.465" y2="130.880" stroke-opacity="0.874"/>
<line x1="314.662" y1="103.096" x2="342.856" y2="120.989" stroke-opacity="0.875"/>
<line x1="463.911" y1="125.776" x2="529.325" y2="95.253" stroke-opacity="0.878"/>
<line x1="408.021" y1="90.308" x2="463.911" y2="125.776" stroke-opacity="0.883"/>
<line x1="342.856" y1="120.989" x2="408.021" y2="90.308" stroke-opacity="0.887"/>
<line x1="342.856" y1="120.989" x2="380.076" y2="72.574" stroke-opacity="0.902"/>
<line x1="463.911" y1="125.776" x2="473.185" y2="59.627" stroke-opacity="0.910"/>
<line x1="314.662" y1="103.096" x2="380.076" y2="72.574" stroke-opacity="0.918"/>
<line x1="380.076" y1="72.574" x2="408.021" y2="90.308" stroke-opacity="0.930"/>
<line x1="473.185" y1="59.627" x2="529.325" y2="95.253" stroke-opacity="0.937"/>
<line x1="408.021" y1="90.308" x2="473.185" y2="59.627" stroke-opacity="0.941"/>
<line x1="408.021" y1="90.308" x2="417.045" y2="24.000" stroke-opacity="0.973"/>
<line x1="380.076" y1="72.574" x2="417.045" y2="24.000" stroke-opacity="0.989"/>
<line x1="417.045" y1="24.000" x2="473.185" y2="59.627" stroke-opacity="1.000"/>
</g>
</svg>
