<?xml version="1.0" encoding="UTF-8"?>
<svg xmlns="http://www.w3.org/2000/svg" width="900" height="450" viewBox="0 0 900 450" role="img" aria-label="RAGGED_ORTHOGONAL8x5 grid">
<rect width="100%" height="100%" fill="#ffffff"/>
<title>RAGGED_ORTHOGONAL8x5 grid</title>
<g fill="none" stroke="#1f2937" stroke-width="0.8" stroke-linecap="round" stroke-linejoin="round">
<line x1="32.000" y1="434.000" x2="152.044" y2="434.000"/>
<line x1="152.044" y1="434.000" x2="32.000" y2="347.046"/>
<line x1="32.000" y1="434.000" x2="32.000" y2="347.046"/>
<line x1="152.044" y1="434.000" x2="144.580" y2="339.395"/>
<line x1="32.000" y1="347.046" x2="144.580" y2="339.395"/>
<line x1="152.044" y1="434.000" x2="236.994" y2="434.000"/>
<line x1="236.994" y1="434.000" x2="144.580" y2="339.395"/>
<line x1="236.994" y1="434.000" x2="226.639" y2="338.420"/>
<line x1="144.580" y1="339.395" x2="226.639" y2="338.420"/>
<line x1="236.994" y1="434.000" x2="330.988" y2="434.000"/>
<line x1="330.988" y1="434.000" x2="226.639" y2="338.420"/>
<line x1="330.988" y1="434.000" x2="341.120" y2="344.712"/>
<line x1="226.639" y1="338.420" x2="341.120" y2="344.712"/>
<line x1="330.988" y1="434.000" x2="457.745" y2="434.000"/>
<line x1="457.745" y1="434.000" x2="341.120" y2="344.712"/>
<line x1="457.745" y1="434.000" x2="465.490" y2="354.454"/>
<line x1="341.120" y1="344.712" x2="465.490" y2="354.454"/>
<line x1="457.745" y1="434.000" x2="567.016" y2="434.000"/>
<line x1="567.016" y1="434.000" x2="465.490" y2="354.454"/>
<line x1="567.016" y1="434.000" x2="554.888" y2="361.737"/>
<line x1="465.490" y1="354.454" x2="554.888" y2="361.737"/>
<line x1="567.016" y1="434.000" x2="648.029" y2="434.000"/>
<line x1="648.029" y1="434.000" x2="554.888" y2="361.737"/>
<line x1="648.029" y1="434.000" x2="643.410" y2="362.143"/>
<line x1="554.888" y1="361.737" x2="643.410" y2="362.143"/>
<line x1="648.029" y1="434.000" x2="753.811" y2="434.000"/>
<line x1="753.811" y1="434.000" x2="643.410" y2="362.143"/>
<line x1="753.811" y1="434.000" x2="767.129" y2="355.426"/>
<line x1="643.410" y1="362.143" x2="767.129" y2="355.426"/>
<line x1="753.811" y1="434.000" x2="868.000" y2="434.000"/>
<line x1="868.000" y1="434.000" x2="767.129" y2="355.426"/>
<line x1="868.000" y1="434.000" x2="868.000" y2="345.660"/>
<line x1="767.129" y1="355.426" x2="868.000" y2="345.660"/>
<line x1="144.580" y1="339.395" x2="32.000" y2="277.545"/>
<line x1="32.000" y1="347.046" x2="32.000" y2="277.545"/>
<line x1="144.580" y1="339.395" x2="131.001" y2="269.649"/>
<line x1="32.000" y1="277.545" x2="131.001" y2="269.649"/>
<line x1="226.639" y1="338.420" x2="131.001" y2="269.649"/>
<line x1="226.639" y1="338.420" x2="227.152" y2="260.025"/>
<line x1="131.001" y1="269.649" x2="227.152" y2="260.025"/>
<line x1="341.120" y1="344.712" x2="227.152" y2="260.025"/>
<line x1="341.120" y1="344.712" x2="354.567" y2="254.510"/>
<line x1="227.152" y1="260.025" x2="354.567" y2="254.510"/>
<line x1="465.490" y1="354.454" x2="354.567" y2="254.510"/>
<line x1="465.490" y1="354.454" x2="461.512" y2="256.450"/>
<line x1="354.567" y1="254.510" x2="461.512" y2="256.450"/>
<line x1="554.888" y1="361.737" x2="461.512" y2="256.450"/>
<line x1="554.888" y1="361.737" x2="542.467" y2="264.669"/>
<line x1="461.512" y1="256.450" x2="542.467" y2="264.669"/>
<line x1="643.410" y1="362.143" x2="542.467" y2="264.669"/>
<line x1="643.410" y1="362.143" x2="650.589" y2="274.180"/>
<line x1="542.467" y1="264.669" x2="650.589" y2="274.180"/>
<line x1="767.129" y1="355.426" x2="650.589" y2="274.180"/>
<line x1="767.129" y1="355.426" x2="777.701" y2="279.215"/>
<line x1="650.589" y1="274.180" x2="777.701" y2="279.215"/>
<line x1="868.000" y1="345.660" x2="777.701" y2="279.215"/>
<line x1="868.000" y1="345.660" x2="868.000" y2="276.719"/>
<line x1="777.701" y1="279.215" x2="868.000" y2="276.719"/>
<line x1="131.001" y1="269.649" x2="32.000" y2="192.303"/>
<line x1="32.000" y1="277.545" x2="32.000" y2="192.303"/>
<line x1="131.001" y1="269.649" x2="121.584" y2="195.729"/>
<line x1="32.000" y1="192.303" x2="121.584" y2="195.729"/>
<line x1="227.152" y1="260.025" x2="121.584" y2="195.729"/>
<line x1="227.152" y1="260.025" x2="238.145" y2="191.555"/>
<line x1="121.584" y1="195.729" x2="238.145" y2="191.555"/>
<line x1="354.567" y1="254.510" x2="238.145" y2="191.555"/>
<line x1="354.567" y1="254.510" x2="361.152" y2="182.313"/>
<line x1="238.145" y1="191.555" x2="361.152" y2="182.313"/>
<line x1="461.512" y1="256.450" x2="361.152" y2="182.313"/>
<line x1="461.512" y1="256.450" x2="448.822" y2="173.609"/>
<line x1="361.152" y1="182.313" x2="448.822" y2="173.609"/>
<line x1="542.467" y1="264.669" x2="448.822" y2="173.609"/>
<line x1="542.467" y1="264.669" x2="539.151" y2="170.723"/>
<line x1="448.822" y1="173.609" x2="539.151" y2="170.723"/>
<line x1="650.589" y1="274.180" x2="539.151" y2="170.723"/>
<line x1="650.589" y1="274.180" x2="664.133" y2="175.405"/>
<line x1="539.151" y1="170.723" x2="664.133" y2="175.405"/>
<line x1="777.701" y1="279.215" x2="664.133" y2="175.405"/>
<line x1="777.701" y1="279.215" x2="777.526" y2="184.816"/>
<line x1="664.133" y1="175.405" x2="777.526" y2="184.816"/>
<line x1="868.000" y1="276.719" x2="777.526" y2="184.816"/>
<line x1="868.000" y1="276.719" x2="868.000" y2="193.246"/>
<line x1="777.526" y1="184.816" x2="868.000" y2="193.246"/>
<line x1="121.584" y1="195.729" x2="32.000" y2="93.725"/>
<line x1="32.000" y1="192.303" x2="32.000" y2="93.725"/>
<line x1="121.584" y1="195.729" x2="123.454" y2="103.454"/>
<line x1="32.000" y1="93.725" x2="123.454" y2="103.454"/>
<line x1="238.145" y1="191.555" x2="123.454" y2="103.454"/>
<line x1="238.145" y1="191.555" x2="251.298" y2="110.845"/>
<line x1="123.454" y1="103.454" x2="251.298" y2="110.845"/>
<line x1="361.152" y1="182.313" x2="251.298" y2="110.845"/>
<line x1="361.152" y1="182.313" x2="355.892" y2="111.415"/>
<line x1="251.298" y1="110.845" x2="355.892" y2="111.415"/>
<line x1="448.822" y1="173.609" x2="355.892" y2="111.415"/>
<line x1="448.822" y1="173.609" x2="437.024" y2="104.818"/>
<line x1="355.892" y1="111.415" x2="437.024" y2="104.818"/>
<line x1="539.151" y1="170.723" x2="437.024" y2="104.818"/>
<line x1="539.151" y1="170.723" x2="547.452" y2="95.056"/>
<line x1="437.024" y1="104.818" x2="547.452" y2="95.056"/>
<line x1="664.133" y1="175.405" x2="547.452" y2="95.056"/>
<line x1="664.133" y1="175.405" x2="673.792" y2="88.050"/>
<line x1="547.452" y1="95.056" x2="673.792" y2="88.050"/>
<line x1="777.526" y1="184.816" x2="673.792" y2="88.050"/>
<line x1="777.526" y1="184.816" x2="766.736" y2="88.050"/>
<line x1="673.792" y1="88.050" x2="766.736" y2="88.050"/>
<line x1="868.000" y1="193.246" x2="766.736" y2="88.050"/>
<line x1="868.000" y1="193.246" x2="868.000" y2="95.056"/>
<line x1="766.736" y1="88.050" x2="868.000" y2="95.056"/>
<line x1="123.454" y1="103.454" x2="32.000" y2="16.000"/>
<line x1="32.000" y1="93.725" x2="32.000" y2="16.000"/>
<line x1="123.454" y1="103.454" x2="135.198" y2="16.000"/>
<line x1="32.000" y1="16.000" x2="135.198" y2="16.000"/>
<line x1="251.298" y1="110.845" x2="135.198" y2="16.000"/>
<line x1="251.298" y1="110.845" x2="256.658" y2="16.000"/>
<line x1="135.198" y1="16.000" x2="256.658" y2="16.000"/>
<line x1="355.892" y1="111.415" x2="256.658" y2="16.000"/>
<line x1="355.892" y1="111.415" x2="342.767" y2="16.000"/>
<line x1="256.658" y1="16.000" x2="342.767" y2="16.000"/>
<line x1="437.024" y1="104.818" x2="342.767" y2="16.000"/>
<line x1="437.024" y1="104.818" x2="435.046" y2="16.000"/>
<line x1="342.767" y1="16.000" x2="435.046" y2="16.000"/>
<line x1="547.452" y1="95.056" x2="435.046" y2="16.000"/>
<line x1="547.452" y1="95.056" x2="561.086" y2="16.000"/>
<line x1="435.046" y1="16.000" x2="561.086" y2="16.000"/>
<line x1="673.792" y1="88.050" x2="561.086" y2="16.000"/>
<line x1="673.792" y1="88.050" x2="672.257" y2="16.000"/>
<line x1="561.086" y1="16.000" x2="672.257" y2="16.000"/>
<line x1="766.736" y1="88.050" x2="672.257" y2="16.000"/>
<line x1="766.736" y1="88.050" x2="753.498" y2="16.000"/>
<line x1="672.257" y1="16.000" x2="753.498" y2="16.000"/>
<line x1="868.000" y1="95.056" x2="753.498" y2="16.000"/>
<line x1="868.000" y1="95.056" x2="868.000" y2="16.000"/>
<line x1="753.498" y1="16.000" x2="868.000" y2="16.000"/>
</g>
</svg>
