<?xml version="1.0" encoding="UTF-8"?>
<svg xmlns="http://www.w3.org/2000/svg" width="900" height="450" viewBox="0 0 900 450" role="img" aria-label="STRETCHED_TORUS8x5 grid">
<rect width="100%" height="100%" fill="#ffffff"/>
<title>STRETCHED_TORUS8x5 grid</title>
<ellipse cx="450.000" cy="324.000" rx="288.000" ry="36.000" fill="#e5e7eb" opacity="0.55"/>
<g fill="none" stroke="#1f2937" stroke-width="0.8" stroke-linecap="round" stroke-linejoin="round">
<line x1="580.288" y1="426.000" x2="638.332" y2="403.676" stroke-opacity="0.350"/>
<line x1="580.288" y1="426.000" x2="525.537" y2="391.255" stroke-opacity="0.361"/>
<line x1="583.582" y1="368.931" x2="580.288" y2="426.000" stroke-opacity="0.380"/>
<line x1="638.332" y1="403.676" x2="583.582" y2="368.931" stroke-opacity="0.400"/>
<line x1="525.537" y1="391.255" x2="583.582" y2="368.931" stroke-opacity="0.410"/>
<line x1="641.626" y1="346.607" x2="638.332" y2="403.676" stroke-opacity="0.419"/>
<line x1="525.537" y1="391.255" x2="470.787" y2="356.510" stroke-opacity="0.421"/>
<line x1="528.832" y1="334.186" x2="525.537" y2="391.255" stroke-opacity="0.441"/>
<line x1="583.582" y1="368.931" x2="641.626" y2="346.607" stroke-opacity="0.449"/>
<line x1="583.582" y1="368.931" x2="528.832" y2="334.186" stroke-opacity="0.460"/>
<line x1="470.787" y1="356.510" x2="528.832" y2="334.186" stroke-opacity="0.471"/>
<line x1="586.876" y1="311.862" x2="583.582" y2="368.931" stroke-opacity="0.480"/>
<line x1="470.787" y1="356.510" x2="416.037" y2="321.766" stroke-opacity="0.482"/>
<line x1="641.626" y1="346.607" x2="699.671" y2="324.283" stroke-opacity="0.488"/>
<line x1="641.626" y1="346.607" x2="586.876" y2="311.862" stroke-opacity="0.499"/>
<line x1="474.081" y1="299.441" x2="470.787" y2="356.510" stroke-opacity="0.501"/>
<line x1="528.832" y1="334.186" x2="586.876" y2="311.862" stroke-opacity="0.510"/>
<line x1="644.921" y1="289.538" x2="641.626" y2="346.607" stroke-opacity="0.518"/>
<line x1="528.832" y1="334.186" x2="474.081" y2="299.441" stroke-opacity="0.521"/>
<line x1="470.787" y1="356.510" x2="702.965" y2="267.214" stroke-opacity="0.529"/>
<line x1="416.037" y1="321.766" x2="474.081" y2="299.441" stroke-opacity="0.531"/>
<line x1="699.671" y1="324.283" x2="644.921" y2="289.538" stroke-opacity="0.538"/>
<line x1="532.126" y1="277.117" x2="528.832" y2="334.186" stroke-opacity="0.540"/>
<line x1="416.037" y1="321.766" x2="361.286" y2="287.021" stroke-opacity="0.542"/>
<line x1="197.035" y1="182.786" x2="580.288" y2="426.000" stroke-opacity="0.542"/>
<line x1="586.876" y1="311.862" x2="644.921" y2="289.538" stroke-opacity="0.549"/>
<line x1="702.965" y1="267.214" x2="699.671" y2="324.283" stroke-opacity="0.557"/>
<line x1="586.876" y1="311.862" x2="532.126" y2="277.117" stroke-opacity="0.559"/>
<line x1="702.965" y1="267.214" x2="416.037" y2="321.766" stroke-opacity="0.559"/>
<line x1="419.331" y1="264.697" x2="416.037" y2="321.766" stroke-opacity="0.562"/>
<line x1="638.332" y1="403.676" x2="197.035" y2="182.786" stroke-opacity="0.562"/>
<line x1="474.081" y1="299.441" x2="532.126" y2="277.117" stroke-opacity="0.570"/>
<line x1="590.170" y1="254.793" x2="586.876" y2="311.862" stroke-opacity="0.579"/>
<line x1="255.079" y1="160.462" x2="638.332" y2="403.676" stroke-opacity="0.581"/>
<line x1="474.081" y1="299.441" x2="419.331" y2="264.697" stroke-opacity="0.581"/>
<line x1="644.921" y1="289.538" x2="702.965" y2="267.214" stroke-opacity="0.588"/>
<line x1="416.037" y1="321.766" x2="648.215" y2="232.469" stroke-opacity="0.590"/>
<line x1="361.286" y1="287.021" x2="419.331" y2="264.697" stroke-opacity="0.592"/>
<line x1="644.921" y1="289.538" x2="590.170" y2="254.793" stroke-opacity="0.598"/>
<line x1="477.375" y1="242.372" x2="474.081" y2="299.441" stroke-opacity="0.601"/>
<line x1="361.286" y1="287.021" x2="306.536" y2="252.276" stroke-opacity="0.603"/>
<line x1="532.126" y1="277.117" x2="590.170" y2="254.793" stroke-opacity="0.609"/>
<line x1="648.215" y1="232.469" x2="644.921" y2="289.538" stroke-opacity="0.618"/>
<line x1="532.126" y1="277.117" x2="477.375" y2="242.372" stroke-opacity="0.620"/>
<line x1="429.213" y1="93.490" x2="580.288" y2="426.000" stroke-opacity="0.620"/>
<line x1="648.215" y1="232.469" x2="361.286" y2="287.021" stroke-opacity="0.620"/>
<line x1="364.580" y1="229.952" x2="361.286" y2="287.021" stroke-opacity="0.622"/>
<line x1="638.332" y1="403.676" x2="258.374" y2="103.393" stroke-opacity="0.631"/>
<line x1="419.331" y1="264.697" x2="477.375" y2="242.372" stroke-opacity="0.631"/>
<line x1="702.965" y1="267.214" x2="648.215" y2="232.469" stroke-opacity="0.637"/>
<line x1="535.420" y1="220.048" x2="532.126" y2="277.117" stroke-opacity="0.639"/>
<line x1="419.331" y1="264.697" x2="364.580" y2="229.952" stroke-opacity="0.642"/>
<line x1="590.170" y1="254.793" x2="648.215" y2="232.469" stroke-opacity="0.648"/>
<line x1="580.288" y1="426.000" x2="374.463" y2="58.745" stroke-opacity="0.650"/>
<line x1="361.286" y1="287.021" x2="593.464" y2="197.724" stroke-opacity="0.650"/>
<line x1="306.536" y1="252.276" x2="364.580" y2="229.952" stroke-opacity="0.652"/>
<line x1="590.170" y1="254.793" x2="535.420" y2="220.048" stroke-opacity="0.659"/>
<line x1="422.625" y1="207.628" x2="419.331" y2="264.697" stroke-opacity="0.661"/>
<line x1="306.536" y1="252.276" x2="251.785" y2="217.531" stroke-opacity="0.663"/>
<line x1="477.375" y1="242.372" x2="535.420" y2="220.048" stroke-opacity="0.670"/>
<line x1="593.464" y1="197.724" x2="590.170" y2="254.793" stroke-opacity="0.678"/>
<line x1="374.463" y1="58.745" x2="525.537" y2="391.255" stroke-opacity="0.680"/>
<line x1="258.374" y1="103.393" x2="641.626" y2="346.607" stroke-opacity="0.680"/>
<line x1="477.375" y1="242.372" x2="422.625" y2="207.628" stroke-opacity="0.680"/>
<line x1="593.464" y1="197.724" x2="306.536" y2="252.276" stroke-opacity="0.680"/>
<line x1="309.830" y1="195.207" x2="306.536" y2="252.276" stroke-opacity="0.683"/>
<line x1="364.580" y1="229.952" x2="422.625" y2="207.628" stroke-opacity="0.691"/>
<line x1="648.215" y1="232.469" x2="593.464" y2="197.724" stroke-opacity="0.698"/>
<line x1="480.669" y1="185.303" x2="477.375" y2="242.372" stroke-opacity="0.700"/>
<line x1="699.671" y1="324.283" x2="258.374" y2="103.393" stroke-opacity="0.700"/>
<line x1="364.580" y1="229.952" x2="309.830" y2="195.207" stroke-opacity="0.702"/>
<line x1="535.420" y1="220.048" x2="593.464" y2="197.724" stroke-opacity="0.708"/>
<line x1="525.537" y1="391.255" x2="319.712" y2="24.000" stroke-opacity="0.711"/>
<line x1="306.536" y1="252.276" x2="538.714" y2="162.979" stroke-opacity="0.711"/>
<line x1="251.785" y1="217.531" x2="309.830" y2="195.207" stroke-opacity="0.713"/>
<line x1="535.420" y1="220.048" x2="480.669" y2="185.303" stroke-opacity="0.719"/>
<line x1="316.418" y1="81.069" x2="699.671" y2="324.283" stroke-opacity="0.719"/>
<line x1="367.874" y1="172.883" x2="364.580" y2="229.952" stroke-opacity="0.721"/>
<line x1="251.785" y1="217.531" x2="197.035" y2="182.786" stroke-opacity="0.724"/>
<line x1="422.625" y1="207.628" x2="480.669" y2="185.303" stroke-opacity="0.730"/>
<line x1="538.714" y1="162.979" x2="535.420" y2="220.048" stroke-opacity="0.739"/>
<line x1="538.714" y1="162.979" x2="251.785" y2="217.531" stroke-opacity="0.741"/>
<line x1="319.712" y1="24.000" x2="470.787" y2="356.510" stroke-opacity="0.741"/>
<line x1="422.625" y1="207.628" x2="367.874" y2="172.883" stroke-opacity="0.741"/>
<line x1="255.079" y1="160.462" x2="251.785" y2="217.531" stroke-opacity="0.743"/>
<line x1="309.830" y1="195.207" x2="367.874" y2="172.883" stroke-opacity="0.752"/>
<line x1="593.464" y1="197.724" x2="538.714" y2="162.979" stroke-opacity="0.758"/>
<line x1="425.919" y1="150.559" x2="422.625" y2="207.628" stroke-opacity="0.760"/>
<line x1="309.830" y1="195.207" x2="255.079" y2="160.462" stroke-opacity="0.762"/>
<line x1="480.669" y1="185.303" x2="538.714" y2="162.979" stroke-opacity="0.769"/>
<line x1="699.671" y1="324.283" x2="319.712" y2="24.000" stroke-opacity="0.769"/>
<line x1="251.785" y1="217.531" x2="483.963" y2="128.234" stroke-opacity="0.771"/>
<line x1="197.035" y1="182.786" x2="255.079" y2="160.462" stroke-opacity="0.773"/>
<line x1="480.669" y1="185.303" x2="425.919" y2="150.559" stroke-opacity="0.780"/>
<line x1="313.124" y1="138.138" x2="309.830" y2="195.207" stroke-opacity="0.782"/>
<line x1="367.874" y1="172.883" x2="425.919" y2="150.559" stroke-opacity="0.791"/>
<line x1="483.963" y1="128.234" x2="480.669" y2="185.303" stroke-opacity="0.799"/>
<line x1="483.963" y1="128.234" x2="197.035" y2="182.786" stroke-opacity="0.801"/>
<line x1="367.874" y1="172.883" x2="313.124" y2="138.138" stroke-opacity="0.801"/>
<line x1="255.079" y1="160.462" x2="313.124" y2="138.138" stroke-opacity="0.812"/>
<line x1="319.712" y1="24.000" x2="702.965" y2="267.214" stroke-opacity="0.819"/>
<line x1="538.714" y1="162.979" x2="483.963" y2="128.234" stroke-opacity="0.819"/>
<line x1="371.168" y1="115.814" x2="367.874" y2="172.883" stroke-opacity="0.821"/>
<line x1="425.919" y1="150.559" x2="483.963" y2="128.234" stroke-opacity="0.829"/>
<line x1="197.035" y1="182.786" x2="429.213" y2="93.490" stroke-opacity="0.832"/>
<line x1="425.919" y1="150.559" x2="371.168" y2="115.814" stroke-opacity="0.840"/>
<line x1="258.374" y1="103.393" x2="255.079" y2="160.462" stroke-opacity="0.842"/>
<line x1="313.124" y1="138.138" x2="371.168" y2="115.814" stroke-opacity="0.851"/>
<line x1="429.213" y1="93.490" x2="425.919" y2="150.559" stroke-opacity="0.860"/>
<line x1="313.124" y1="138.138" x2="258.374" y2="103.393" stroke-opacity="0.862"/>
<line x1="483.963" y1="128.234" x2="429.213" y2="93.490" stroke-opacity="0.879"/>
<line x1="316.418" y1="81.069" x2="313.124" y2="138.138" stroke-opacity="0.881"/>
<line x1="371.168" y1="115.814" x2="429.213" y2="93.490" stroke-opacity="0.890"/>
<line x1="371.168" y1="115.814" x2="316.418" y2="81.069" stroke-opacity="0.901"/>
<line x1="258.374" y1="103.393" x2="316.418" y2="81.069" stroke-opacity="0.911"/>
<line x1="374.463" y1="58.745" x2="371.168" y2="115.814" stroke-opacity="0.920"/>
<line x1="429.213" y1="93.490" x2="374.463" y2="58.745" stroke-opacity="0.940"/>
<line x1="316.418" y1="81.069" x2="374.463" y2="58.745" stroke-opacity="0.950"/>
<line x1="319.712" y1="24.000" x2="316.418" y2="81.069" stroke-opacity="0.981"/>
<line x1="374.463" y1="58.745" x2="319.712" y2="24.000" stroke-opacity="1.000"/>
</g>
</svg>
