<?xml version="1.0" encoding="UTF-8"?>
<svg xmlns="http://www.w3.org/2000/svg" width="900" height="450" viewBox="0 0 900 450" role="img" aria-label="TORUS12x6 grid">
<rect width="100%" height="100%" fill="#ffffff"/>
<title>TORUS12x6 grid</title>
<ellipse cx="450.000" cy="324.000" rx="288.000" ry="36.000" fill="#e5e7eb" opacity="0.55"/>
<g fill="none" stroke="#1f2937" stroke-width="0.8" stroke-linecap="round" stroke-linejoin="round">
<line x1="575.664" y1="426.000" x2="618.762" y2="404.849" stroke-opacity="0.350"/>
<line x1="575.664" y1="426.000" x2="539.755" y2="403.212" stroke-opacity="0.351"/>
<line x1="582.853" y1="382.061" x2="575.664" y2="426.000" stroke-opacity="0.369"/>
<line x1="618.762" y1="404.849" x2="582.853" y2="382.061" stroke-opacity="0.387"/>
<line x1="539.755" y1="403.212" x2="582.853" y2="382.061" stroke-opacity="0.389"/>
<line x1="539.755" y1="403.212" x2="503.845" y2="380.424" stroke-opacity="0.390"/>
<line x1="625.952" y1="360.910" x2="618.762" y2="404.849" stroke-opacity="0.406"/>
<line x1="546.944" y1="359.273" x2="539.755" y2="403.212" stroke-opacity="0.408"/>
<line x1="582.853" y1="382.061" x2="625.952" y2="360.910" stroke-opacity="0.425"/>
<line x1="582.853" y1="382.061" x2="546.944" y2="359.273" stroke-opacity="0.426"/>
<line x1="503.845" y1="380.424" x2="546.944" y2="359.273" stroke-opacity="0.428"/>
<line x1="503.845" y1="380.424" x2="467.936" y2="357.636" stroke-opacity="0.429"/>
<line x1="590.042" y1="338.122" x2="582.853" y2="382.061" stroke-opacity="0.444"/>
<line x1="511.035" y1="336.485" x2="503.845" y2="380.424" stroke-opacity="0.447"/>
<line x1="625.952" y1="360.910" x2="669.050" y2="339.759" stroke-opacity="0.461"/>
<line x1="625.952" y1="360.910" x2="590.042" y2="338.122" stroke-opacity="0.462"/>
<line x1="546.944" y1="359.273" x2="590.042" y2="338.122" stroke-opacity="0.464"/>
<line x1="546.944" y1="359.273" x2="511.035" y2="336.485" stroke-opacity="0.465"/>
<line x1="467.936" y1="357.636" x2="511.035" y2="336.485" stroke-opacity="0.467"/>
<line x1="467.936" y1="357.636" x2="432.027" y2="334.847" stroke-opacity="0.468"/>
<line x1="633.141" y1="316.971" x2="625.952" y2="360.910" stroke-opacity="0.481"/>
<line x1="554.133" y1="315.334" x2="546.944" y2="359.273" stroke-opacity="0.483"/>
<line x1="475.125" y1="313.697" x2="467.936" y2="357.636" stroke-opacity="0.486"/>
<line x1="669.050" y1="339.759" x2="633.141" y2="316.971" stroke-opacity="0.499"/>
<line x1="503.845" y1="380.424" x2="719.338" y2="274.670" stroke-opacity="0.500"/>
<line x1="590.042" y1="338.122" x2="633.141" y2="316.971" stroke-opacity="0.500"/>
<line x1="590.042" y1="338.122" x2="554.133" y2="315.334" stroke-opacity="0.501"/>
<line x1="511.035" y1="336.485" x2="554.133" y2="315.334" stroke-opacity="0.503"/>
<line x1="511.035" y1="336.485" x2="475.125" y2="313.697" stroke-opacity="0.504"/>
<line x1="432.027" y1="334.847" x2="475.125" y2="313.697" stroke-opacity="0.506"/>
<line x1="432.027" y1="334.847" x2="396.117" y2="312.059" stroke-opacity="0.507"/>
<line x1="676.240" y1="295.821" x2="669.050" y2="339.759" stroke-opacity="0.517"/>
<line x1="597.232" y1="294.183" x2="590.042" y2="338.122" stroke-opacity="0.519"/>
<line x1="719.338" y1="274.670" x2="467.936" y2="357.636" stroke-opacity="0.519"/>
<line x1="518.224" y1="292.546" x2="511.035" y2="336.485" stroke-opacity="0.522"/>
<line x1="439.216" y1="290.908" x2="432.027" y2="334.847" stroke-opacity="0.525"/>
<line x1="633.141" y1="316.971" x2="676.240" y2="295.821" stroke-opacity="0.536"/>
<line x1="633.141" y1="316.971" x2="597.232" y2="294.183" stroke-opacity="0.537"/>
<line x1="467.936" y1="357.636" x2="683.429" y2="251.882" stroke-opacity="0.539"/>
<line x1="554.133" y1="315.334" x2="597.232" y2="294.183" stroke-opacity="0.539"/>
<line x1="554.133" y1="315.334" x2="518.224" y2="292.546" stroke-opacity="0.540"/>
<line x1="475.125" y1="313.697" x2="518.224" y2="292.546" stroke-opacity="0.542"/>
<line x1="475.125" y1="313.697" x2="439.216" y2="290.908" stroke-opacity="0.543"/>
<line x1="396.117" y1="312.059" x2="439.216" y2="290.908" stroke-opacity="0.544"/>
<line x1="396.117" y1="312.059" x2="360.208" y2="289.271" stroke-opacity="0.546"/>
<line x1="180.662" y1="175.330" x2="575.664" y2="426.000" stroke-opacity="0.546"/>
<line x1="640.330" y1="273.032" x2="633.141" y2="316.971" stroke-opacity="0.556"/>
<line x1="561.323" y1="271.395" x2="554.133" y2="315.334" stroke-opacity="0.558"/>
<line x1="683.429" y1="251.882" x2="432.027" y2="334.847" stroke-opacity="0.558"/>
<line x1="482.315" y1="269.758" x2="475.125" y2="313.697" stroke-opacity="0.561"/>
<line x1="403.307" y1="268.120" x2="396.117" y2="312.059" stroke-opacity="0.564"/>
<line x1="618.762" y1="404.849" x2="180.662" y2="175.330" stroke-opacity="0.564"/>
<line x1="676.240" y1="295.821" x2="719.338" y2="274.670" stroke-opacity="0.572"/>
<line x1="676.240" y1="295.821" x2="640.330" y2="273.032" stroke-opacity="0.574"/>
<line x1="597.232" y1="294.183" x2="640.330" y2="273.032" stroke-opacity="0.575"/>
<line x1="597.232" y1="294.183" x2="561.323" y2="271.395" stroke-opacity="0.576"/>
<line x1="518.224" y1="292.546" x2="561.323" y2="271.395" stroke-opacity="0.578"/>
<line x1="432.027" y1="334.847" x2="647.520" y2="229.093" stroke-opacity="0.578"/>
<line x1="518.224" y1="292.546" x2="482.315" y2="269.758" stroke-opacity="0.579"/>
<line x1="439.216" y1="290.908" x2="482.315" y2="269.758" stroke-opacity="0.581"/>
<line x1="223.760" y1="154.179" x2="618.762" y2="404.849" stroke-opacity="0.582"/>
<line x1="439.216" y1="290.908" x2="403.307" y2="268.120" stroke-opacity="0.582"/>
<line x1="360.208" y1="289.271" x2="403.307" y2="268.120" stroke-opacity="0.583"/>
<line x1="360.208" y1="289.271" x2="324.299" y2="266.483" stroke-opacity="0.585"/>
<line x1="683.429" y1="251.882" x2="676.240" y2="295.821" stroke-opacity="0.592"/>
<line x1="604.421" y1="250.244" x2="597.232" y2="294.183" stroke-opacity="0.594"/>
<line x1="525.413" y1="248.607" x2="518.224" y2="292.546" stroke-opacity="0.597"/>
<line x1="647.520" y1="229.093" x2="396.117" y2="312.059" stroke-opacity="0.597"/>
<line x1="446.405" y1="246.969" x2="439.216" y2="290.908" stroke-opacity="0.600"/>
<line x1="367.397" y1="245.332" x2="360.208" y2="289.271" stroke-opacity="0.603"/>
<line x1="719.338" y1="274.670" x2="683.429" y2="251.882" stroke-opacity="0.610"/>
<line x1="640.330" y1="273.032" x2="683.429" y2="251.882" stroke-opacity="0.611"/>
<line x1="640.330" y1="273.032" x2="604.421" y2="250.244" stroke-opacity="0.612"/>
<line x1="561.323" y1="271.395" x2="604.421" y2="250.244" stroke-opacity="0.614"/>
<line x1="561.323" y1="271.395" x2="525.413" y2="248.607" stroke-opacity="0.615"/>
<line x1="482.315" y1="269.758" x2="525.413" y2="248.607" stroke-opacity="0.617"/>
<line x1="396.117" y1="312.059" x2="611.610" y2="206.305" stroke-opacity="0.617"/>
<line x1="482.315" y1="269.758" x2="446.405" y2="246.969" stroke-opacity="0.618"/>
<line x1="618.762" y1="404.849" x2="230.950" y2="110.241" stroke-opacity="0.619"/>
<line x1="403.307" y1="268.120" x2="446.405" y2="246.969" stroke-opacity="0.619"/>
<line x1="403.307" y1="268.120" x2="367.397" y2="245.332" stroke-opacity="0.621"/>
<line x1="324.299" y1="266.483" x2="367.397" y2="245.332" stroke-opacity="0.622"/>
<line x1="324.299" y1="266.483" x2="288.390" y2="243.695" stroke-opacity="0.624"/>
<line x1="647.520" y1="229.093" x2="640.330" y2="273.032" stroke-opacity="0.631"/>
<line x1="568.512" y1="227.456" x2="561.323" y2="271.395" stroke-opacity="0.633"/>
<line x1="489.504" y1="225.819" x2="482.315" y2="269.758" stroke-opacity="0.636"/>
<line x1="611.610" y1="206.305" x2="360.208" y2="289.271" stroke-opacity="0.636"/>
<line x1="396.155" y1="69.576" x2="575.664" y2="426.000" stroke-opacity="0.636"/>
<line x1="410.496" y1="224.181" x2="403.307" y2="268.120" stroke-opacity="0.639"/>
<line x1="331.488" y1="222.544" x2="324.299" y2="266.483" stroke-opacity="0.642"/>
<line x1="683.429" y1="251.882" x2="647.520" y2="229.093" stroke-opacity="0.649"/>
<line x1="604.421" y1="250.244" x2="647.520" y2="229.093" stroke-opacity="0.650"/>
<line x1="604.421" y1="250.244" x2="568.512" y2="227.456" stroke-opacity="0.651"/>
<line x1="525.413" y1="248.607" x2="568.512" y2="227.456" stroke-opacity="0.653"/>
<line x1="525.413" y1="248.607" x2="489.504" y2="225.819" stroke-opacity="0.654"/>
<line x1="446.405" y1="246.969" x2="489.504" y2="225.819" stroke-opacity="0.656"/>
<line x1="360.208" y1="289.271" x2="575.701" y2="183.517" stroke-opacity="0.656"/>
<line x1="575.664" y1="426.000" x2="360.245" y2="46.788" stroke-opacity="0.656"/>
<line x1="230.950" y1="110.241" x2="625.952" y2="360.910" stroke-opacity="0.657"/>
<line x1="446.405" y1="246.969" x2="410.496" y2="224.181" stroke-opacity="0.657"/>
<line x1="367.397" y1="245.332" x2="410.496" y2="224.181" stroke-opacity="0.658"/>
<line x1="367.397" y1="245.332" x2="331.488" y2="222.544" stroke-opacity="0.660"/>
<line x1="288.390" y1="243.695" x2="331.488" y2="222.544" stroke-opacity="0.661"/>
<line x1="288.390" y1="243.695" x2="252.480" y2="220.907" stroke-opacity="0.663"/>
<line x1="611.610" y1="206.305" x2="604.421" y2="250.244" stroke-opacity="0.669"/>
<line x1="532.603" y1="204.668" x2="525.413" y2="248.607" stroke-opacity="0.672"/>
<line x1="669.050" y1="339.759" x2="230.950" y2="110.241" stroke-opacity="0.675"/>
<line x1="453.595" y1="203.031" x2="446.405" y2="246.969" stroke-opacity="0.675"/>
<line x1="360.245" y1="46.788" x2="539.755" y2="403.212" stroke-opacity="0.675"/>
<line x1="575.701" y1="183.517" x2="324.299" y2="266.483" stroke-opacity="0.675"/>
<line x1="374.587" y1="201.393" x2="367.397" y2="245.332" stroke-opacity="0.678"/>
<line x1="295.579" y1="199.756" x2="288.390" y2="243.695" stroke-opacity="0.681"/>
<line x1="647.520" y1="229.093" x2="611.610" y2="206.305" stroke-opacity="0.687"/>
<line x1="568.512" y1="227.456" x2="611.610" y2="206.305" stroke-opacity="0.689"/>
<line x1="568.512" y1="227.456" x2="532.603" y2="204.668" stroke-opacity="0.690"/>
<line x1="489.504" y1="225.819" x2="532.603" y2="204.668" stroke-opacity="0.692"/>
<line x1="489.504" y1="225.819" x2="453.595" y2="203.031" stroke-opacity="0.693"/>
<line x1="274.048" y1="89.090" x2="669.050" y2="339.759" stroke-opacity="0.693"/>
<line x1="410.496" y1="224.181" x2="453.595" y2="203.031" stroke-opacity="0.694"/>
<line x1="539.755" y1="403.212" x2="324.336" y2="24.000" stroke-opacity="0.694"/>
<line x1="324.299" y1="266.483" x2="539.792" y2="160.729" stroke-opacity="0.694"/>
<line x1="410.496" y1="224.181" x2="374.587" y2="201.393" stroke-opacity="0.696"/>
<line x1="331.488" y1="222.544" x2="374.587" y2="201.393" stroke-opacity="0.697"/>
<line x1="331.488" y1="222.544" x2="295.579" y2="199.756" stroke-opacity="0.699"/>
<line x1="252.480" y1="220.907" x2="295.579" y2="199.756" stroke-opacity="0.700"/>
<line x1="252.480" y1="220.907" x2="216.571" y2="198.118" stroke-opacity="0.701"/>
<line x1="575.701" y1="183.517" x2="568.512" y2="227.456" stroke-opacity="0.708"/>
<line x1="496.693" y1="181.880" x2="489.504" y2="225.819" stroke-opacity="0.711"/>
<line x1="417.685" y1="180.242" x2="410.496" y2="224.181" stroke-opacity="0.714"/>
<line x1="324.336" y1="24.000" x2="503.845" y2="380.424" stroke-opacity="0.714"/>
<line x1="539.792" y1="160.729" x2="288.390" y2="243.695" stroke-opacity="0.714"/>
<line x1="338.677" y1="178.605" x2="331.488" y2="222.544" stroke-opacity="0.717"/>
<line x1="259.670" y1="176.968" x2="252.480" y2="220.907" stroke-opacity="0.719"/>
<line x1="611.610" y1="206.305" x2="575.701" y2="183.517" stroke-opacity="0.726"/>
<line x1="532.603" y1="204.668" x2="575.701" y2="183.517" stroke-opacity="0.728"/>
<line x1="532.603" y1="204.668" x2="496.693" y2="181.880" stroke-opacity="0.729"/>
<line x1="669.050" y1="339.759" x2="281.238" y2="45.151" stroke-opacity="0.731"/>
<line x1="453.595" y1="203.031" x2="496.693" y2="181.880" stroke-opacity="0.731"/>
<line x1="453.595" y1="203.031" x2="417.685" y2="180.242" stroke-opacity="0.732"/>
<line x1="374.587" y1="201.393" x2="417.685" y2="180.242" stroke-opacity="0.733"/>
<line x1="288.390" y1="243.695" x2="503.883" y2="137.941" stroke-opacity="0.733"/>
<line x1="374.587" y1="201.393" x2="338.677" y2="178.605" stroke-opacity="0.735"/>
<line x1="295.579" y1="199.756" x2="338.677" y2="178.605" stroke-opacity="0.736"/>
<line x1="295.579" y1="199.756" x2="259.670" y2="176.968" stroke-opacity="0.738"/>
<line x1="216.571" y1="198.118" x2="259.670" y2="176.968" stroke-opacity="0.739"/>
<line x1="216.571" y1="198.118" x2="180.662" y2="175.330" stroke-opacity="0.740"/>
<line x1="539.792" y1="160.729" x2="532.603" y2="204.668" stroke-opacity="0.747"/>
<line x1="460.784" y1="159.092" x2="453.595" y2="203.031" stroke-opacity="0.750"/>
<line x1="503.883" y1="137.941" x2="252.480" y2="220.907" stroke-opacity="0.753"/>
<line x1="381.776" y1="157.454" x2="374.587" y2="201.393" stroke-opacity="0.753"/>
<line x1="302.768" y1="155.817" x2="295.579" y2="199.756" stroke-opacity="0.756"/>
<line x1="223.760" y1="154.179" x2="216.571" y2="198.118" stroke-opacity="0.758"/>
<line x1="575.701" y1="183.517" x2="539.792" y2="160.729" stroke-opacity="0.765"/>
<line x1="496.693" y1="181.880" x2="539.792" y2="160.729" stroke-opacity="0.767"/>
<line x1="281.238" y1="45.151" x2="676.240" y2="295.821" stroke-opacity="0.768"/>
<line x1="496.693" y1="181.880" x2="460.784" y2="159.092" stroke-opacity="0.768"/>
<line x1="417.685" y1="180.242" x2="460.784" y2="159.092" stroke-opacity="0.769"/>
<line x1="417.685" y1="180.242" x2="381.776" y2="157.454" stroke-opacity="0.771"/>
<line x1="338.677" y1="178.605" x2="381.776" y2="157.454" stroke-opacity="0.772"/>
<line x1="252.480" y1="220.907" x2="467.973" y2="115.153" stroke-opacity="0.772"/>
<line x1="338.677" y1="178.605" x2="302.768" y2="155.817" stroke-opacity="0.774"/>
<line x1="259.670" y1="176.968" x2="302.768" y2="155.817" stroke-opacity="0.775"/>
<line x1="259.670" y1="176.968" x2="223.760" y2="154.179" stroke-opacity="0.776"/>
<line x1="180.662" y1="175.330" x2="223.760" y2="154.179" stroke-opacity="0.778"/>
<line x1="719.338" y1="274.670" x2="281.238" y2="45.151" stroke-opacity="0.786"/>
<line x1="503.883" y1="137.941" x2="496.693" y2="181.880" stroke-opacity="0.786"/>
<line x1="424.875" y1="136.303" x2="417.685" y2="180.242" stroke-opacity="0.789"/>
<line x1="345.867" y1="134.666" x2="338.677" y2="178.605" stroke-opacity="0.792"/>
<line x1="467.973" y1="115.153" x2="216.571" y2="198.118" stroke-opacity="0.792"/>
<line x1="266.859" y1="133.029" x2="259.670" y2="176.968" stroke-opacity="0.794"/>
<line x1="324.336" y1="24.000" x2="719.338" y2="274.670" stroke-opacity="0.804"/>
<line x1="539.792" y1="160.729" x2="503.883" y2="137.941" stroke-opacity="0.804"/>
<line x1="460.784" y1="159.092" x2="503.883" y2="137.941" stroke-opacity="0.806"/>
<line x1="460.784" y1="159.092" x2="424.875" y2="136.303" stroke-opacity="0.807"/>
<line x1="381.776" y1="157.454" x2="424.875" y2="136.303" stroke-opacity="0.808"/>
<line x1="381.776" y1="157.454" x2="345.867" y2="134.666" stroke-opacity="0.810"/>
<line x1="302.768" y1="155.817" x2="345.867" y2="134.666" stroke-opacity="0.811"/>
<line x1="216.571" y1="198.118" x2="432.064" y2="92.364" stroke-opacity="0.811"/>
<line x1="302.768" y1="155.817" x2="266.859" y2="133.029" stroke-opacity="0.813"/>
<line x1="223.760" y1="154.179" x2="266.859" y2="133.029" stroke-opacity="0.814"/>
<line x1="467.973" y1="115.153" x2="460.784" y2="159.092" stroke-opacity="0.825"/>
<line x1="388.965" y1="113.515" x2="381.776" y2="157.454" stroke-opacity="0.828"/>
<line x1="309.958" y1="111.878" x2="302.768" y2="155.817" stroke-opacity="0.831"/>
<line x1="432.064" y1="92.364" x2="180.662" y2="175.330" stroke-opacity="0.831"/>
<line x1="230.950" y1="110.241" x2="223.760" y2="154.179" stroke-opacity="0.833"/>
<line x1="503.883" y1="137.941" x2="467.973" y2="115.153" stroke-opacity="0.843"/>
<line x1="424.875" y1="136.303" x2="467.973" y2="115.153" stroke-opacity="0.844"/>
<line x1="424.875" y1="136.303" x2="388.965" y2="113.515" stroke-opacity="0.846"/>
<line x1="345.867" y1="134.666" x2="388.965" y2="113.515" stroke-opacity="0.847"/>
<line x1="345.867" y1="134.666" x2="309.958" y2="111.878" stroke-opacity="0.849"/>
<line x1="266.859" y1="133.029" x2="309.958" y2="111.878" stroke-opacity="0.850"/>
<line x1="180.662" y1="175.330" x2="396.155" y2="69.576" stroke-opacity="0.850"/>
<line x1="266.859" y1="133.029" x2="230.950" y2="110.241" stroke-opacity="0.851"/>
<line x1="432.064" y1="92.364" x2="424.875" y2="136.303" stroke-opacity="0.864"/>
<line x1="353.056" y1="90.727" x2="345.867" y2="134.666" stroke-opacity="0.867"/>
<line x1="274.048" y1="89.090" x2="266.859" y2="133.029" stroke-opacity="0.869"/>
<line x1="467.973" y1="115.153" x2="432.064" y2="92.364" stroke-opacity="0.882"/>
<line x1="388.965" y1="113.515" x2="432.064" y2="92.364" stroke-opacity="0.883"/>
<line x1="388.965" y1="113.515" x2="353.056" y2="90.727" stroke-opacity="0.885"/>
<line x1="309.958" y1="111.878" x2="353.056" y2="90.727" stroke-opacity="0.886"/>
<line x1="309.958" y1="111.878" x2="274.048" y2="89.090" stroke-opacity="0.888"/>
<line x1="230.950" y1="110.241" x2="274.048" y2="89.090" stroke-opacity="0.889"/>
<line x1="396.155" y1="69.576" x2="388.965" y2="113.515" stroke-opacity="0.903"/>
<line x1="317.147" y1="67.939" x2="309.958" y2="111.878" stroke-opacity="0.906"/>
<line x1="432.064" y1="92.364" x2="396.155" y2="69.576" stroke-opacity="0.921"/>
<line x1="353.056" y1="90.727" x2="396.155" y2="69.576" stroke-opacity="0.922"/>
<line x1="353.056" y1="90.727" x2="317.147" y2="67.939" stroke-opacity="0.924"/>
<line x1="274.048" y1="89.090" x2="317.147" y2="67.939" stroke-opacity="0.925"/>
<line x1="360.245" y1="46.788" x2="353.056" y2="90.727" stroke-opacity="0.942"/>
<line x1="281.238" y1="45.151" x2="274.048" y2="89.090" stroke-opacity="0.944"/>
<line x1="396.155" y1="69.576" x2="360.245" y2="46.788" stroke-opacity="0.960"/>
<line x1="317.147" y1="67.939" x2="360.245" y2="46.788" stroke-opacity="0.961"/>
<line x1="317.147" y1="67.939" x2="281.238" y2="45.151" stroke-opacity="0.963"/>
<line x1="324.336" y1="24.000" x2="317.147" y2="67.939" stroke-opacity="0.981"/>
<line x1="360.245" y1="46.788" x2="324.336" y2="24.000" stroke-opacity="0.999"/>
<line x1="281.238" y1="45.151" x2="324.336" y2="24.000" stroke-opacity="1.000"/>
</g>
</svg>
