<?xml version="1.0" encoding="UTF-8"?>
<svg xmlns="http://www.w3.org/2000/svg" width="900" height="450" viewBox="0 0 900 450" role="img" aria-label="PARALLELOGRAM8x5 grid">
<rect width="100%" height="100%" fill="#ffffff"/>
<title>PARALLELOGRAM8x5 grid</title>
<g fill="none" stroke="#1f2937" stroke-width="0.8" stroke-linecap="round" stroke-linejoin="round">
<line x1="32.000" y1="434.000" x2="104.178" y2="434.000"/>
<line x1="104.178" y1="434.000" x2="83.716" y2="350.400"/>
<line x1="32.000" y1="434.000" x2="83.716" y2="350.400"/>
<line x1="104.178" y1="434.000" x2="155.893" y2="350.400"/>
<line x1="83.716" y1="350.400" x2="155.893" y2="350.400"/>
<line x1="104.178" y1="434.000" x2="176.355" y2="434.000"/>
<line x1="176.355" y1="434.000" x2="155.893" y2="350.400"/>
<line x1="176.355" y1="434.000" x2="228.071" y2="350.400"/>
<line x1="155.893" y1="350.400" x2="228.071" y2="350.400"/>
<line x1="176.355" y1="434.000" x2="248.533" y2="434.000"/>
<line x1="248.533" y1="434.000" x2="228.071" y2="350.400"/>
<line x1="248.533" y1="434.000" x2="300.249" y2="350.400"/>
<line x1="228.071" y1="350.400" x2="300.249" y2="350.400"/>
<line x1="248.533" y1="434.000" x2="320.711" y2="434.000"/>
<line x1="320.711" y1="434.000" x2="300.249" y2="350.400"/>
<line x1="320.711" y1="434.000" x2="372.426" y2="350.400"/>
<line x1="300.249" y1="350.400" x2="372.426" y2="350.400"/>
<line x1="320.711" y1="434.000" x2="392.888" y2="434.000"/>
<line x1="392.888" y1="434.000" x2="372.426" y2="350.400"/>
<line x1="392.888" y1="434.000" x2="444.604" y2="350.400"/>
<line x1="372.426" y1="350.400" x2="444.604" y2="350.400"/>
<line x1="392.888" y1="434.000" x2="465.066" y2="434.000"/>
<line x1="465.066" y1="434.000" x2="444.604" y2="350.400"/>
<line x1="465.066" y1="434.000" x2="516.782" y2="350.400"/>
<line x1="444.604" y1="350.400" x2="516.782" y2="350.400"/>
<line x1="465.066" y1="434.000" x2="537.244" y2="434.000"/>
<line x1="537.244" y1="434.000" x2="516.782" y2="350.400"/>
<line x1="537.244" y1="434.000" x2="588.959" y2="350.400"/>
<line x1="516.782" y1="350.400" x2="588.959" y2="350.400"/>
<line x1="537.244" y1="434.000" x2="609.421" y2="434.000"/>
<line x1="609.421" y1="434.000" x2="588.959" y2="350.400"/>
<line x1="609.421" y1="434.000" x2="661.137" y2="350.400"/>
<line x1="588.959" y1="350.400" x2="661.137" y2="350.400"/>
<line x1="155.893" y1="350.400" x2="135.431" y2="266.800"/>
<line x1="83.716" y1="350.400" x2="135.431" y2="266.800"/>
<line x1="155.893" y1="350.400" x2="207.609" y2="266.800"/>
<line x1="135.431" y1="266.800" x2="207.609" y2="266.800"/>
<line x1="228.071" y1="350.400" x2="207.609" y2="266.800"/>
<line x1="228.071" y1="350.400" x2="279.787" y2="266.800"/>
<line x1="207.609" y1="266.800" x2="279.787" y2="266.800"/>
<line x1="300.249" y1="350.400" x2="279.787" y2="266.800"/>
<line x1="300.249" y1="350.400" x2="351.964" y2="266.800"/>
<line x1="279.787" y1="266.800" x2="351.964" y2="266.800"/>
<line x1="372.426" y1="350.400" x2="351.964" y2="266.800"/>
<line x1="372.426" y1="350.400" x2="424.142" y2="266.800"/>
<line x1="351.964" y1="266.800" x2="424.142" y2="266.800"/>
<line x1="444.604" y1="350.400" x2="424.142" y2="266.800"/>
<line x1="444.604" y1="350.400" x2="496.320" y2="266.800"/>
<line x1="424.142" y1="266.800" x2="496.320" y2="266.800"/>
<line x1="516.782" y1="350.400" x2="496.320" y2="266.800"/>
<line x1="516.782" y1="350.400" x2="568.497" y2="266.800"/>
<line x1="496.320" y1="266.800" x2="568.497" y2="266.800"/>
<line x1="588.959" y1="350.400" x2="568.497" y2="266.800"/>
<line x1="588.959" y1="350.400" x2="640.675" y2="266.800"/>
<line x1="568.497" y1="266.800" x2="640.675" y2="266.800"/>
<line x1="661.137" y1="350.400" x2="640.675" y2="266.800"/>
<line x1="661.137" y1="350.400" x2="712.853" y2="266.800"/>
<line x1="640.675" y1="266.800" x2="712.853" y2="266.800"/>
<line x1="207.609" y1="266.800" x2="187.147" y2="183.200"/>
<line x1="135.431" y1="266.800" x2="187.147" y2="183.200"/>
<line x1="207.609" y1="266.800" x2="259.325" y2="183.200"/>
<line x1="187.147" y1="183.200" x2="259.325" y2="183.200"/>
<line x1="279.787" y1="266.800" x2="259.325" y2="183.200"/>
<line x1="279.787" y1="266.800" x2="331.503" y2="183.200"/>
<line x1="259.325" y1="183.200" x2="331.503" y2="183.200"/>
<line x1="351.964" y1="266.800" x2="331.503" y2="183.200"/>
<line x1="351.964" y1="266.800" x2="403.680" y2="183.200"/>
<line x1="331.503" y1="183.200" x2="403.680" y2="183.200"/>
<line x1="424.142" y1="266.800" x2="403.680" y2="183.200"/>
<line x1="424.142" y1="266.800" x2="475.858" y2="183.200"/>
<line x1="403.680" y1="183.200" x2="475.858" y2="183.200"/>
<line x1="496.320" y1="266.800" x2="475.858" y2="183.200"/>
<line x1="496.320" y1="266.800" x2="548.036" y2="183.200"/>
<line x1="475.858" y1="183.200" x2="548.036" y2="183.200"/>
<line x1="568.497" y1="266.800" x2="548.036" y2="183.200"/>
<line x1="568.497" y1="266.800" x2="620.213" y2="183.200"/>
<line x1="548.036" y1="183.200" x2="620.213" y2="183.200"/>
<line x1="640.675" y1="266.800" x2="620.213" y2="183.200"/>
<line x1="640.675" y1="266.800" x2="692.391" y2="183.200"/>
<line x1="620.213" y1="183.200" x2="692.391" y2="183.200"/>
<line x1="712.853" y1="266.800" x2="692.391" y2="183.200"/>
<line x1="712.853" y1="266.800" x2="764.569" y2="183.200"/>
<line x1="692.391" y1="183.200" x2="764.569" y2="183.200"/>
<line x1="259.325" y1="183.200" x2="238.863" y2="99.600"/>
<line x1="187.147" y1="183.200" x2="238.863" y2="99.600"/>
<line x1="259.325" y1="183.200" x2="311.041" y2="99.600"/>
<line x1="238.863" y1="99.600" x2="311.041" y2="99.600"/>
<line x1="331.503" y1="183.200" x2="311.041" y2="99.600"/>
<line x1="331.503" y1="183.200" x2="383.218" y2="99.600"/>
<line x1="311.041" y1="99.600" x2="383.218" y2="99.600"/>
<line x1="403.680" y1="183.200" x2="383.218" y2="99.600"/>
<line x1="403.680" y1="183.200" x2="455.396" y2="99.600"/>
<line x1="383.218" y1="99.600" x2="455.396" y2="99.600"/>
<line x1="475.858" y1="183.200" x2="455.396" y2="99.600"/>
<line x1="475.858" y1="183.200" x2="527.574" y2="99.600"/>
<line x1="455.396" y1="99.600" x2="527.574" y2="99.600"/>
<line x1="548.036" y1="183.200" x2="527.574" y2="99.600"/>
<line x1="548.036" y1="183.200" x2="599.751" y2="99.600"/>
<line x1="527.574" y1="99.600" x2="599.751" y2="99.600"/>
<line x1="620.213" y1="183.200" x2="599.751" y2="99.600"/>
<line x1="620.213" y1="183.200" x2="671.929" y2="99.600"/>
<line x1="599.751" y1="99.600" x2="671.929" y2="99.600"/>
<line x1="692.391" y1="183.200" x2="671.929" y2="99.600"/>
<line x1="692.391" y1="183.200" x2="744.107" y2="99.600"/>
<line x1="671.929" y1="99.600" x2="744.107" y2="99.600"/>
<line x1="764.569" y1="183.200" x2="744.107" y2="99.600"/>
<line x1="764.569" y1="183.200" x2="816.284" y2="99.600"/>
<line x1="744.107" y1="99.600" x2="816.284" y2="99.600"/>
<line x1="311.041" y1="99.600" x2="290.579" y2="16.000"/>
<line x1="238.863" y1="99.600" x2="290.579" y2="16.000"/>
<line x1="311.041" y1="99.600" x2="362.756" y2="16.000"/>
<line x1="290.579" y1="16.000" x2="362.756" y2="16.000"/>
<line x1="383.218" y1="99.600" x2="362.756" y2="16.000"/>
<line x1="383.218" y1="99.600" x2="434.934" y2="16.000"/>
<line x1="362.756" y1="16.000" x2="434.934" y2="16.000"/>
<line x1="455.396" y1="99.600" x2="434.934" y2="16.000"/>
<line x1="455.396" y1="99.600" x2="507.112" y2="16.000"/>
<line x1="434.934" y1="16.000" x2="507.112" y2="16.000"/>
<line x1="527.574" y1="99.600" x2="507.112" y2="16.000"/>
<line x1="527.574" y1="99.600" x2="579.289" y2="16.000"/>
<line x1="507.112" y1="16.000" x2="579.289" y2="16.000"/>
<line x1="599.751" y1="99.600" x2="579.289" y2="16.000"/>
<line x1="599.751" y1="99.600" x2="651.467" y2="16.000"/>
<line x1="579.289" y1="16.000" x2="651.467" y2="16.000"/>
<line x1="671.929" y1="99.600" x2="651.467" y2="16.000"/>
<line x1="671.929" y1="99.600" x2="723.645" y2="16.000"/>
<line x1="651.467" y1="16.000" x2="723.645" y2="16.000"/>
<line x1="744.107" y1="99.600" x2="723.645" y2="16.000"/>
<line x1="744.107" y1="99.600" x2="795.822" y2="16.000"/>
<line x1="723.645" y1="16.000" x2="795.822" y2="16.000"/>
<line x1="816.284" y1="99.600" x2="795.822" y2="16.000"/>
<line x1="816.284" y1="99.600" x2="868.000" y2="16.000"/>
<line x1="795.822" y1="16.000" x2="868.000" y2="16.000"/>
</g>
</svg>
