<?xml version="1.0" encoding="UTF-8"?>
<svg xmlns="http://www.w3.org/2000/svg" width="900" height="450" viewBox="0 0 900 450" role="img" aria-label="RAGGED_ORTHOGONAL8x5 grid">
<rect width="100%" height="100%" fill="#ffffff"/>
<title>RAGGED_ORTHOGONAL8x5 grid</title>
<ellipse cx="450.000" cy="324.000" rx="288.000" ry="36.000" fill="#e5e7eb" opacity="0.55"/>
<g fill="none" stroke="#1f2937" stroke-width="0.8" stroke-linecap="round" stroke-linejoin="round">
<line x1="519.611" y1="393.966" x2="570.090" y2="426.000" stroke-opacity="0.350"/>
<line x1="570.090" y1="426.000" x2="597.435" y2="390.607" stroke-opacity="0.353"/>
<line x1="570.090" y1="426.000" x2="549.820" y2="366.221" stroke-opacity="0.374"/>
<line x1="519.611" y1="393.966" x2="549.820" y2="366.221" stroke-opacity="0.402"/>
<line x1="472.849" y1="364.290" x2="519.611" y2="393.966" stroke-opacity="0.404"/>
<line x1="549.820" y1="366.221" x2="597.435" y2="390.607" stroke-opacity="0.405"/>
<line x1="597.435" y1="390.607" x2="618.775" y2="362.986" stroke-opacity="0.408"/>
<line x1="597.435" y1="390.607" x2="578.084" y2="338.653" stroke-opacity="0.429"/>
<line x1="519.611" y1="393.966" x2="493.049" y2="334.205" stroke-opacity="0.430"/>
<line x1="437.035" y1="341.563" x2="472.849" y2="364.290" stroke-opacity="0.450"/>
<line x1="549.820" y1="366.221" x2="578.084" y2="338.653" stroke-opacity="0.451"/>
<line x1="578.084" y1="338.653" x2="618.775" y2="362.986" stroke-opacity="0.454"/>
<line x1="493.049" y1="334.205" x2="549.820" y2="366.221" stroke-opacity="0.455"/>
<line x1="472.849" y1="364.290" x2="493.049" y2="334.205" stroke-opacity="0.456"/>
<line x1="618.775" y1="362.986" x2="644.613" y2="329.542" stroke-opacity="0.461"/>
<line x1="472.849" y1="364.290" x2="454.042" y2="309.209" stroke-opacity="0.478"/>
<line x1="549.820" y1="366.221" x2="523.451" y2="300.977" stroke-opacity="0.484"/>
<line x1="618.775" y1="362.986" x2="607.227" y2="300.783" stroke-opacity="0.487"/>
<line x1="388.730" y1="310.908" x2="437.035" y2="341.563" stroke-opacity="0.497"/>
<line x1="437.035" y1="341.563" x2="454.042" y2="309.209" stroke-opacity="0.498"/>
<line x1="454.042" y1="309.209" x2="493.049" y2="334.205" stroke-opacity="0.504"/>
<line x1="523.451" y1="300.977" x2="578.084" y2="338.653" stroke-opacity="0.508"/>
<line x1="578.084" y1="338.653" x2="607.227" y2="300.783" stroke-opacity="0.508"/>
<line x1="493.049" y1="334.205" x2="523.451" y2="300.977" stroke-opacity="0.512"/>
<line x1="607.227" y1="300.783" x2="644.613" y2="329.542" stroke-opacity="0.516"/>
<line x1="437.035" y1="341.563" x2="416.776" y2="281.211" stroke-opacity="0.523"/>
<line x1="644.613" y1="329.542" x2="675.006" y2="290.203" stroke-opacity="0.525"/>
<line x1="578.084" y1="338.653" x2="560.013" y2="265.202" stroke-opacity="0.539"/>
<line x1="493.049" y1="334.205" x2="478.597" y2="266.833" stroke-opacity="0.542"/>
<line x1="388.730" y1="310.908" x2="416.776" y2="281.211" stroke-opacity="0.549"/>
<line x1="416.776" y1="281.211" x2="454.042" y2="309.209" stroke-opacity="0.551"/>
<line x1="644.613" y1="329.542" x2="632.410" y2="258.987" stroke-opacity="0.552"/>
<line x1="332.695" y1="275.348" x2="388.730" y2="310.908" stroke-opacity="0.554"/>
<line x1="454.042" y1="309.209" x2="478.597" y2="266.833" stroke-opacity="0.563"/>
<line x1="478.597" y1="266.833" x2="523.451" y2="300.977" stroke-opacity="0.571"/>
<line x1="523.451" y1="300.977" x2="560.013" y2="265.202" stroke-opacity="0.572"/>
<line x1="560.013" y1="265.202" x2="607.227" y2="300.783" stroke-opacity="0.572"/>
<line x1="607.227" y1="300.783" x2="632.410" y2="258.987" stroke-opacity="0.578"/>
<line x1="388.730" y1="310.908" x2="364.812" y2="242.418" stroke-opacity="0.583"/>
<line x1="454.042" y1="309.209" x2="445.354" y2="240.830" stroke-opacity="0.586"/>
<line x1="632.410" y1="258.987" x2="675.006" y2="290.203" stroke-opacity="0.587"/>
<line x1="675.006" y1="290.203" x2="699.477" y2="258.529" stroke-opacity="0.587"/>
<line x1="607.227" y1="300.783" x2="591.322" y2="232.913" stroke-opacity="0.600"/>
<line x1="523.451" y1="300.977" x2="506.212" y2="228.264" stroke-opacity="0.604"/>
<line x1="291.144" y1="248.980" x2="332.695" y2="275.348" stroke-opacity="0.609"/>
<line x1="364.812" y1="242.418" x2="416.776" y2="281.211" stroke-opacity="0.609"/>
<line x1="416.776" y1="281.211" x2="445.354" y2="240.830" stroke-opacity="0.611"/>
<line x1="332.695" y1="275.348" x2="364.812" y2="242.418" stroke-opacity="0.614"/>
<line x1="675.006" y1="290.203" x2="648.860" y2="226.407" stroke-opacity="0.615"/>
<line x1="445.354" y1="240.830" x2="478.597" y2="266.833" stroke-opacity="0.623"/>
<line x1="560.013" y1="265.202" x2="591.322" y2="232.913" stroke-opacity="0.632"/>
<line x1="478.597" y1="266.833" x2="506.212" y2="228.264" stroke-opacity="0.634"/>
<line x1="506.212" y1="228.264" x2="560.013" y2="265.202" stroke-opacity="0.636"/>
<line x1="591.322" y1="232.913" x2="632.410" y2="258.987" stroke-opacity="0.637"/>
<line x1="416.776" y1="281.211" x2="398.678" y2="210.051" stroke-opacity="0.638"/>
<line x1="632.410" y1="258.987" x2="648.860" y2="226.407" stroke-opacity="0.643"/>
<line x1="648.860" y1="226.407" x2="699.477" y2="258.529" stroke-opacity="0.643"/>
<line x1="332.695" y1="275.348" x2="316.152" y2="207.781" stroke-opacity="0.645"/>
<line x1="253.590" y1="225.148" x2="291.144" y2="248.980" stroke-opacity="0.653"/>
<line x1="478.597" y1="266.833" x2="465.387" y2="204.080" stroke-opacity="0.655"/>
<line x1="560.013" y1="265.202" x2="533.303" y2="200.277" stroke-opacity="0.660"/>
<line x1="632.410" y1="258.987" x2="612.946" y2="203.616" stroke-opacity="0.663"/>
<line x1="291.144" y1="248.980" x2="316.152" y2="207.781" stroke-opacity="0.668"/>
<line x1="364.812" y1="242.418" x2="398.678" y2="210.051" stroke-opacity="0.671"/>
<line x1="398.678" y1="210.051" x2="445.354" y2="240.830" stroke-opacity="0.673"/>
<line x1="316.152" y1="207.781" x2="364.812" y2="242.418" stroke-opacity="0.673"/>
<line x1="445.354" y1="240.830" x2="465.387" y2="204.080" stroke-opacity="0.678"/>
<line x1="591.322" y1="232.913" x2="612.946" y2="203.616" stroke-opacity="0.685"/>
<line x1="291.144" y1="248.980" x2="279.575" y2="185.151" stroke-opacity="0.688"/>
<line x1="533.303" y1="200.277" x2="591.322" y2="232.913" stroke-opacity="0.688"/>
<line x1="465.387" y1="204.080" x2="506.212" y2="228.264" stroke-opacity="0.689"/>
<line x1="612.946" y1="203.616" x2="648.860" y2="226.407" stroke-opacity="0.691"/>
<line x1="506.212" y1="228.264" x2="533.303" y2="200.277" stroke-opacity="0.692"/>
<line x1="445.354" y1="240.830" x2="423.937" y2="182.972" stroke-opacity="0.697"/>
<line x1="364.812" y1="242.418" x2="340.645" y2="176.515" stroke-opacity="0.701"/>
<line x1="200.523" y1="191.471" x2="253.590" y2="225.148" stroke-opacity="0.703"/>
<line x1="253.590" y1="225.148" x2="279.575" y2="185.151" stroke-opacity="0.708"/>
<line x1="591.322" y1="232.913" x2="563.801" y2="172.428" stroke-opacity="0.713"/>
<line x1="506.212" y1="228.264" x2="481.464" y2="173.209" stroke-opacity="0.716"/>
<line x1="398.678" y1="210.051" x2="423.937" y2="182.972" stroke-opacity="0.723"/>
<line x1="279.575" y1="185.151" x2="316.152" y2="207.781" stroke-opacity="0.724"/>
<line x1="423.937" y1="182.972" x2="465.387" y2="204.080" stroke-opacity="0.729"/>
<line x1="340.645" y1="176.515" x2="398.678" y2="210.051" stroke-opacity="0.729"/>
<line x1="316.152" y1="207.781" x2="340.645" y2="176.515" stroke-opacity="0.731"/>
<line x1="253.590" y1="225.148" x2="227.438" y2="156.633" stroke-opacity="0.733"/>
<line x1="465.387" y1="204.080" x2="481.464" y2="173.209" stroke-opacity="0.737"/>
<line x1="563.801" y1="172.428" x2="612.946" y2="203.616" stroke-opacity="0.738"/>
<line x1="481.464" y1="173.209" x2="533.303" y2="200.277" stroke-opacity="0.741"/>
<line x1="533.303" y1="200.277" x2="563.801" y2="172.428" stroke-opacity="0.741"/>
<line x1="398.678" y1="210.051" x2="366.698" y2="152.167" stroke-opacity="0.750"/>
<line x1="316.152" y1="207.781" x2="295.161" y2="153.398" stroke-opacity="0.751"/>
<line x1="465.387" y1="204.080" x2="443.557" y2="153.092" stroke-opacity="0.755"/>
<line x1="200.523" y1="191.471" x2="227.438" y2="156.633" stroke-opacity="0.763"/>
<line x1="227.438" y1="156.633" x2="279.575" y2="185.151" stroke-opacity="0.768"/>
<line x1="279.575" y1="185.151" x2="295.161" y2="153.398" stroke-opacity="0.771"/>
<line x1="533.303" y1="200.277" x2="508.083" y2="137.069" stroke-opacity="0.772"/>
<line x1="423.937" y1="182.972" x2="443.557" y2="153.092" stroke-opacity="0.773"/>
<line x1="366.698" y1="152.167" x2="423.937" y2="182.972" stroke-opacity="0.774"/>
<line x1="295.161" y1="153.398" x2="340.645" y2="176.515" stroke-opacity="0.779"/>
<line x1="340.645" y1="176.515" x2="366.698" y2="152.167" stroke-opacity="0.780"/>
<line x1="443.557" y1="153.092" x2="481.464" y2="173.209" stroke-opacity="0.782"/>
<line x1="279.575" y1="185.151" x2="248.951" y2="128.788" stroke-opacity="0.793"/>
<line x1="481.464" y1="173.209" x2="508.083" y2="137.069" stroke-opacity="0.796"/>
<line x1="508.083" y1="137.069" x2="563.801" y2="172.428" stroke-opacity="0.797"/>
<line x1="423.937" y1="182.972" x2="397.496" y2="123.521" stroke-opacity="0.799"/>
<line x1="340.645" y1="176.515" x2="313.879" y2="121.140" stroke-opacity="0.807"/>
<line x1="227.438" y1="156.633" x2="248.951" y2="128.788" stroke-opacity="0.818"/>
<line x1="481.464" y1="173.209" x2="467.290" y2="111.182" stroke-opacity="0.819"/>
<line x1="248.951" y1="128.788" x2="295.161" y2="153.398" stroke-opacity="0.820"/>
<line x1="397.496" y1="123.521" x2="443.557" y2="153.092" stroke-opacity="0.825"/>
<line x1="366.698" y1="152.167" x2="397.496" y2="123.521" stroke-opacity="0.826"/>
<line x1="295.161" y1="153.398" x2="313.879" y2="121.140" stroke-opacity="0.827"/>
<line x1="313.879" y1="121.140" x2="366.698" y2="152.167" stroke-opacity="0.828"/>
<line x1="443.557" y1="153.092" x2="467.290" y2="111.182" stroke-opacity="0.836"/>
<line x1="467.290" y1="111.182" x2="508.083" y2="137.069" stroke-opacity="0.850"/>
<line x1="295.161" y1="153.398" x2="275.337" y2="94.636" stroke-opacity="0.850"/>
<line x1="443.557" y1="153.092" x2="429.224" y2="87.025" stroke-opacity="0.857"/>
<line x1="366.698" y1="152.167" x2="343.268" y2="84.695" stroke-opacity="0.860"/>
<line x1="248.951" y1="128.788" x2="275.337" y2="94.636" stroke-opacity="0.872"/>
<line x1="275.337" y1="94.636" x2="313.879" y2="121.140" stroke-opacity="0.879"/>
<line x1="397.496" y1="123.521" x2="429.224" y2="87.025" stroke-opacity="0.883"/>
<line x1="343.268" y1="84.695" x2="397.496" y2="123.521" stroke-opacity="0.885"/>
<line x1="313.879" y1="121.140" x2="343.268" y2="84.695" stroke-opacity="0.887"/>
<line x1="429.224" y1="87.025" x2="467.290" y2="111.182" stroke-opacity="0.894"/>
<line x1="397.496" y1="123.521" x2="375.530" y2="52.951" stroke-opacity="0.913"/>
<line x1="313.879" y1="121.140" x2="305.851" y2="55.140" stroke-opacity="0.913"/>
<line x1="275.337" y1="94.636" x2="305.851" y2="55.140" stroke-opacity="0.936"/>
<line x1="375.530" y1="52.951" x2="429.224" y2="87.025" stroke-opacity="0.945"/>
<line x1="305.851" y1="55.140" x2="343.268" y2="84.695" stroke-opacity="0.945"/>
<line x1="343.268" y1="84.695" x2="375.530" y2="52.951" stroke-opacity="0.947"/>
<line x1="343.268" y1="84.695" x2="329.910" y2="24.000" stroke-opacity="0.972"/>
<line x1="305.851" y1="55.140" x2="329.910" y2="24.000" stroke-opacity="0.998"/>
<line x1="329.910" y1="24.000" x2="375.530" y2="52.951" stroke-opacity="1.000"/>
</g>
</svg>
