<?xml version="1.0" encoding="UTF-8"?>
<svg xmlns="http://www.w3.org/2000/svg" width="900" height="450" viewBox="0 0 900 450" role="img" aria-label="PARALLELOGRAM8x5 grid">
<rect width="100%" height="100%" fill="#ffffff"/>
<title>PARALLELOGRAM8x5 grid</title>
<ellipse cx="450.000" cy="324.000" rx="288.000" ry="36.000" fill="#e5e7eb" opacity="0.55"/>
<g fill="none" stroke="#1f2937" stroke-width="0.8" stroke-linecap="round" stroke-linejoin="round">
<line x1="459.046" y1="426.000" x2="535.308" y2="396.293" stroke-opacity="0.350"/>
<line x1="409.121" y1="394.317" x2="459.046" y2="426.000" stroke-opacity="0.352"/>
<line x1="459.046" y1="426.000" x2="485.383" y2="364.610" stroke-opacity="0.378"/>
<line x1="535.308" y1="396.293" x2="611.571" y2="366.585" stroke-opacity="0.402"/>
<line x1="485.383" y1="364.610" x2="535.308" y2="396.293" stroke-opacity="0.404"/>
<line x1="409.121" y1="394.317" x2="485.383" y2="364.610" stroke-opacity="0.405"/>
<line x1="359.195" y1="362.634" x2="409.121" y2="394.317" stroke-opacity="0.407"/>
<line x1="535.308" y1="396.293" x2="561.645" y2="334.902" stroke-opacity="0.430"/>
<line x1="409.121" y1="394.317" x2="435.457" y2="332.927" stroke-opacity="0.433"/>
<line x1="611.571" y1="366.585" x2="687.833" y2="336.878" stroke-opacity="0.454"/>
<line x1="561.645" y1="334.902" x2="611.571" y2="366.585" stroke-opacity="0.455"/>
<line x1="485.383" y1="364.610" x2="561.645" y2="334.902" stroke-opacity="0.457"/>
<line x1="435.457" y1="332.927" x2="485.383" y2="364.610" stroke-opacity="0.459"/>
<line x1="359.195" y1="362.634" x2="435.457" y2="332.927" stroke-opacity="0.461"/>
<line x1="309.270" y1="330.951" x2="359.195" y2="362.634" stroke-opacity="0.462"/>
<line x1="611.571" y1="366.585" x2="637.907" y2="305.195" stroke-opacity="0.481"/>
<line x1="485.383" y1="364.610" x2="511.720" y2="303.219" stroke-opacity="0.485"/>
<line x1="359.195" y1="362.634" x2="385.532" y2="301.244" stroke-opacity="0.488"/>
<line x1="687.833" y1="336.878" x2="764.095" y2="307.170" stroke-opacity="0.506"/>
<line x1="637.907" y1="305.195" x2="687.833" y2="336.878" stroke-opacity="0.507"/>
<line x1="561.645" y1="334.902" x2="637.907" y2="305.195" stroke-opacity="0.509"/>
<line x1="511.720" y1="303.219" x2="561.645" y2="334.902" stroke-opacity="0.511"/>
<line x1="435.457" y1="332.927" x2="511.720" y2="303.219" stroke-opacity="0.512"/>
<line x1="385.532" y1="301.244" x2="435.457" y2="332.927" stroke-opacity="0.514"/>
<line x1="309.270" y1="330.951" x2="385.532" y2="301.244" stroke-opacity="0.516"/>
<line x1="259.344" y1="299.269" x2="309.270" y2="330.951" stroke-opacity="0.518"/>
<line x1="687.833" y1="336.878" x2="714.170" y2="275.487" stroke-opacity="0.533"/>
<line x1="561.645" y1="334.902" x2="587.982" y2="273.512" stroke-opacity="0.537"/>
<line x1="435.457" y1="332.927" x2="461.794" y2="271.537" stroke-opacity="0.540"/>
<line x1="309.270" y1="330.951" x2="335.607" y2="269.561" stroke-opacity="0.544"/>
<line x1="764.095" y1="307.170" x2="840.357" y2="277.463" stroke-opacity="0.557"/>
<line x1="714.170" y1="275.487" x2="764.095" y2="307.170" stroke-opacity="0.559"/>
<line x1="637.907" y1="305.195" x2="714.170" y2="275.487" stroke-opacity="0.561"/>
<line x1="587.982" y1="273.512" x2="637.907" y2="305.195" stroke-opacity="0.563"/>
<line x1="511.720" y1="303.219" x2="587.982" y2="273.512" stroke-opacity="0.564"/>
<line x1="461.794" y1="271.537" x2="511.720" y2="303.219" stroke-opacity="0.566"/>
<line x1="385.532" y1="301.244" x2="461.794" y2="271.537" stroke-opacity="0.568"/>
<line x1="335.607" y1="269.561" x2="385.532" y2="301.244" stroke-opacity="0.570"/>
<line x1="259.344" y1="299.269" x2="335.607" y2="269.561" stroke-opacity="0.571"/>
<line x1="209.419" y1="267.586" x2="259.344" y2="299.269" stroke-opacity="0.573"/>
<line x1="764.095" y1="307.170" x2="790.432" y2="245.780" stroke-opacity="0.585"/>
<line x1="637.907" y1="305.195" x2="664.244" y2="243.805" stroke-opacity="0.589"/>
<line x1="511.720" y1="303.219" x2="538.057" y2="241.829" stroke-opacity="0.592"/>
<line x1="385.532" y1="301.244" x2="411.869" y2="239.854" stroke-opacity="0.595"/>
<line x1="259.344" y1="299.269" x2="285.681" y2="237.878" stroke-opacity="0.599"/>
<line x1="790.432" y1="245.780" x2="840.357" y2="277.463" stroke-opacity="0.611"/>
<line x1="714.170" y1="275.487" x2="790.432" y2="245.780" stroke-opacity="0.613"/>
<line x1="664.244" y1="243.805" x2="714.170" y2="275.487" stroke-opacity="0.615"/>
<line x1="587.982" y1="273.512" x2="664.244" y2="243.805" stroke-opacity="0.616"/>
<line x1="538.057" y1="241.829" x2="587.982" y2="273.512" stroke-opacity="0.618"/>
<line x1="461.794" y1="271.537" x2="538.057" y2="241.829" stroke-opacity="0.620"/>
<line x1="411.869" y1="239.854" x2="461.794" y2="271.537" stroke-opacity="0.621"/>
<line x1="335.607" y1="269.561" x2="411.869" y2="239.854" stroke-opacity="0.623"/>
<line x1="285.681" y1="237.878" x2="335.607" y2="269.561" stroke-opacity="0.625"/>
<line x1="209.419" y1="267.586" x2="285.681" y2="237.878" stroke-opacity="0.627"/>
<line x1="159.493" y1="235.903" x2="209.419" y2="267.586" stroke-opacity="0.628"/>
<line x1="714.170" y1="275.487" x2="740.507" y2="214.097" stroke-opacity="0.640"/>
<line x1="587.982" y1="273.512" x2="614.319" y2="212.122" stroke-opacity="0.644"/>
<line x1="461.794" y1="271.537" x2="488.131" y2="210.146" stroke-opacity="0.647"/>
<line x1="335.607" y1="269.561" x2="361.943" y2="208.171" stroke-opacity="0.651"/>
<line x1="209.419" y1="267.586" x2="235.756" y2="206.195" stroke-opacity="0.654"/>
<line x1="740.507" y1="214.097" x2="790.432" y2="245.780" stroke-opacity="0.666"/>
<line x1="664.244" y1="243.805" x2="740.507" y2="214.097" stroke-opacity="0.668"/>
<line x1="614.319" y1="212.122" x2="664.244" y2="243.805" stroke-opacity="0.670"/>
<line x1="538.057" y1="241.829" x2="614.319" y2="212.122" stroke-opacity="0.672"/>
<line x1="488.131" y1="210.146" x2="538.057" y2="241.829" stroke-opacity="0.673"/>
<line x1="411.869" y1="239.854" x2="488.131" y2="210.146" stroke-opacity="0.675"/>
<line x1="361.943" y1="208.171" x2="411.869" y2="239.854" stroke-opacity="0.677"/>
<line x1="285.681" y1="237.878" x2="361.943" y2="208.171" stroke-opacity="0.678"/>
<line x1="235.756" y1="206.195" x2="285.681" y2="237.878" stroke-opacity="0.680"/>
<line x1="159.493" y1="235.903" x2="235.756" y2="206.195" stroke-opacity="0.682"/>
<line x1="109.568" y1="204.220" x2="159.493" y2="235.903" stroke-opacity="0.684"/>
<line x1="664.244" y1="243.805" x2="690.581" y2="182.414" stroke-opacity="0.696"/>
<line x1="538.057" y1="241.829" x2="564.393" y2="180.439" stroke-opacity="0.699"/>
<line x1="411.869" y1="239.854" x2="438.206" y2="178.463" stroke-opacity="0.703"/>
<line x1="285.681" y1="237.878" x2="312.018" y2="176.488" stroke-opacity="0.706"/>
<line x1="159.493" y1="235.903" x2="185.830" y2="174.513" stroke-opacity="0.710"/>
<line x1="690.581" y1="182.414" x2="740.507" y2="214.097" stroke-opacity="0.722"/>
<line x1="614.319" y1="212.122" x2="690.581" y2="182.414" stroke-opacity="0.723"/>
<line x1="564.393" y1="180.439" x2="614.319" y2="212.122" stroke-opacity="0.725"/>
<line x1="488.131" y1="210.146" x2="564.393" y2="180.439" stroke-opacity="0.727"/>
<line x1="438.206" y1="178.463" x2="488.131" y2="210.146" stroke-opacity="0.729"/>
<line x1="361.943" y1="208.171" x2="438.206" y2="178.463" stroke-opacity="0.730"/>
<line x1="312.018" y1="176.488" x2="361.943" y2="208.171" stroke-opacity="0.732"/>
<line x1="235.756" y1="206.195" x2="312.018" y2="176.488" stroke-opacity="0.734"/>
<line x1="185.830" y1="174.513" x2="235.756" y2="206.195" stroke-opacity="0.735"/>
<line x1="109.568" y1="204.220" x2="185.830" y2="174.513" stroke-opacity="0.737"/>
<line x1="59.643" y1="172.537" x2="109.568" y2="204.220" stroke-opacity="0.739"/>
<line x1="614.319" y1="212.122" x2="640.656" y2="150.731" stroke-opacity="0.751"/>
<line x1="488.131" y1="210.146" x2="514.468" y2="148.756" stroke-opacity="0.755"/>
<line x1="361.943" y1="208.171" x2="388.280" y2="146.781" stroke-opacity="0.758"/>
<line x1="235.756" y1="206.195" x2="262.093" y2="144.805" stroke-opacity="0.761"/>
<line x1="109.568" y1="204.220" x2="135.905" y2="142.830" stroke-opacity="0.765"/>
<line x1="640.656" y1="150.731" x2="690.581" y2="182.414" stroke-opacity="0.777"/>
<line x1="564.393" y1="180.439" x2="640.656" y2="150.731" stroke-opacity="0.779"/>
<line x1="514.468" y1="148.756" x2="564.393" y2="180.439" stroke-opacity="0.780"/>
<line x1="438.206" y1="178.463" x2="514.468" y2="148.756" stroke-opacity="0.782"/>
<line x1="388.280" y1="146.781" x2="438.206" y2="178.463" stroke-opacity="0.784"/>
<line x1="312.018" y1="176.488" x2="388.280" y2="146.781" stroke-opacity="0.786"/>
<line x1="262.093" y1="144.805" x2="312.018" y2="176.488" stroke-opacity="0.787"/>
<line x1="185.830" y1="174.513" x2="262.093" y2="144.805" stroke-opacity="0.789"/>
<line x1="135.905" y1="142.830" x2="185.830" y2="174.513" stroke-opacity="0.791"/>
<line x1="59.643" y1="172.537" x2="135.905" y2="142.830" stroke-opacity="0.793"/>
<line x1="564.393" y1="180.439" x2="590.730" y2="119.049" stroke-opacity="0.806"/>
<line x1="438.206" y1="178.463" x2="464.543" y2="117.073" stroke-opacity="0.810"/>
<line x1="312.018" y1="176.488" x2="338.355" y2="115.098" stroke-opacity="0.813"/>
<line x1="185.830" y1="174.513" x2="212.167" y2="113.122" stroke-opacity="0.817"/>
<line x1="590.730" y1="119.049" x2="640.656" y2="150.731" stroke-opacity="0.832"/>
<line x1="514.468" y1="148.756" x2="590.730" y2="119.049" stroke-opacity="0.834"/>
<line x1="464.543" y1="117.073" x2="514.468" y2="148.756" stroke-opacity="0.836"/>
<line x1="388.280" y1="146.781" x2="464.543" y2="117.073" stroke-opacity="0.837"/>
<line x1="338.355" y1="115.098" x2="388.280" y2="146.781" stroke-opacity="0.839"/>
<line x1="262.093" y1="144.805" x2="338.355" y2="115.098" stroke-opacity="0.841"/>
<line x1="212.167" y1="113.122" x2="262.093" y2="144.805" stroke-opacity="0.843"/>
<line x1="135.905" y1="142.830" x2="212.167" y2="113.122" stroke-opacity="0.844"/>
<line x1="514.468" y1="148.756" x2="540.805" y2="87.366" stroke-opacity="0.862"/>
<line x1="388.280" y1="146.781" x2="414.617" y2="85.390" stroke-opacity="0.865"/>
<line x1="262.093" y1="144.805" x2="288.429" y2="83.415" stroke-opacity="0.869"/>
<line x1="540.805" y1="87.366" x2="590.730" y2="119.049" stroke-opacity="0.888"/>
<line x1="464.543" y1="117.073" x2="540.805" y2="87.366" stroke-opacity="0.889"/>
<line x1="414.617" y1="85.390" x2="464.543" y2="117.073" stroke-opacity="0.891"/>
<line x1="338.355" y1="115.098" x2="414.617" y2="85.390" stroke-opacity="0.893"/>
<line x1="288.429" y1="83.415" x2="338.355" y2="115.098" stroke-opacity="0.895"/>
<line x1="212.167" y1="113.122" x2="288.429" y2="83.415" stroke-opacity="0.896"/>
<line x1="464.543" y1="117.073" x2="490.879" y2="55.683" stroke-opacity="0.917"/>
<line x1="338.355" y1="115.098" x2="364.692" y2="53.707" stroke-opacity="0.920"/>
<line x1="490.879" y1="55.683" x2="540.805" y2="87.366" stroke-opacity="0.943"/>
<line x1="414.617" y1="85.390" x2="490.879" y2="55.683" stroke-opacity="0.945"/>
<line x1="364.692" y1="53.707" x2="414.617" y2="85.390" stroke-opacity="0.946"/>
<line x1="288.429" y1="83.415" x2="364.692" y2="53.707" stroke-opacity="0.948"/>
<line x1="414.617" y1="85.390" x2="440.954" y2="24.000" stroke-opacity="0.972"/>
<line x1="440.954" y1="24.000" x2="490.879" y2="55.683" stroke-opacity="0.998"/>
<line x1="364.692" y1="53.707" x2="440.954" y2="24.000" stroke-opacity="1.000"/>
</g>
</svg>
