<?xml version="1.0" encoding="UTF-8"?>
<svg xmlns="http://www.w3.org/2000/svg" width="900" height="450" viewBox="0 0 900 450" role="img" aria-label="CHANNEL8x5 grid">
<rect width="100%" height="100%" fill="#ffffff"/>
<title>CHANNEL8x5 grid</title>
<ellipse cx="450.000" cy="324.000" rx="288.000" ry="36.000" fill="#e5e7eb" opacity="0.55"/>
<g fill="none" stroke="#1f2937" stroke-width="0.8" stroke-linecap="round" stroke-linejoin="round">
<line x1="482.955" y1="426.000" x2="548.369" y2="395.477" stroke-opacity="0.350"/>
<line x1="426.815" y1="390.373" x2="482.955" y2="426.000" stroke-opacity="0.354"/>
<line x1="482.955" y1="426.000" x2="492.229" y2="359.851" stroke-opacity="0.381"/>
<line x1="548.369" y1="395.477" x2="613.783" y2="364.954" stroke-opacity="0.403"/>
<line x1="492.229" y1="359.851" x2="548.369" y2="395.477" stroke-opacity="0.408"/>
<line x1="426.815" y1="390.373" x2="492.229" y2="359.851" stroke-opacity="0.412"/>
<line x1="370.675" y1="354.747" x2="426.815" y2="390.373" stroke-opacity="0.417"/>
<line x1="548.369" y1="395.477" x2="557.643" y2="329.328" stroke-opacity="0.435"/>
<line x1="426.815" y1="390.373" x2="436.089" y2="324.224" stroke-opacity="0.444"/>
<line x1="613.783" y1="364.954" x2="679.197" y2="334.432" stroke-opacity="0.457"/>
<line x1="557.643" y1="329.328" x2="613.783" y2="364.954" stroke-opacity="0.461"/>
<line x1="492.229" y1="359.851" x2="557.643" y2="329.328" stroke-opacity="0.466"/>
<line x1="436.089" y1="324.224" x2="492.229" y2="359.851" stroke-opacity="0.470"/>
<line x1="370.675" y1="354.747" x2="436.089" y2="324.224" stroke-opacity="0.475"/>
<line x1="314.535" y1="319.120" x2="370.675" y2="354.747" stroke-opacity="0.479"/>
<line x1="613.783" y1="364.954" x2="623.057" y2="298.805" stroke-opacity="0.488"/>
<line x1="492.229" y1="359.851" x2="501.503" y2="293.701" stroke-opacity="0.497"/>
<line x1="370.675" y1="354.747" x2="379.949" y2="288.597" stroke-opacity="0.506"/>
<line x1="679.197" y1="334.432" x2="744.611" y2="303.909" stroke-opacity="0.510"/>
<line x1="623.057" y1="298.805" x2="679.197" y2="334.432" stroke-opacity="0.515"/>
<line x1="557.643" y1="329.328" x2="623.057" y2="298.805" stroke-opacity="0.519"/>
<line x1="501.503" y1="293.701" x2="557.643" y2="329.328" stroke-opacity="0.524"/>
<line x1="436.089" y1="324.224" x2="501.503" y2="293.701" stroke-opacity="0.528"/>
<line x1="379.949" y1="288.597" x2="436.089" y2="324.224" stroke-opacity="0.533"/>
<line x1="314.535" y1="319.120" x2="379.949" y2="288.597" stroke-opacity="0.537"/>
<line x1="679.197" y1="334.432" x2="688.471" y2="268.282" stroke-opacity="0.541"/>
<line x1="258.395" y1="283.494" x2="314.535" y2="319.120" stroke-opacity="0.541"/>
<line x1="89.975" y1="176.614" x2="482.955" y2="426.000" stroke-opacity="0.541"/>
<line x1="557.643" y1="329.328" x2="566.917" y2="263.179" stroke-opacity="0.550"/>
<line x1="436.089" y1="324.224" x2="445.363" y2="258.075" stroke-opacity="0.559"/>
<line x1="744.611" y1="303.909" x2="810.025" y2="273.386" stroke-opacity="0.564"/>
<line x1="688.471" y1="268.282" x2="744.611" y2="303.909" stroke-opacity="0.568"/>
<line x1="314.535" y1="319.120" x2="323.809" y2="252.971" stroke-opacity="0.568"/>
<line x1="89.975" y1="176.614" x2="548.369" y2="395.477" stroke-opacity="0.568"/>
<line x1="623.057" y1="298.805" x2="688.471" y2="268.282" stroke-opacity="0.573"/>
<line x1="566.917" y1="263.179" x2="623.057" y2="298.805" stroke-opacity="0.577"/>
<line x1="501.503" y1="293.701" x2="566.917" y2="263.179" stroke-opacity="0.581"/>
<line x1="445.363" y1="258.075" x2="501.503" y2="293.701" stroke-opacity="0.586"/>
<line x1="379.949" y1="288.597" x2="445.363" y2="258.075" stroke-opacity="0.590"/>
<line x1="744.611" y1="303.909" x2="753.885" y2="237.760" stroke-opacity="0.595"/>
<line x1="155.389" y1="146.091" x2="548.369" y2="395.477" stroke-opacity="0.595"/>
<line x1="323.809" y1="252.971" x2="379.949" y2="288.597" stroke-opacity="0.595"/>
<line x1="258.395" y1="283.494" x2="323.809" y2="252.971" stroke-opacity="0.599"/>
<line x1="623.057" y1="298.805" x2="632.331" y2="232.656" stroke-opacity="0.604"/>
<line x1="202.255" y1="247.867" x2="258.395" y2="283.494" stroke-opacity="0.604"/>
<line x1="501.503" y1="293.701" x2="510.777" y2="227.552" stroke-opacity="0.613"/>
<line x1="753.885" y1="237.760" x2="810.025" y2="273.386" stroke-opacity="0.622"/>
<line x1="379.949" y1="288.597" x2="389.223" y2="222.448" stroke-opacity="0.622"/>
<line x1="155.389" y1="146.091" x2="613.783" y2="364.954" stroke-opacity="0.622"/>
<line x1="688.471" y1="268.282" x2="753.885" y2="237.760" stroke-opacity="0.626"/>
<line x1="632.331" y1="232.656" x2="688.471" y2="268.282" stroke-opacity="0.630"/>
<line x1="258.395" y1="283.494" x2="267.669" y2="217.344" stroke-opacity="0.631"/>
<line x1="566.917" y1="263.179" x2="632.331" y2="232.656" stroke-opacity="0.635"/>
<line x1="510.777" y1="227.552" x2="566.917" y2="263.179" stroke-opacity="0.639"/>
<line x1="445.363" y1="258.075" x2="510.777" y2="227.552" stroke-opacity="0.644"/>
<line x1="220.803" y1="115.568" x2="613.783" y2="364.954" stroke-opacity="0.648"/>
<line x1="389.223" y1="222.448" x2="445.363" y2="258.075" stroke-opacity="0.648"/>
<line x1="323.809" y1="252.971" x2="389.223" y2="222.448" stroke-opacity="0.653"/>
<line x1="688.471" y1="268.282" x2="697.745" y2="202.133" stroke-opacity="0.657"/>
<line x1="267.669" y1="217.344" x2="323.809" y2="252.971" stroke-opacity="0.657"/>
<line x1="202.255" y1="247.867" x2="267.669" y2="217.344" stroke-opacity="0.662"/>
<line x1="566.917" y1="263.179" x2="576.191" y2="197.029" stroke-opacity="0.666"/>
<line x1="146.115" y1="212.240" x2="202.255" y2="247.867" stroke-opacity="0.666"/>
<line x1="220.803" y1="115.568" x2="679.197" y2="334.432" stroke-opacity="0.675"/>
<line x1="445.363" y1="258.075" x2="454.637" y2="191.925" stroke-opacity="0.675"/>
<line x1="697.745" y1="202.133" x2="753.885" y2="237.760" stroke-opacity="0.684"/>
<line x1="323.809" y1="252.971" x2="333.083" y2="186.821" stroke-opacity="0.684"/>
<line x1="632.331" y1="232.656" x2="697.745" y2="202.133" stroke-opacity="0.688"/>
<line x1="576.191" y1="197.029" x2="632.331" y2="232.656" stroke-opacity="0.693"/>
<line x1="202.255" y1="247.867" x2="211.529" y2="181.718" stroke-opacity="0.693"/>
<line x1="510.777" y1="227.552" x2="576.191" y2="197.029" stroke-opacity="0.697"/>
<line x1="286.217" y1="85.046" x2="679.197" y2="334.432" stroke-opacity="0.702"/>
<line x1="454.637" y1="191.925" x2="510.777" y2="227.552" stroke-opacity="0.702"/>
<line x1="389.223" y1="222.448" x2="454.637" y2="191.925" stroke-opacity="0.706"/>
<line x1="333.083" y1="186.821" x2="389.223" y2="222.448" stroke-opacity="0.711"/>
<line x1="267.669" y1="217.344" x2="333.083" y2="186.821" stroke-opacity="0.715"/>
<line x1="632.331" y1="232.656" x2="641.605" y2="166.506" stroke-opacity="0.719"/>
<line x1="211.529" y1="181.718" x2="267.669" y2="217.344" stroke-opacity="0.720"/>
<line x1="146.115" y1="212.240" x2="211.529" y2="181.718" stroke-opacity="0.724"/>
<line x1="286.217" y1="85.046" x2="744.611" y2="303.909" stroke-opacity="0.728"/>
<line x1="510.777" y1="227.552" x2="520.051" y2="161.403" stroke-opacity="0.728"/>
<line x1="89.975" y1="176.614" x2="146.115" y2="212.240" stroke-opacity="0.728"/>
<line x1="389.223" y1="222.448" x2="398.497" y2="156.299" stroke-opacity="0.737"/>
<line x1="641.605" y1="166.506" x2="697.745" y2="202.133" stroke-opacity="0.746"/>
<line x1="267.669" y1="217.344" x2="276.943" y2="151.195" stroke-opacity="0.746"/>
<line x1="576.191" y1="197.029" x2="641.605" y2="166.506" stroke-opacity="0.751"/>
<line x1="351.631" y1="54.523" x2="744.611" y2="303.909" stroke-opacity="0.755"/>
<line x1="520.051" y1="161.403" x2="576.191" y2="197.029" stroke-opacity="0.755"/>
<line x1="146.115" y1="212.240" x2="155.389" y2="146.091" stroke-opacity="0.755"/>
<line x1="454.637" y1="191.925" x2="520.051" y2="161.403" stroke-opacity="0.760"/>
<line x1="398.497" y1="156.299" x2="454.637" y2="191.925" stroke-opacity="0.764"/>
<line x1="333.083" y1="186.821" x2="398.497" y2="156.299" stroke-opacity="0.769"/>
<line x1="276.943" y1="151.195" x2="333.083" y2="186.821" stroke-opacity="0.773"/>
<line x1="211.529" y1="181.718" x2="276.943" y2="151.195" stroke-opacity="0.777"/>
<line x1="351.631" y1="54.523" x2="810.025" y2="273.386" stroke-opacity="0.782"/>
<line x1="576.191" y1="197.029" x2="585.465" y2="130.880" stroke-opacity="0.782"/>
<line x1="155.389" y1="146.091" x2="211.529" y2="181.718" stroke-opacity="0.782"/>
<line x1="89.975" y1="176.614" x2="155.389" y2="146.091" stroke-opacity="0.786"/>
<line x1="454.637" y1="191.925" x2="463.911" y2="125.776" stroke-opacity="0.791"/>
<line x1="333.083" y1="186.821" x2="342.357" y2="120.672" stroke-opacity="0.800"/>
<line x1="585.465" y1="130.880" x2="641.605" y2="166.506" stroke-opacity="0.809"/>
<line x1="417.045" y1="24.000" x2="810.025" y2="273.386" stroke-opacity="0.809"/>
<line x1="211.529" y1="181.718" x2="220.803" y2="115.568" stroke-opacity="0.809"/>
<line x1="520.051" y1="161.403" x2="585.465" y2="130.880" stroke-opacity="0.813"/>
<line x1="463.911" y1="125.776" x2="520.051" y2="161.403" stroke-opacity="0.817"/>
<line x1="398.497" y1="156.299" x2="463.911" y2="125.776" stroke-opacity="0.822"/>
<line x1="342.357" y1="120.672" x2="398.497" y2="156.299" stroke-opacity="0.826"/>
<line x1="276.943" y1="151.195" x2="342.357" y2="120.672" stroke-opacity="0.831"/>
<line x1="220.803" y1="115.568" x2="276.943" y2="151.195" stroke-opacity="0.835"/>
<line x1="155.389" y1="146.091" x2="220.803" y2="115.568" stroke-opacity="0.840"/>
<line x1="520.051" y1="161.403" x2="529.325" y2="95.253" stroke-opacity="0.844"/>
<line x1="398.497" y1="156.299" x2="407.771" y2="90.149" stroke-opacity="0.853"/>
<line x1="276.943" y1="151.195" x2="286.217" y2="85.046" stroke-opacity="0.862"/>
<line x1="529.325" y1="95.253" x2="585.465" y2="130.880" stroke-opacity="0.871"/>
<line x1="463.911" y1="125.776" x2="529.325" y2="95.253" stroke-opacity="0.875"/>
<line x1="407.771" y1="90.149" x2="463.911" y2="125.776" stroke-opacity="0.880"/>
<line x1="342.357" y1="120.672" x2="407.771" y2="90.149" stroke-opacity="0.884"/>
<line x1="286.217" y1="85.046" x2="342.357" y2="120.672" stroke-opacity="0.889"/>
<line x1="220.803" y1="115.568" x2="286.217" y2="85.046" stroke-opacity="0.893"/>
<line x1="463.911" y1="125.776" x2="473.185" y2="59.627" stroke-opacity="0.906"/>
<line x1="342.357" y1="120.672" x2="351.631" y2="54.523" stroke-opacity="0.915"/>
<line x1="473.185" y1="59.627" x2="529.325" y2="95.253" stroke-opacity="0.933"/>
<line x1="407.771" y1="90.149" x2="473.185" y2="59.627" stroke-opacity="0.938"/>
<line x1="351.631" y1="54.523" x2="407.771" y2="90.149" stroke-opacity="0.942"/>
<line x1="286.217" y1="85.046" x2="351.631" y2="54.523" stroke-opacity="0.947"/>
<line x1="407.771" y1="90.149" x2="417.045" y2="24.000" stroke-opacity="0.969"/>
<line x1="417.045" y1="24.000" x2="473.185" y2="59.627" stroke-opacity="0.996"/>
<line x1="351.631" y1="54.523" x2="417.045" y2="24.000" stroke-opacity="1.000"/>
</g>
</svg>
