<?xml version="1.0" encoding="UTF-8"?>
<svg xmlns="http://www.w3.org/2000/svg" width="900" height="450" viewBox="0 0 900 450" role="img" aria-label="TORUS12x6 grid">
<rect width="100%" height="100%" fill="#ffffff"/>
<title>TORUS12x6 grid</title>
<g fill="none" stroke="#1f2937" stroke-width="0.8" stroke-linecap="round" stroke-linejoin="round">
<line x1="91.478" y1="413.696" x2="16.000" y2="413.696"/>
<line x1="53.739" y1="338.217" x2="91.478" y2="413.696"/>
<line x1="16.000" y1="413.696" x2="53.739" y2="338.217"/>
<line x1="280.174" y1="36.304" x2="16.000" y2="413.696"/>
<line x1="91.478" y1="413.696" x2="280.174" y2="36.304"/>
<line x1="166.957" y1="413.696" x2="91.478" y2="413.696"/>
<line x1="129.217" y1="338.217" x2="166.957" y2="413.696"/>
<line x1="91.478" y1="413.696" x2="129.217" y2="338.217"/>
<line x1="355.652" y1="36.304" x2="91.478" y2="413.696"/>
<line x1="166.957" y1="413.696" x2="355.652" y2="36.304"/>
<line x1="242.435" y1="413.696" x2="166.957" y2="413.696"/>
<line x1="204.696" y1="338.217" x2="242.435" y2="413.696"/>
<line x1="166.957" y1="413.696" x2="204.696" y2="338.217"/>
<line x1="431.130" y1="36.304" x2="166.957" y2="413.696"/>
<line x1="242.435" y1="413.696" x2="431.130" y2="36.304"/>
<line x1="317.913" y1="413.696" x2="242.435" y2="413.696"/>
<line x1="280.174" y1="338.217" x2="317.913" y2="413.696"/>
<line x1="242.435" y1="413.696" x2="280.174" y2="338.217"/>
<line x1="506.609" y1="36.304" x2="242.435" y2="413.696"/>
<line x1="317.913" y1="413.696" x2="506.609" y2="36.304"/>
<line x1="393.391" y1="413.696" x2="317.913" y2="413.696"/>
<line x1="355.652" y1="338.217" x2="393.391" y2="413.696"/>
<line x1="317.913" y1="413.696" x2="355.652" y2="338.217"/>
<line x1="582.087" y1="36.304" x2="317.913" y2="413.696"/>
<line x1="393.391" y1="413.696" x2="582.087" y2="36.304"/>
<line x1="468.870" y1="413.696" x2="393.391" y2="413.696"/>
<line x1="431.130" y1="338.217" x2="468.870" y2="413.696"/>
<line x1="393.391" y1="413.696" x2="431.130" y2="338.217"/>
<line x1="657.565" y1="36.304" x2="393.391" y2="413.696"/>
<line x1="468.870" y1="413.696" x2="657.565" y2="36.304"/>
<line x1="544.348" y1="413.696" x2="468.870" y2="413.696"/>
<line x1="506.609" y1="338.217" x2="544.348" y2="413.696"/>
<line x1="468.870" y1="413.696" x2="506.609" y2="338.217"/>
<line x1="733.043" y1="36.304" x2="468.870" y2="413.696"/>
<line x1="544.348" y1="413.696" x2="733.043" y2="36.304"/>
<line x1="619.826" y1="413.696" x2="544.348" y2="413.696"/>
<line x1="582.087" y1="338.217" x2="619.826" y2="413.696"/>
<line x1="544.348" y1="413.696" x2="582.087" y2="338.217"/>
<line x1="808.522" y1="36.304" x2="544.348" y2="413.696"/>
<line x1="619.826" y1="413.696" x2="808.522" y2="36.304"/>
<line x1="695.304" y1="413.696" x2="619.826" y2="413.696"/>
<line x1="657.565" y1="338.217" x2="695.304" y2="413.696"/>
<line x1="619.826" y1="413.696" x2="657.565" y2="338.217"/>
<line x1="884.000" y1="36.304" x2="619.826" y2="413.696"/>
<line x1="695.304" y1="413.696" x2="884.000" y2="36.304"/>
<line x1="770.783" y1="413.696" x2="695.304" y2="413.696"/>
<line x1="733.043" y1="338.217" x2="770.783" y2="413.696"/>
<line x1="695.304" y1="413.696" x2="733.043" y2="338.217"/>
<line x1="53.739" y1="36.304" x2="695.304" y2="413.696"/>
<line x1="770.783" y1="413.696" x2="53.739" y2="36.304"/>
<line x1="846.261" y1="413.696" x2="770.783" y2="413.696"/>
<line x1="808.522" y1="338.217" x2="846.261" y2="413.696"/>
<line x1="770.783" y1="413.696" x2="808.522" y2="338.217"/>
<line x1="129.217" y1="36.304" x2="770.783" y2="413.696"/>
<line x1="846.261" y1="413.696" x2="129.217" y2="36.304"/>
<line x1="16.000" y1="413.696" x2="846.261" y2="413.696"/>
<line x1="884.000" y1="338.217" x2="16.000" y2="413.696"/>
<line x1="846.261" y1="413.696" x2="884.000" y2="338.217"/>
<line x1="204.696" y1="36.304" x2="846.261" y2="413.696"/>
<line x1="16.000" y1="413.696" x2="204.696" y2="36.304"/>
<line x1="129.217" y1="338.217" x2="53.739" y2="338.217"/>
<line x1="91.478" y1="262.739" x2="129.217" y2="338.217"/>
<line x1="53.739" y1="338.217" x2="91.478" y2="262.739"/>
<line x1="204.696" y1="338.217" x2="129.217" y2="338.217"/>
<line x1="166.957" y1="262.739" x2="204.696" y2="338.217"/>
<line x1="129.217" y1="338.217" x2="166.957" y2="262.739"/>
<line x1="280.174" y1="338.217" x2="204.696" y2="338.217"/>
<line x1="242.435" y1="262.739" x2="280.174" y2="338.217"/>
<line x1="204.696" y1="338.217" x2="242.435" y2="262.739"/>
<line x1="355.652" y1="338.217" x2="280.174" y2="338.217"/>
<line x1="317.913" y1="262.739" x2="355.652" y2="338.217"/>
<line x1="280.174" y1="338.217" x2="317.913" y2="262.739"/>
<line x1="431.130" y1="338.217" x2="355.652" y2="338.217"/>
<line x1="393.391" y1="262.739" x2="431.130" y2="338.217"/>
<line x1="355.652" y1="338.217" x2="393.391" y2="262.739"/>
<line x1="506.609" y1="338.217" x2="431.130" y2="338.217"/>
<line x1="468.870" y1="262.739" x2="506.609" y2="338.217"/>
<line x1="431.130" y1="338.217" x2="468.870" y2="262.739"/>
<line x1="582.087" y1="338.217" x2="506.609" y2="338.217"/>
<line x1="544.348" y1="262.739" x2="582.087" y2="338.217"/>
<line x1="506.609" y1="338.217" x2="544.348" y2="262.739"/>
<line x1="657.565" y1="338.217" x2="582.087" y2="338.217"/>
<line x1="619.826" y1="262.739" x2="657.565" y2="338.217"/>
<line x1="582.087" y1="338.217" x2="619.826" y2="262.739"/>
<line x1="733.043" y1="338.217" x2="657.565" y2="338.217"/>
<line x1="695.304" y1="262.739" x2="733.043" y2="338.217"/>
<line x1="657.565" y1="338.217" x2="695.304" y2="262.739"/>
<line x1="808.522" y1="338.217" x2="733.043" y2="338.217"/>
<line x1="770.783" y1="262.739" x2="808.522" y2="338.217"/>
<line x1="733.043" y1="338.217" x2="770.783" y2="262.739"/>
<line x1="884.000" y1="338.217" x2="808.522" y2="338.217"/>
<line x1="846.261" y1="262.739" x2="884.000" y2="338.217"/>
<line x1="808.522" y1="338.217" x2="846.261" y2="262.739"/>
<line x1="53.739" y1="338.217" x2="884.000" y2="338.217"/>
<line x1="16.000" y1="262.739" x2="53.739" y2="338.217"/>
<line x1="884.000" y1="338.217" x2="16.000" y2="262.739"/>
<line x1="166.957" y1="262.739" x2="91.478" y2="262.739"/>
<line x1="129.217" y1="187.261" x2="166.957" y2="262.739"/>
<line x1="91.478" y1="262.739" x2="129.217" y2="187.261"/>
<line x1="242.435" y1="262.739" x2="166.957" y2="262.739"/>
<line x1="204.696" y1="187.261" x2="242.435" y2="262.739"/>
<line x1="166.957" y1="262.739" x2="204.696" y2="187.261"/>
<line x1="317.913" y1="262.739" x2="242.435" y2="262.739"/>
<line x1="280.174" y1="187.261" x2="317.913" y2="262.739"/>
<line x1="242.435" y1="262.739" x2="280.174" y2="187.261"/>
<line x1="393.391" y1="262.739" x2="317.913" y2="262.739"/>
<line x1="355.652" y1="187.261" x2="393.391" y2="262.739"/>
<line x1="317.913" y1="262.739" x2="355.652" y2="187.261"/>
<line x1="468.870" y1="262.739" x2="393.391" y2="262.739"/>
<line x1="431.130" y1="187.261" x2="468.870" y2="262.739"/>
<line x1="393.391" y1="262.739" x2="431.130" y2="187.261"/>
<line x1="544.348" y1="262.739" x2="468.870" y2="262.739"/>
<line x1="506.609" y1="187.261" x2="544.348" y2="262.739"/>
<line x1="468.870" y1="262.739" x2="506.609" y2="187.261"/>
<line x1="619.826" y1="262.739" x2="544.348" y2="262.739"/>
<line x1="582.087" y1="187.261" x2="619.826" y2="262.739"/>
<line x1="544.348" y1="262.739" x2="582.087" y2="187.261"/>
<line x1="695.304" y1="262.739" x2="619.826" y2="262.739"/>
<line x1="657.565" y1="187.261" x2="695.304" y2="262.739"/>
<line x1="619.826" y1="262.739" x2="657.565" y2="187.261"/>
<line x1="770.783" y1="262.739" x2="695.304" y2="262.739"/>
<line x1="733.043" y1="187.261" x2="770.783" y2="262.739"/>
<line x1="695.304" y1="262.739" x2="733.043" y2="187.261"/>
<line x1="846.261" y1="262.739" x2="770.783" y2="262.739"/>
<line x1="808.522" y1="187.261" x2="846.261" y2="262.739"/>
<line x1="770.783" y1="262.739" x2="808.522" y2="187.261"/>
<line x1="16.000" y1="262.739" x2="846.261" y2="262.739"/>
<line x1="884.000" y1="187.261" x2="16.000" y2="262.739"/>
<line x1="846.261" y1="262.739" x2="884.000" y2="187.261"/>
<line x1="91.478" y1="262.739" x2="16.000" y2="262.739"/>
<line x1="53.739" y1="187.261" x2="91.478" y2="262.739"/>
<line x1="16.000" y1="262.739" x2="53.739" y2="187.261"/>
<line x1="204.696" y1="187.261" x2="129.217" y2="187.261"/>
<line x1="166.957" y1="111.783" x2="204.696" y2="187.261"/>
<line x1="129.217" y1="187.261" x2="166.957" y2="111.783"/>
<line x1="280.174" y1="187.261" x2="204.696" y2="187.261"/>
<line x1="242.435" y1="111.783" x2="280.174" y2="187.261"/>
<line x1="204.696" y1="187.261" x2="242.435" y2="111.783"/>
<line x1="355.652" y1="187.261" x2="280.174" y2="187.261"/>
<line x1="317.913" y1="111.783" x2="355.652" y2="187.261"/>
<line x1="280.174" y1="187.261" x2="317.913" y2="111.783"/>
<line x1="431.130" y1="187.261" x2="355.652" y2="187.261"/>
<line x1="393.391" y1="111.783" x2="431.130" y2="187.261"/>
<line x1="355.652" y1="187.261" x2="393.391" y2="111.783"/>
<line x1="506.609" y1="187.261" x2="431.130" y2="187.261"/>
<line x1="468.870" y1="111.783" x2="506.609" y2="187.261"/>
<line x1="431.130" y1="187.261" x2="468.870" y2="111.783"/>
<line x1="582.087" y1="187.261" x2="506.609" y2="187.261"/>
<line x1="544.348" y1="111.783" x2="582.087" y2="187.261"/>
<line x1="506.609" y1="187.261" x2="544.348" y2="111.783"/>
<line x1="657.565" y1="187.261" x2="582.087" y2="187.261"/>
<line x1="619.826" y1="111.783" x2="657.565" y2="187.261"/>
<line x1="582.087" y1="187.261" x2="619.826" y2="111.783"/>
<line x1="733.043" y1="187.261" x2="657.565" y2="187.261"/>
<line x1="695.304" y1="111.783" x2="733.043" y2="187.261"/>
<line x1="657.565" y1="187.261" x2="695.304" y2="111.783"/>
<line x1="808.522" y1="187.261" x2="733.043" y2="187.261"/>
<line x1="770.783" y1="111.783" x2="808.522" y2="187.261"/>
<line x1="733.043" y1="187.261" x2="770.783" y2="111.783"/>
<line x1="884.000" y1="187.261" x2="808.522" y2="187.261"/>
<line x1="846.261" y1="111.783" x2="884.000" y2="187.261"/>
<line x1="808.522" y1="187.261" x2="846.261" y2="111.783"/>
<line x1="53.739" y1="187.261" x2="884.000" y2="187.261"/>
<line x1="16.000" y1="111.783" x2="53.739" y2="187.261"/>
<line x1="884.000" y1="187.261" x2="16.000" y2="111.783"/>
<line x1="129.217" y1="187.261" x2="53.739" y2="187.261"/>
<line x1="91.478" y1="111.783" x2="129.217" y2="187.261"/>
<line x1="53.739" y1="187.261" x2="91.478" y2="111.783"/>
<line x1="242.435" y1="111.783" x2="166.957" y2="111.783"/>
<line x1="204.696" y1="36.304" x2="242.435" y2="111.783"/>
<line x1="166.957" y1="111.783" x2="204.696" y2="36.304"/>
<line x1="317.913" y1="111.783" x2="242.435" y2="111.783"/>
<line x1="280.174" y1="36.304" x2="317.913" y2="111.783"/>
<line x1="242.435" y1="111.783" x2="280.174" y2="36.304"/>
<line x1="393.391" y1="111.783" x2="317.913" y2="111.783"/>
<line x1="355.652" y1="36.304" x2="393.391" y2="111.783"/>
<line x1="317.913" y1="111.783" x2="355.652" y2="36.304"/>
<line x1="468.870" y1="111.783" x2="393.391" y2="111.783"/>
<line x1="431.130" y1="36.304" x2="468.870" y2="111.783"/>
<line x1="393.391" y1="111.783" x2="431.130" y2="36.304"/>
<line x1="544.348" y1="111.783" x2="468.870" y2="111.783"/>
<line x1="506.609" y1="36.304" x2="544.348" y2="111.783"/>
<line x1="468.870" y1="111.783" x2="506.609" y2="36.304"/>
<line x1="619.826" y1="111.783" x2="544.348" y2="111.783"/>
<line x1="582.087" y1="36.304" x2="619.826" y2="111.783"/>
<line x1="544.348" y1="111.783" x2="582.087" y2="36.304"/>
<line x1="695.304" y1="111.783" x2="619.826" y2="111.783"/>
<line x1="657.565" y1="36.304" x2="695.304" y2="111.783"/>
<line x1="619.826" y1="111.783" x2="657.565" y2="36.304"/>
<line x1="770.783" y1="111.783" x2="695.304" y2="111.783"/>
<line x1="733.043" y1="36.304" x2="770.783" y2="111.783"/>
<line x1="695.304" y1="111.783" x2="733.043" y2="36.304"/>
<line x1="846.261" y1="111.783" x2="770.783" y2="111.783"/>
<line x1="808.522" y1="36.304" x2="846.261" y2="111.783"/>
<line x1="770.783" y1="111.783" x2="808.522" y2="36.304"/>
<line x1="16.000" y1="111.783" x2="846.261" y2="111.783"/>
<line x1="884.000" y1="36.304" x2="16.000" y2="111.783"/>
<line x1="846.261" y1="111.783" x2="884.000" y2="36.304"/>
<line x1="91.478" y1="111.783" x2="16.000" y2="111.783"/>
<line x1="53.739" y1="36.304" x2="91.478" y2="111.783"/>
<line x1="16.000" y1="111.783" x2="53.739" y2="36.304"/>
<line x1="166.957" y1="111.783" x2="91.478" y2="111.783"/>
<line x1="129.217" y1="36.304" x2="166.957" y2="111.783"/>
<line x1="91.478" y1="111.783" x2="129.217" y2="36.304"/>
<line x1="280.174" y1="36.304" x2="204.696" y2="36.304"/>
<line x1="355.652" y1="36.304" x2="280.174" y2="36.304"/>
<line x1="431.130" y1="36.304" x2="355.652" y2="36.304"/>
<line x1="506.609" y1="36.304" x2="431.130" y2="36.304"/>
<line x1="582.087" y1="36.304" x2="506.609" y2="36.304"/>
<line x1="657.565" y1="36.304" x2="582.087" y2="36.304"/>
<line x1="733.043" y1="36.304" x2="657.565" y2="36.304"/>
<line x1="808.522" y1="36.304" x2="733.043" y2="36.304"/>
<line x1="884.000" y1="36.304" x2="808.522" y2="36.304"/>
<line x1="53.739" y1="36.304" x2="884.000" y2="36.304"/>
<line x1="129.217" y1="36.304" x2="53.739" y2="36.304"/>
<line x1="204.696" y1="36.304" x2="129.217" y2="36.304"/>
</g>
</svg>
