<?xml version="1.0" encoding="UTF-8"?>
<svg xmlns="http://www.w3.org/2000/svg" width="900" height="450" viewBox="0 0 900 450" role="img" aria-label="STRETCHED_TORUS8x5 grid">
<rect width="100%" height="100%" fill="#ffffff"/>
<title>STRETCHED_TORUS8x5 grid</title>
<g fill="none" stroke="#1f2937" stroke-width="0.8" stroke-linecap="round" stroke-linejoin="round">
<line x1="131.733" y1="410.173" x2="16.000" y2="410.173"/>
<line x1="73.867" y1="317.587" x2="131.733" y2="410.173"/>
<line x1="16.000" y1="410.173" x2="73.867" y2="317.587"/>
<line x1="363.200" y1="39.827" x2="16.000" y2="410.173"/>
<line x1="131.733" y1="410.173" x2="363.200" y2="39.827"/>
<line x1="247.467" y1="410.173" x2="131.733" y2="410.173"/>
<line x1="189.600" y1="317.587" x2="247.467" y2="410.173"/>
<line x1="131.733" y1="410.173" x2="189.600" y2="317.587"/>
<line x1="478.933" y1="39.827" x2="131.733" y2="410.173"/>
<line x1="247.467" y1="410.173" x2="478.933" y2="39.827"/>
<line x1="363.200" y1="410.173" x2="247.467" y2="410.173"/>
<line x1="305.333" y1="317.587" x2="363.200" y2="410.173"/>
<line x1="247.467" y1="410.173" x2="305.333" y2="317.587"/>
<line x1="594.667" y1="39.827" x2="247.467" y2="410.173"/>
<line x1="363.200" y1="410.173" x2="594.667" y2="39.827"/>
<line x1="478.933" y1="410.173" x2="363.200" y2="410.173"/>
<line x1="421.067" y1="317.587" x2="478.933" y2="410.173"/>
<line x1="363.200" y1="410.173" x2="421.067" y2="317.587"/>
<line x1="710.400" y1="39.827" x2="363.200" y2="410.173"/>
<line x1="478.933" y1="410.173" x2="710.400" y2="39.827"/>
<line x1="594.667" y1="410.173" x2="478.933" y2="410.173"/>
<line x1="536.800" y1="317.587" x2="594.667" y2="410.173"/>
<line x1="478.933" y1="410.173" x2="536.800" y2="317.587"/>
<line x1="826.133" y1="39.827" x2="478.933" y2="410.173"/>
<line x1="594.667" y1="410.173" x2="826.133" y2="39.827"/>
<line x1="710.400" y1="410.173" x2="594.667" y2="410.173"/>
<line x1="652.533" y1="317.587" x2="710.400" y2="410.173"/>
<line x1="594.667" y1="410.173" x2="652.533" y2="317.587"/>
<line x1="16.000" y1="39.827" x2="594.667" y2="410.173"/>
<line x1="710.400" y1="410.173" x2="16.000" y2="39.827"/>
<line x1="826.133" y1="410.173" x2="710.400" y2="410.173"/>
<line x1="768.267" y1="317.587" x2="826.133" y2="410.173"/>
<line x1="710.400" y1="410.173" x2="768.267" y2="317.587"/>
<line x1="131.733" y1="39.827" x2="710.400" y2="410.173"/>
<line x1="826.133" y1="410.173" x2="131.733" y2="39.827"/>
<line x1="16.000" y1="410.173" x2="826.133" y2="410.173"/>
<line x1="884.000" y1="317.587" x2="16.000" y2="410.173"/>
<line x1="826.133" y1="410.173" x2="884.000" y2="317.587"/>
<line x1="247.467" y1="39.827" x2="826.133" y2="410.173"/>
<line x1="16.000" y1="410.173" x2="247.467" y2="39.827"/>
<line x1="189.600" y1="317.587" x2="73.867" y2="317.587"/>
<line x1="131.733" y1="225.000" x2="189.600" y2="317.587"/>
<line x1="73.867" y1="317.587" x2="131.733" y2="225.000"/>
<line x1="305.333" y1="317.587" x2="189.600" y2="317.587"/>
<line x1="247.467" y1="225.000" x2="305.333" y2="317.587"/>
<line x1="189.600" y1="317.587" x2="247.467" y2="225.000"/>
<line x1="421.067" y1="317.587" x2="305.333" y2="317.587"/>
<line x1="363.200" y1="225.000" x2="421.067" y2="317.587"/>
<line x1="305.333" y1="317.587" x2="363.200" y2="225.000"/>
<line x1="536.800" y1="317.587" x2="421.067" y2="317.587"/>
<line x1="478.933" y1="225.000" x2="536.800" y2="317.587"/>
<line x1="421.067" y1="317.587" x2="478.933" y2="225.000"/>
<line x1="652.533" y1="317.587" x2="536.800" y2="317.587"/>
<line x1="594.667" y1="225.000" x2="652.533" y2="317.587"/>
<line x1="536.800" y1="317.587" x2="594.667" y2="225.000"/>
<line x1="768.267" y1="317.587" x2="652.533" y2="317.587"/>
<line x1="710.400" y1="225.000" x2="768.267" y2="317.587"/>
<line x1="652.533" y1="317.587" x2="710.400" y2="225.000"/>
<line x1="884.000" y1="317.587" x2="768.267" y2="317.587"/>
<line x1="826.133" y1="225.000" x2="884.000" y2="317.587"/>
<line x1="768.267" y1="317.587" x2="826.133" y2="225.000"/>
<line x1="73.867" y1="317.587" x2="884.000" y2="317.587"/>
<line x1="16.000" y1="225.000" x2="73.867" y2="317.587"/>
<line x1="884.000" y1="317.587" x2="16.000" y2="225.000"/>
<line x1="247.467" y1="225.000" x2="131.733" y2="225.000"/>
<line x1="189.600" y1="132.413" x2="247.467" y2="225.000"/>
<line x1="131.733" y1="225.000" x2="189.600" y2="132.413"/>
<line x1="363.200" y1="225.000" x2="247.467" y2="225.000"/>
<line x1="305.333" y1="132.413" x2="363.200" y2="225.000"/>
<line x1="247.467" y1="225.000" x2="305.333" y2="132.413"/>
<line x1="478.933" y1="225.000" x2="363.200" y2="225.000"/>
<line x1="421.067" y1="132.413" x2="478.933" y2="225.000"/>
<line x1="363.200" y1="225.000" x2="421.067" y2="132.413"/>
<line x1="594.667" y1="225.000" x2="478.933" y2="225.000"/>
<line x1="536.800" y1="132.413" x2="594.667" y2="225.000"/>
<line x1="478.933" y1="225.000" x2="536.800" y2="132.413"/>
<line x1="710.400" y1="225.000" x2="594.667" y2="225.000"/>
<line x1="652.533" y1="132.413" x2="710.400" y2="225.000"/>
<line x1="594.667" y1="225.000" x2="652.533" y2="132.413"/>
<line x1="826.133" y1="225.000" x2="710.400" y2="225.000"/>
<line x1="768.267" y1="132.413" x2="826.133" y2="225.000"/>
<line x1="710.400" y1="225.000" x2="768.267" y2="132.413"/>
<line x1="16.000" y1="225.000" x2="826.133" y2="225.000"/>
<line x1="884.000" y1="132.413" x2="16.000" y2="225.000"/>
<line x1="826.133" y1="225.000" x2="884.000" y2="132.413"/>
<line x1="131.733" y1="225.000" x2="16.000" y2="225.000"/>
<line x1="73.867" y1="132.413" x2="131.733" y2="225.000"/>
<line x1="16.000" y1="225.000" x2="73.867" y2="132.413"/>
<line x1="305.333" y1="132.413" x2="189.600" y2="132.413"/>
<line x1="247.467" y1="39.827" x2="305.333" y2="132.413"/>
<line x1="189.600" y1="132.413" x2="247.467" y2="39.827"/>
<line x1="421.067" y1="132.413" x2="305.333" y2="132.413"/>
<line x1="363.200" y1="39.827" x2="421.067" y2="132.413"/>
<line x1="305.333" y1="132.413" x2="363.200" y2="39.827"/>
<line x1="536.800" y1="132.413" x2="421.067" y2="132.413"/>
<line x1="478.933" y1="39.827" x2="536.800" y2="132.413"/>
<line x1="421.067" y1="132.413" x2="478.933" y2="39.827"/>
<line x1="652.533" y1="132.413" x2="536.800" y2="132.413"/>
<line x1="594.667" y1="39.827" x2="652.533" y2="132.413"/>
<line x1="536.800" y1="132.413" x2="594.667" y2="39.827"/>
<line x1="768.267" y1="132.413" x2="652.533" y2="132.413"/>
<line x1="710.400" y1="39.827" x2="768.267" y2="132.413"/>
<line x1="652.533" y1="132.413" x2="710.400" y2="39.827"/>
<line x1="884.000" y1="132.413" x2="768.267" y2="132.413"/>
<line x1="826.133" y1="39.827" x2="884.000" y2="132.413"/>
<line x1="768.267" y1="132.413" x2="826.133" y2="39.827"/>
<line x1="73.867" y1="132.413" x2="884.000" y2="132.413"/>
<line x1="16.000" y1="39.827" x2="73.867" y2="132.413"/>
<line x1="884.000" y1="132.413" x2="16.000" y2="39.827"/>
<line x1="189.600" y1="132.413" x2="73.867" y2="132.413"/>
<line x1="131.733" y1="39.827" x2="189.600" y2="132.413"/>
<line x1="73.867" y1="132.413" x2="131.733" y2="39.827"/>
<line x1="363.200" y1="39.827" x2="247.467" y2="39.827"/>
<line x1="478.933" y1="39.827" x2="363.200" y2="39.827"/>
<line x1="594.667" y1="39.827" x2="478.933" y2="39.827"/>
<line x1="710.400" y1="39.827" x2="594.667" y2="39.827"/>
<line x1="826.133" y1="39.827" x2="710.400" y2="39.827"/>
<line x1="16.000" y1="39.827" x2="826.133" y2="39.827"/>
<line x1="131.733" y1="39.827" x2="16.000" y2="39.827"/>
<line x1="247.467" y1="39.827" x2="131.733" y2="39.827"/>
</g>
</svg>
